<svg id="Calque_1" data-name="Calque 1" xmlns="http://www.w3.org/2000/svg" xmlns:xlink="http://www.w3.org/1999/xlink" viewBox="0 0 926.63 346.33"><defs><style>.cls-1{opacity:0.5;}.cls-2{fill:url(#Dégradé_sans_nom_2);}.cls-3{fill:#f5f5f5;}.cls-4{fill:#f6bb0c;}.cls-5{fill:#333;}.cls-6,.cls-9{opacity:0.1;}.cls-18,.cls-6,.cls-9{isolation:isolate;}.cls-7{fill:#fdb797;}.cls-8,.cls-9{fill:#f1712a;}.cls-10{fill:url(#Dégradé_sans_nom_2-2);}.cls-11{fill:url(#Dégradé_sans_nom_2-3);}.cls-12{fill:url(#Dégradé_sans_nom_2-4);}.cls-13{fill:url(#Dégradé_sans_nom_2-5);}.cls-14{fill:url(#Dégradé_sans_nom_2-6);}.cls-15{fill:url(#Dégradé_sans_nom_2-7);}.cls-16{fill:#f7d6c8;}.cls-17{fill:#efb7b9;}.cls-18{opacity:0.05;}.cls-19{fill:#c3705a;}.cls-20{fill:#ecb4b6;}.cls-21{fill:#463a3e;}.cls-22{fill:#c17174;}.cls-23{font-size:40px;font-family:Montserrat-Regular, Montserrat;}.cls-24{letter-spacing:-0.01em;}.cls-25{letter-spacing:-0.02em;}.cls-26{letter-spacing:0em;}.cls-27{letter-spacing:-0.01em;}.cls-28{letter-spacing:0em;}.cls-29{letter-spacing:-0.01em;}.cls-30{fill:#1e201d;}</style><linearGradient id="Dégradé_sans_nom_2" x1="-320.81" y1="2005.98" x2="-320.81" y2="2237" gradientTransform="matrix(1, 0, 0, -1, 430.63, 2237)" gradientUnits="userSpaceOnUse"><stop offset="0" stop-color="gray" stop-opacity="0.25"/><stop offset="0.54" stop-color="gray" stop-opacity="0.12"/><stop offset="1" stop-color="gray" stop-opacity="0.1"/></linearGradient><linearGradient id="Dégradé_sans_nom_2-2" x1="247.32" y1="1850.77" x2="247.32" y2="2040.19" gradientTransform="matrix(1, 0, 0, -1, 519.51, 2136.77)" xlink:href="#Dégradé_sans_nom_2"/><linearGradient id="Dégradé_sans_nom_2-3" x1="98.49" y1="1934.39" x2="98.49" y2="1934.66" gradientTransform="matrix(1, 0, 0, -1, 519.51, 2136.77)" xlink:href="#Dégradé_sans_nom_2"/><linearGradient id="Dégradé_sans_nom_2-4" x1="98.49" y1="1934.66" x2="98.49" y2="1934.94" gradientTransform="matrix(1, 0, 0, -1, 519.51, 2136.77)" xlink:href="#Dégradé_sans_nom_2"/><linearGradient id="Dégradé_sans_nom_2-5" x1="98.53" y1="1935.06" x2="98.53" y2="1935.06" gradientTransform="matrix(1, 0, 0, -1, 519.51, 2136.77)" xlink:href="#Dégradé_sans_nom_2"/><linearGradient id="Dégradé_sans_nom_2-6" x1="98.54" y1="1934.94" x2="98.54" y2="1934.94" gradientTransform="matrix(1, 0, 0, -1, 519.51, 2136.77)" xlink:href="#Dégradé_sans_nom_2"/><linearGradient id="Dégradé_sans_nom_2-7" x1="98.53" y1="1935" x2="98.53" y2="1935" gradientTransform="matrix(1, 0, 0, -1, 519.51, 2136.77)" xlink:href="#Dégradé_sans_nom_2"/></defs><title>devenirmembre</title><g class="cls-1"><ellipse class="cls-2" cx="109.81" cy="115.51" rx="109.81" ry="115.51"/></g><ellipse class="cls-3" cx="110.03" cy="114.77" rx="107.5" ry="113.07"/><path class="cls-4" d="M243.5,283.25a103.32,103.32,0,0,0,59.09-18.6c-4-22.77-19-24.07-19-24.07H200.42s-14.22,1.23-18.66,22.17A103.34,103.34,0,0,0,243.5,283.25Z" transform="translate(-133.38 -55)"/><ellipse class="cls-5" cx="108.98" cy="112.39" rx="51.89" ry="54.58"/><path class="cls-6" d="M225.82,212.55H258.9v28c0,9.65-7.4,17.48-16.53,17.48h0c-9.14,0-16.54-7.82-16.54-17.48h0v-28h0Z" transform="translate(-133.38 -55)"/><path class="cls-7" d="M226.87,211.58h31a1.08,1.08,0,0,1,1,1.11h0v26.85c0,9.64-7.4,17.47-16.53,17.47h0c-9.13,0-16.53-7.82-16.53-17.47h0V212.69A1.08,1.08,0,0,1,226.87,211.58Z" transform="translate(-133.38 -55)"/><path class="cls-6" d="M225.83,226.42a45.17,45.17,0,0,0,33.07.1v-4.3H225.83Z" transform="translate(-133.38 -55)"/><ellipse class="cls-7" cx="108.98" cy="123.27" rx="47.65" ry="50.13"/><path class="cls-6" d="M208.42,132.67s20.08,42.88,76.73,18L272,128.9l-23.38-8.83Z" transform="translate(-133.38 -55)"/><path class="cls-5" d="M208.42,132s20.08,42.89,76.73,18L272,128.26l-23.38-8.83Z" transform="translate(-133.38 -55)"/><path class="cls-5" d="M208.24,129.14a29.27,29.27,0,0,1,6.82-11.68c9.38-9.74,24.75-11.8,32.63-22.91,1.88,3.08.42,7.83-2.83,9.15,7.55,0,16.3-.75,20.57-7.28A15.47,15.47,0,0,1,263,112.11c6.7.33,13.85,5.09,14.27,12.13.29,4.68-2.52,9.12-6.16,11.81S263.06,140,258.7,141C246,143.93,199.94,156.3,208.24,129.14Z" transform="translate(-133.38 -55)"/><ellipse class="cls-7" cx="61.31" cy="123.22" rx="4.43" ry="8.74"/><ellipse class="cls-7" cx="156.63" cy="123.22" rx="4.43" ry="8.74"/><path class="cls-8" d="M1004.21,271.66A98,98,0,0,0,1060,254.22c-3.74-21.35-18-22.57-18-22.57H963.54s-13.43,1.15-17.63,20.79A98,98,0,0,0,1004.21,271.66Z" transform="translate(-133.38 -55)"/><ellipse class="cls-5" cx="869.76" cy="108.3" rx="48.99" ry="51.18"/><path class="cls-7" d="M988.9,204.48H1018a1,1,0,0,1,1,1.05h0v25.38c0,9.12-6.94,16.51-15.51,16.51h0c-8.57,0-15.51-7.39-15.51-16.51h0V205.53A1,1,0,0,1,988.9,204.48Z" transform="translate(-133.38 -55)"/><ellipse class="cls-7" cx="869.76" cy="118.51" rx="44.99" ry="47"/><path class="cls-5" d="M971.08,130.16s19,40.21,72.46,16.85l-12.46-20.4L1009,118.34Z" transform="translate(-133.38 -55)"/><path class="cls-5" d="M970.92,127.44a27.44,27.44,0,0,1,6.44-11c8.85-9.14,23.36-11.07,30.8-21.49,1.78,2.89.41,7.34-2.67,8.58,7.13,0,15.39-.7,19.42-6.83a14.39,14.39,0,0,1-2.25,14.71c6.32.31,13.07,4.78,13.47,11.38.28,4.39-2.37,8.55-5.82,11.07s-7.64,3.68-11.75,4.63C1006.55,141.31,963.08,152.91,970.92,127.44Z" transform="translate(-133.38 -55)"/><ellipse class="cls-7" cx="824.75" cy="118.46" rx="4.19" ry="8.2"/><ellipse class="cls-7" cx="914.74" cy="118.46" rx="4.19" ry="8.2"/><path class="cls-9" d="M558,101.83c.74,4.69,2.63,9.22,2.65,14,.06,15.5-18.75,25-21.63,40.25-1.7,9,2.72,18.27,9,25s14.2,11.6,21.53,17.15a137.85,137.85,0,0,1,45.17,59.75,57.5,57.5,0,0,1,4,14.76c.38,3.69.2,7.48,1.06,11.08,3.43,14.33,20.82,19.89,35.52,20.82A155.85,155.85,0,0,0,724.51,293c4.93-2,10-4.39,15.3-3.81,4.23.47,8,2.75,11.72,4.84a155.65,155.65,0,0,0,34.65,14.26c6.7,1.85,13.72,3.25,20.56,2.06,20.53-3.63,31.45-28.53,51.59-34,13.94-3.77,28.45,2.81,40.95,10S924.68,302,939.11,302c19.25,0,35.08-14.55,48.14-28.69,2.74-3,5.52-6.08,6.83-9.9,2.65-7.76-1.64-16.48-8-21.7s-14.34-7.8-22-10.78a190.64,190.64,0,0,1-36.86-19.25c-7.48-5-14.72-10.68-19.83-18.07-4.4-6.37-7-13.76-10-20.92-6.46-15.69-15.6-31.63-30.87-39-12.46-6-26.94-5.34-40.77-5.5-20.39-.23-41.29-2.68-59.36-12.11-15.27-8-27.8-20.53-43.29-28.06-24.64-12-52.81-9.62-79.36-9.17-12.76.22-27.93,1.49-40.18-2.69-9.07-3.09-13.73-9.41-24.14-6.86C565.21,72.8,555.7,87.36,558,101.83Z" transform="translate(-133.38 -55)"/><path class="cls-10" d="M935.46,214.72a10.29,10.29,0,0,1,.2-6.51c1.23-3.19,4.23-5.49,5.29-8.75,2-6.05-3.33-11.71-6.57-17.19a28.86,28.86,0,0,1-3.87-16.84c.51-6.31,3.09-12.34,3.29-18.66.17-5.9-1.74-11.63-3.62-17.22-1.56-4.61-3.14-9.28-5.77-13.38-5-7.75-13.82-12.62-22.92-13.42-4.29-.39-8.48,1-12.7.46-5.86-.75-11.39-2.27-17.36-2.46-5.68-.17-11.95.55-15.81,4.71-3,3.18-3.9,7.78-6.6,11.18-3.84,4.82-10.54,6.48-14.78,10.94a15.51,15.51,0,0,0-3.51,15c.59,1.91,1.55,3.68,2.17,5.57,2.63,7.91-.82,16.37-2.9,24.44a3.67,3.67,0,0,0-.12,2c.33,1,1.36,1.5,2.22,2.09,2.81,1.91,4.24,5.38,4.52,8.76s-.51,6.77-1.28,10.08c-2,8.41-4.43,17.43-10.92,23a59.06,59.06,0,0,0-4.16-8.11c-4-6.43-6.9-14.37-7-22a.08.08,0,0,1,0-.07c0-.42,0-.83,0-1.24.52-9,4.39-17.62,4.31-26.55,0-.72,0-1.44-.07-2.17-.5-7.64-4.17-14.71-8.38-21.11-3.14-4.77-6.68-9.38-11.22-12.86-7-5.34-15.91-7.65-24.67-8.88s-16.71-2.37-25.53-3c-9.49-.64-19.93-1-27.42,4.84-9.78,7.62-10.32,22.32-17.78,32.22-4.43,5.89-11.5,10.44-13.83,17.13a40.18,40.18,0,0,1-1.58-5c0-.12,0-.23-.07-.34A49.09,49.09,0,0,0,689,136.3a31.26,31.26,0,0,0,.28-4.1,16.17,16.17,0,0,0-.48-4.44c-1.06-4-4-7.2-6.78-10.24a29.8,29.8,0,0,0-3.33-3.22,48.75,48.75,0,0,0-83.13,48.46,12.79,12.79,0,0,1-3.44,7.5c-.91.9-2.08,2-1.88,3.17a1.48,1.48,0,0,0,.13,1,2.82,2.82,0,0,0,.82.9,14.77,14.77,0,0,0,10.06,3A42,42,0,0,0,618.19,200c0,.28,0,.54,0,.8a11.16,11.16,0,0,1-.16,1.37v1.2s-14.14,18.43-27.21,19.12c-7,.36-13.07,5.07-17.68,10.45-5.54,6.46-9,13.89-9.26,15.94-.54,3.77-4.31,22.09-4.31,22.09H668.13c-1.28,6.6-3,15-3,15H843.46c-.4-5.54-.84-10.66-1.26-15H967.58l6.54-10.24C972.5,232.18,955.64,216.46,935.46,214.72ZM678.84,182.79a27,27,0,0,0,7.39,2.66,4.44,4.44,0,0,0,3.33-.26,3.78,3.78,0,0,0,1.34-1.9l.05.12c2.78,7,5.34,14.19,5.84,21.69,0,.7.07,1.41.08,2.12a30.74,30.74,0,0,1-2.59,12.43,240.16,240.16,0,0,1-26.81-16.43l-.58-.25c0,.05.2.56.44,1.43.06.21.12.44.18.68-.58-1.89-1.12-3.83-1.59-5.81l-.16-.7A42,42,0,0,0,678.84,182.79Z" transform="translate(-133.38 -55)"/><path class="cls-11" d="M618,202.38v0Z" transform="translate(-133.38 -55)"/><path class="cls-12" d="M618,202.11v0Z" transform="translate(-133.38 -55)"/><path class="cls-13" d="M618,201.71" transform="translate(-133.38 -55)"/><path class="cls-14" d="M618.05,201.83Z" transform="translate(-133.38 -55)"/><path class="cls-15" d="M618,201.77Z" transform="translate(-133.38 -55)"/><path class="cls-16" d="M869.78,102.2c-5.58-.16-11.76.55-15.56,4.64-2.91,3.13-3.83,7.65-6.49,11-3.78,4.75-10.38,6.38-14.56,10.77a15.29,15.29,0,0,0-3.45,14.73c.58,1.87,1.53,3.62,2.14,5.48,2.58,7.8-.79,16.11-2.87,24.05a3.51,3.51,0,0,0-.12,2c.32,1,1.34,1.48,2.18,2,2.77,1.88,4.18,5.29,4.43,8.62a33.17,33.17,0,0,1-1.26,9.92c-2,8.62-4.56,17.91-11.57,23.34-2.95,2.32-6.9,4.2-7.68,7.9-.9,4.33,3.23,8,7.2,10,11.63,5.75,25.14,5.84,37.86,8.4,11.21,2.26,22.39,6.54,33.73,5.07,5.06-.65,9.89-2.42,14.67-4.19l29.79-11a7.69,7.69,0,0,0,2.34-1.18c1.8-1.5,1.86-4.34.88-6.46s-2.75-3.75-4.31-5.49c-3.4-3.81-6-9.18-4.13-13.94,1.23-3.14,4.17-5.4,5.21-8.62,1.93-6-3.29-11.53-6.45-16.93a28.38,28.38,0,0,1-3.8-16.55c.49-6.21,3-12.15,3.22-18.38.17-5.8-1.7-11.44-3.56-16.94-1.53-4.54-3.09-9.14-5.68-13.17-4.9-7.63-13.6-12.42-22.56-13.22-4.22-.37-8.35,1-12.5.47C881.11,103.88,875.65,102.38,869.78,102.2Z" transform="translate(-133.38 -55)"/><path class="cls-17" d="M878,265.16S844.21,244,857.34,219.58a38.34,38.34,0,0,0,4.46-13.64,29.66,29.66,0,0,0,.2-3.65v-2.61q-.06-1-.18-2A39.78,39.78,0,0,0,852,176.44s56-16.35,46.64-1.61c-4.35,6.84-3,13.55-.14,20.5.31.73.64,1.47,1,2.2,3.37,7.32,8,14.91,9.35,23.14C911.49,237.55,878,265.16,878,265.16Z" transform="translate(-133.38 -55)"/><path class="cls-6" d="M898.75,174.83c-4.36,6.84-3,13.55-.14,20.5a37.86,37.86,0,0,1-36.67,2.41,39.74,39.74,0,0,0-9.83-21.3S908.13,160.09,898.75,174.83Z" transform="translate(-133.38 -55)"/><circle class="cls-17" cx="744.73" cy="107.77" r="37.79"/><path class="cls-6" d="M862,199.88v-.18l0-.08A.85.85,0,0,0,862,199.88Z" transform="translate(-133.38 -55)"/><path class="cls-6" d="M878.11,265.16S844.34,244,857.47,219.58a37.75,37.75,0,0,0,4.66-15.86c.77,6,4.93,13.52,12.5,23.9,3.28,4.52,4.7,10.83,5.14,17.14l.76.55,3.69-2.23c.41-7,1.82-14,5.17-19,8.78-13.14,10.87-19.71,10.22-26.52,3.37,7.32,8,14.9,9.35,23.13C911.61,237.55,878.11,265.16,878.11,265.16Z" transform="translate(-133.38 -55)"/><path class="cls-8" d="M932.25,214.3c-20.12-1.46-32.85-17.08-32.85-17.08,1.07,7.31-.67,13.86-10,27.92-3.33,5-4.73,12-5.15,19l-3.69,2.23-.75-.54c-.45-6.31-1.86-12.64-5.15-17.15-9.38-12.87-13.55-21.31-12.46-28,0,0-10.32,16.75-30.42,18.09s-37,15.55-38.61,41.55l6.43,8.66H863l0,1H964.4l6.46-10.34C969.24,231.27,952.38,215.76,932.25,214.3Z" transform="translate(-133.38 -55)"/><path class="cls-18" d="M932.25,214.3c-20.12-1.46-32.85-17.08-32.85-17.08,1.07,7.31-.67,13.86-10,27.92-3.33,5-4.73,12-5.15,19l-3.69,2.23-.75-.54c-.45-6.31-1.86-12.64-5.15-17.15-9.38-12.87-13.55-21.31-12.46-28,0,0-10.32,16.75-30.42,18.09s-37,15.55-38.61,41.55l6.43,8.66H863l0,1H964.4l6.46-10.34C969.24,231.27,952.38,215.76,932.25,214.3Z" transform="translate(-133.38 -55)"/><path class="cls-6" d="M903.66,144.5A30.77,30.77,0,0,1,895.91,155c-4.4,4.16-9.94,7.84-16,7.55a24.58,24.58,0,0,0,6.91-11.34c-3.82,2.23-6.71,5.75-10.36,8.26s-8.8,3.8-12.36,1.18a37.12,37.12,0,0,0,15.47-14.61c-8.66,2.24-13.1,12-20.9,16.37a23.75,23.75,0,0,1-12.12,2.73c-3-.06-6.3-.75-8-3.22a9.3,9.3,0,0,1-1.23-5c-.18-7.87,3-15.6,8-21.73s11.5-10.79,18.51-14.41a25.6,25.6,0,0,1,7.88-2.88c3.46-.5,7,.24,10.38,1a59.46,59.46,0,0,1,12.9,4.1C903.68,127.35,907.47,135.12,903.66,144.5Z" transform="translate(-133.38 -55)"/><path class="cls-16" d="M903.66,144a30.83,30.83,0,0,1-7.75,10.51c-4.4,4.17-9.94,7.84-16,7.55a24.53,24.53,0,0,0,6.91-11.34c-3.82,2.23-6.71,5.75-10.36,8.26s-8.8,3.8-12.36,1.18a37.06,37.06,0,0,0,15.47-14.61c-8.66,2.24-13.1,12-20.9,16.37a23.76,23.76,0,0,1-12.12,2.74c-3-.07-6.3-.76-8-3.23a9.29,9.29,0,0,1-1.23-5c-.18-7.88,3-15.61,8-21.74s11.5-10.79,18.51-14.41a25.58,25.58,0,0,1,7.88-2.87c3.46-.51,7,.23,10.38,1a59,59,0,0,1,12.9,4.11C903.68,126.8,907.47,134.59,903.66,144Z" transform="translate(-133.38 -55)"/><circle class="cls-19" cx="509.69" cy="91.05" r="47.98"/><path class="cls-20" d="M686.09,238.39s-43.94,11.25-45,12.32-37,2.94-26.54-19c3.84-8.07,5.44-19,5.92-29.68l.06-1.34a219.21,219.21,0,0,0-1.69-34.39s50.92-20.12,47.17,10.46a64,64,0,0,0,1.54,22.43c.57,2.4,1.24,4.75,2,7A119.6,119.6,0,0,0,686.09,238.39Z" transform="translate(-133.38 -55)"/><path class="cls-6" d="M667.52,199.17a41.28,41.28,0,0,1-47,1.5,219.21,219.21,0,0,0-1.69-34.39s50.92-20.12,47.17,10.46A64,64,0,0,0,667.52,199.17Z" transform="translate(-133.38 -55)"/><circle class="cls-20" cx="509.56" cy="110.21" r="41.28"/><path class="cls-6" d="M686.09,238.39s-43.94,11.25-45,12.32-37,2.94-26.54-19c3.84-8.07,5.44-19,5.92-29.68.41,5.57,3.59,19,4,23.51a4,4,0,0,0,.15.77c.6,2,2.72,4.29,5.28,6.47l.15.12a19.58,19.58,0,0,0,23.06,1.54,102.54,102.54,0,0,0,10.49-7.56c4.78-3.95,6.28-9.26,6.46-14a29.79,29.79,0,0,0-.53-6.73A119.53,119.53,0,0,0,686.09,238.39Z" transform="translate(-133.38 -55)"/><path class="cls-8" d="M741.57,269H562.24s3.76-18.23,4.29-22c.29-2.05,3.7-9.44,9.21-15.86,4.59-5.34,10.65-10,17.59-10.41,13-.68,27.07-19,27.07-19h0c.32,5.34,3.61,19.28,4,23.86a3.39,3.39,0,0,0,.15.77c.6,2,2.72,4.29,5.28,6.46l.15.13a19.58,19.58,0,0,0,23.06,1.54,103.65,103.65,0,0,0,10.49-7.56c4.78-3.95,6.27-9.27,6.46-14a31.3,31.3,0,0,0-1.12-9.24c-.24-.85-.41-1.35-.44-1.4l.57.24s24.28,17.66,46.53,24.88a26.51,26.51,0,0,1,7.29,3.7,31.24,31.24,0,0,1,5,4.44A46.16,46.16,0,0,1,735.2,247,77.87,77.87,0,0,1,741.57,269Z" transform="translate(-133.38 -55)"/><path class="cls-18" d="M741.57,269H562.24s3.76-18.23,4.29-22c.29-2.05,3.7-9.44,9.21-15.86,4.59-5.34,10.65-10,17.59-10.41,13-.68,27.07-19,27.07-19h0c.32,5.34,3.61,19.28,4,23.86a3.39,3.39,0,0,0,.15.77c.6,2,2.72,4.29,5.28,6.46l.15.13a19.58,19.58,0,0,0,23.06,1.54,103.65,103.65,0,0,0,10.49-7.56c4.78-3.95,6.27-9.27,6.46-14a31.3,31.3,0,0,0-1.12-9.24c-.24-.85-.41-1.35-.44-1.4l.57.24s24.28,17.66,46.53,24.88a26.51,26.51,0,0,1,7.29,3.7,31.24,31.24,0,0,1,5,4.44A46.16,46.16,0,0,1,735.2,247,77.87,77.87,0,0,1,741.57,269Z" transform="translate(-133.38 -55)"/><path class="cls-6" d="M662.77,151.35c1.07,4.11,2.47,8.67,6.13,10.81a5.17,5.17,0,0,1,1.35.91c.9,1,.63,2.52.49,3.85a15.94,15.94,0,0,0,4.71,12.47,23.46,23.46,0,0,0,12.08,6.19,4.4,4.4,0,0,0,3.28-.25,3.84,3.84,0,0,0,1.35-1.94c1.25-3.33.72-7.07-.32-10.47s-2.59-6.64-3.39-10.11c-1.88-8.24.61-16.75,1.74-25.12a21.62,21.62,0,0,0-.13-8.37c-1-3.93-3.9-7.09-6.67-10.07a20.52,20.52,0,0,0-4.93-4.29c-5.64-3.09-12.91-.35-18.93-2.6-2.41-.89-4.46-2.54-6.76-3.69-4.87-2.47-10.65-2.6-16-1.48s-10.35,3.43-15.31,5.71l-3.79,1.71c-5.34,2.47-11.06,5.25-13.93,10.41-3.06,5.48-2.21,12.51-5.27,18-.93,1.65-2.22,3.22-2.46,5.11a10.12,10.12,0,0,0,.64,4,32.52,32.52,0,0,1,1.71,9.85,13.23,13.23,0,0,1-3.52,9.14c-1,1-2.34,2.27-1.72,3.54a2.68,2.68,0,0,0,.82.89,14.54,14.54,0,0,0,13.85,2,9,9,0,0,0,4.52-3.41,13,13,0,0,0,1.45-3.81c1.3-4.83,2.61-9.75,2.5-14.75,0-2.88-.58-5.78-.16-8.63s2.08-5.79,4.85-6.57c2.06-.59,4.25.12,6.4.1,3.09,0,6.87-3.45,9.73-2.44,2.47.87,4.42,5.58,6.46,7.39A23.39,23.39,0,0,0,662.77,151.35Z" transform="translate(-133.38 -55)"/><path class="cls-19" d="M662.77,150.81c1.07,4.11,2.47,8.67,6.13,10.81a5,5,0,0,1,1.33.9c.9,1,.63,2.51.49,3.84a15.93,15.93,0,0,0,4.72,12.47A23.47,23.47,0,0,0,687.51,185a4.38,4.38,0,0,0,3.29-.25,3.78,3.78,0,0,0,1.34-1.94c1.26-3.33.73-7.07-.32-10.47s-2.59-6.64-3.38-10.11c-1.89-8.24.61-16.74,1.73-25.12a21.62,21.62,0,0,0-.12-8.37c-1-3.93-3.91-7.09-6.68-10.07a20.33,20.33,0,0,0-4.93-4.29c-5.64-3.09-12.9-.35-18.93-2.59-2.41-.9-4.46-2.55-6.75-3.7-4.88-2.46-10.66-2.6-16-1.48s-10.35,3.43-15.3,5.71l-3.74,1.72c-5.34,2.47-11.06,5.25-13.94,10.41-3.06,5.48-2.21,12.51-5.27,18-.93,1.64-2.22,3.22-2.46,5.11a10.12,10.12,0,0,0,.64,4.05,31.92,31.92,0,0,1,1.71,9.85,13.22,13.22,0,0,1-3.51,9.14c-1,1-2.34,2.27-1.73,3.54a2.68,2.68,0,0,0,.82.89,14.54,14.54,0,0,0,13.85,2.05,9,9,0,0,0,4.52-3.41,13.36,13.36,0,0,0,1.46-3.81c1.29-4.83,2.6-9.75,2.5-14.76-.06-2.87-.59-5.77-.17-8.62s2.08-5.79,4.86-6.57c2-.59,4.25.12,6.39.1,3.09,0,6.87-3.45,9.74-2.44,2.46.87,4.41,5.58,6.45,7.39A23.21,23.21,0,0,0,662.77,150.81Z" transform="translate(-133.38 -55)"/><rect class="cls-21" x="572.63" y="113" width="94" height="81"/><rect class="cls-18" x="572.63" y="113" width="94" height="81"/><path class="cls-22" d="M786.78,284H706.26c1-5.86,4.1-12.28,10.06-19.21a70.78,70.78,0,0,0,11.42-18.15q1.15-2.64,2.07-5.29a76.79,76.79,0,0,0,3.63-16.19,3.78,3.78,0,0,1,.06-.47,89.61,89.61,0,0,0,.5-11.46v-.83a103.73,103.73,0,0,0-4.65-27.68l-.1-.32c-.88-2.76-1.53-4.31-1.53-4.31s1.61-.86,4.26-2.14l.23-.11c9.76-4.65,32.86-14.37,43-7.45l.17.11c3.56,2.53,5.48,7.15,4.58,14.86v.5s-.48.28-.49.41c-.55,5.31-1.51,16-1.51,16v.82s.75,2.52,1,3.8v.52c-.14,4.15,0,8.43.3,12.78.36,6,.87,12.16,1.46,18.18.25,2.57.52,5.13.82,7.65,0,.29.07.6.1.89q.51,4.6,1.07,9l0,.19C784.17,267.66,786.78,284,786.78,284Z" transform="translate(-133.38 -55)"/><path class="cls-6" d="M780,185.77v.1l-1,16.43v.8a39.29,39.29,0,0,1-45,10.57V213a104.72,104.72,0,0,0-4.76-28.2c-.88-2.77-1.52-4.33-1.52-4.33s1.61-.87,4.26-2.16c9.67-4.67,33.26-14.76,43.44-7.51C779,173.34,780.9,178,780,185.77Z" transform="translate(-133.38 -55)"/><circle class="cls-22" cx="615.65" cy="121.75" r="39.14"/><path class="cls-6" d="M751.1,284H667.59s3.76-18.23,4.29-22c.29-2,3.7-9.44,9.21-15.86A40.49,40.49,0,0,1,706,237.32c16-.24,20.62,5.26,21.88,9.32a9,9,0,0,1,.33,4.23l3,4.38Z" transform="translate(-133.38 -55)"/><path class="cls-8" d="M750.84,284H667.33s3.75-18.23,4.29-22c.29-2,3.69-9.44,9.21-15.86a40.45,40.45,0,0,1,24.92-8.84c16-.24,20.62,5.26,21.88,9.32a9,9,0,0,1,.32,4.23l3,4.38Z" transform="translate(-133.38 -55)"/><path class="cls-6" d="M842,284H754.5c4.17-8.88,15.11-32.55,15.72-38,.23-2.12,2.49-4.11,5.48-5.8a30.48,30.48,0,0,1,2.91-1.47l.18-.08c.55-.24,1.1-.46,1.66-.67a33.39,33.39,0,0,1,23.41.18c7.18,2.74,16.43,6.42,23.62,9.86l.06,0c1.85.89,3.57,1.75,5.09,2.59,3,1.66,5.24,3.18,6.09,4.4.39.55.82,3.07,1.29,7C840.64,267.28,841.33,275.11,842,284Z" transform="translate(-133.38 -55)"/><path class="cls-8" d="M842.26,284H754.77c4.17-8.88,15.11-32.55,15.71-38,.24-2.12,2.5-4.11,5.49-5.8a30.48,30.48,0,0,1,2.91-1.47l.18-.08c.55-.24,1.1-.46,1.66-.67a33.39,33.39,0,0,1,23.41.18c7.18,2.74,16.43,6.42,23.62,9.86l.06,0c1.85.89,3.57,1.75,5.08,2.59,3,1.66,5.25,3.18,6.1,4.4.39.55.82,3.07,1.29,7C840.91,267.28,841.59,275.12,842.26,284Z" transform="translate(-133.38 -55)"/><path class="cls-6" d="M828.18,241.47c0,1.26,0,2.53-.1,3.79,0,.62-.09,1.23-.14,1.85,0,.44-.08.88-.13,1.32l-.06.51c-.66,6-1.9,11.91-2.75,17.91v.85c.67,5.63,2.82,17.3,2.82,17.3h-50.2c-.08-1-.12-2.05-.11-3.07s.06-1.83.15-2.75c.79-7.56,4.68-14.64,5.27-22.15l.06-.94a1.09,1.09,0,0,0,0-.18h0a31.35,31.35,0,0,0-1.15-8.4l-.1-.36a68.89,68.89,0,0,0-2.48-7l-.18-.46a107.53,107.53,0,0,1-3.81-10.2,27.17,27.17,0,0,1-1.19-7.8c0-.47,0-1,.07-1.42s.07-.77.13-1.16a16.13,16.13,0,0,1,.37-1.81c.82-3.24,2.59-6.27,4.28-9.28h0c1.88-3.35,3.68-6.66,4-10.18a11.83,11.83,0,0,0,0-1.33h0a12.37,12.37,0,0,0-.17-1.72c-.43-2.5-1.73-4.74-2.79-7.05-.11-.23-.22-.47-.32-.7a.36.36,0,0,0,0-.11,93.86,93.86,0,0,1-4.53-14.84c-.06-.22-.11-.44-.17-.65-.31-1.23-.63-2.47-1-3.7-1.85-6.72-4.49-13.5-9.51-18.35s-13-7.31-19.32-4.22c-5.44,2.69-8.39,8.71-9.72,14.59s-1.43,12-3.16,17.8c-.12.42-.26.84-.41,1.26-.08.22-.15.41-.22.65a65.63,65.63,0,0,1-2.64,6.23l-.11.21c-3.14,6.65-6.79,13.17-6.91,19.84v0a35.05,35.05,0,0,0,.93,4.69,23.39,23.39,0,0,0,4,7.39c.35.44.7.89,1,1.32,1.73,2.12,3.6,4.18,5.24,6.36l0,.07a25.92,25.92,0,0,1,3.14,5.23,19.08,19.08,0,0,1,.08,14.74,29.11,29.11,0,0,1-1.6,3.15c-1,1.82-2.22,3.59-3.13,5.49-.31.64-.58,1.29-.82,1.94-2.06,5.29-2.5,11.15-4.18,16.6a31.64,31.64,0,0,1-6,11.22H667.45c.62-2.63,3.7-17.67,4.18-21,.29-2.06,3.7-9.45,9.21-15.87-.46.37-.91.74-1.34,1.11a45.54,45.54,0,0,0-8.94,10.29c.12-.37.24-.75.37-1.12.75-2.24,1.56-4.46,2.39-6.65,2.39-6.32,5-12.76,9.81-17.55,2.69-2.7,6-4.78,8.53-7.61,4.51-5,6.38-11.84,6.33-18.58,0-.7,0-1.39-.08-2.09-.48-7.39-3-14.47-5.75-21.35-1.47-3.7-3-7.58-3-11.5a14.89,14.89,0,0,1,.12-1.64c1.13-8.12,9.35-13,14.28-19.54,7.33-9.74,7.87-24.22,17.49-31.71,7.39-5.75,17.66-5.39,27-4.77,8.68.58,16.52,1.71,25.13,2.92s17.36,3.47,24.27,8.78c4.47,3.43,7.95,8,11,12.67,4.14,6.3,7.76,13.26,8.26,20.78,0,.53.06,1.07.06,1.6.08,8.79-3.73,17.3-4.24,26.13,0,.41,0,.82,0,1.23v.07c-.09,7.65,2.85,15.68,6.84,22.17A59.37,59.37,0,0,1,828.18,241.47Z" transform="translate(-133.38 -55)"/><path class="cls-21" d="M828.18,241.47c0,1.08,0,2.17-.1,3.25,0,.62-.09,1.23-.14,1.85s-.12,1.23-.19,1.83c-.66,6-1.9,11.91-2.75,17.91v1.39c.73,5.63,2.94,17.3,2.94,17.3H777.67c-.1-1-.16-2.05-.16-3.07a27.7,27.7,0,0,1,.15-3.28c.78-7.56,4.68-14.64,5.27-22.15,0-.55.07-1.1.07-1.64v-.39a28.91,28.91,0,0,0-1.24-7.84q-1.07-3.56-2.48-7c-1.43-3.57-3-7.12-4-10.68a27.64,27.64,0,0,1-1.19-7.28,18.33,18.33,0,0,1,.06-2c0-.38.08-.77.14-1.16.09-.61.21-1.21.36-1.81.83-3.24,2.6-6.27,4.29-9.28,1.89-3.35,3.7-6.67,4-10.19,0-.27,0-.54,0-.82h0a11.42,11.42,0,0,0-.17-2.26c-.43-2.49-1.73-4.74-2.79-7-.11-.24-.22-.47-.32-.71a92,92,0,0,1-4.58-15c-.36-1.45-.74-2.91-1.13-4.35-1.85-6.72-4.5-13.5-9.52-18.35s-13-7.26-19.32-4.16c-5.45,2.69-8.39,8.71-9.72,14.6s-1.44,12-3.17,17.8c-.19.63-.41,1.27-.62,1.9a69.25,69.25,0,0,1-2.74,6.45c-3.24,6.81-7,13.52-6.92,20.38v-.51s.52,3.16,1,4.68a23.39,23.39,0,0,0,4,7.39c.34.45.69.89,1.05,1.33,1.74,2.14,3.64,4.21,5.29,6.42a26.16,26.16,0,0,1,3.13,5.23,19.08,19.08,0,0,1,.08,14.74,26.54,26.54,0,0,1-1.59,3.15c-1.06,1.82-2.22,3.6-3.14,5.49-.3.64-.58,1.29-.82,2-2,5.29-2.49,11.14-4.17,16.6A32.39,32.39,0,0,1,720.47,284H667.33c0,.4,3.75-17.83,4.29-21.58.26-1.88,3.14-8.22,7.86-14.22.41-.55.88-1.1,1.35-1.65a46.2,46.2,0,0,0-9.92,10.82l-.36.58c.85-2.63,1.79-5.22,2.76-7.77,2.39-6.32,5.05-12.76,9.81-17.55,2.69-2.7,6-4.79,8.53-7.61,4.38-4.83,6.28-11.5,6.33-18.07,0-.88,0-1.75-.07-2.62-.49-7.39-3-14.47-5.75-21.36-1.4-3.54-2.88-7.22-3-11a14.21,14.21,0,0,1,.11-2.16c1.14-8.07,9.35-12.92,14.28-19.49,7.34-9.74,7.87-24.23,17.49-31.71,7.4-5.75,17.66-5.39,27-4.77,8.68.58,16.51,1.71,25.13,2.92s17.37,3.47,24.27,8.76c4.47,3.45,7.95,8,11,12.67,4.14,6.3,7.76,13.26,8.26,20.78.05.71.07,1.43.06,2.14-.07,8.59-3.75,17-4.24,25.59,0,.59-.05,1.17,0,1.75v.07c.05,7.49,2.94,15.3,6.84,21.63A59.39,59.39,0,0,1,828.18,241.47Z" transform="translate(-133.38 -55)"/><text class="cls-23" transform="translate(125.39 320.56)">Insc<tspan class="cls-24" x="81.24" y="0">r</tspan><tspan x="96.96" y="0">i</tspan><tspan class="cls-25" x="107.72" y="0">v</tspan><tspan class="cls-26" x="128.8" y="0">e</tspan><tspan x="152.76" y="0">z </tspan><tspan class="cls-25" x="183.68" y="0">v</tspan><tspan x="204.76" y="0">ous et d</tspan><tspan class="cls-27" x="364.79" y="0">e</tspan><tspan class="cls-25" x="388.55" y="0">v</tspan><tspan x="409.63" y="0">e</tspan><tspan class="cls-28" x="433.79" y="0">n</tspan><tspan class="cls-26" x="460.95" y="0">e</tspan><tspan x="484.91" y="0">z </tspan><tspan class="cls-28" x="515.83" y="0">m</tspan><tspan x="558.35" y="0">emb</tspan><tspan class="cls-29" x="652.07" y="0">r</tspan><tspan x="667.59" y="0">e</tspan></text><path class="cls-30" d="M458.31,155a3.31,3.31,0,0,0-4.74,0,3.41,3.41,0,0,0,0,4.74l24,24.45H398.34a3.05,3.05,0,0,0-3.31,3.16,4.49,4.49,0,0,0,3.31,4h79.25l-24,23.59a3.47,3.47,0,0,0,0,4.79,3.3,3.3,0,0,0,4.74,0l29.7-30a3.32,3.32,0,0,0,0-4.73Z" transform="translate(-133.38 -55)"/></svg>