<svg id="Calque_1" data-name="Calque 1" xmlns="http://www.w3.org/2000/svg" xmlns:xlink="http://www.w3.org/1999/xlink" viewBox="0 0 867.04 313.83"><defs><style>.cls-1{fill:url(#Dégradé_sans_nom_5);}.cls-2{fill:#fff;}.cls-3{fill:#f5f5f5;}.cls-4{fill:url(#Dégradé_sans_nom_2);}.cls-5{fill:url(#Dégradé_sans_nom_4);}.cls-6{fill:url(#Dégradé_sans_nom_4-2);}.cls-7{fill:#f6bb0c;}.cls-8{fill:url(#Dégradé_sans_nom_5-2);}.cls-9{fill:#bdbdbd;}.cls-10{fill:#e0e0e0;}.cls-11{fill:#f2f2f2;}.cls-12{fill:#3f3d56;}.cls-13{opacity:0.1;}.cls-13,.cls-19{isolation:isolate;}.cls-14{fill:#2f2e41;}.cls-15{fill:#e93959;}.cls-16{fill:#ffb9b9;}.cls-17{fill:#d0cde1;}.cls-18{fill:#a8a8a8;}.cls-19{opacity:0.2;}.cls-20{font-size:40px;font-family:Montserrat-Regular, Montserrat;}.cls-21{letter-spacing:-0.01em;}.cls-22{letter-spacing:0em;}.cls-23{letter-spacing:-0.01em;}.cls-24{letter-spacing:0em;}.cls-25{letter-spacing:-0.07em;}.cls-26{letter-spacing:0em;}.cls-27{letter-spacing:0.02em;}.cls-28{letter-spacing:-0.01em;}</style><linearGradient id="Dégradé_sans_nom_5" x1="300.08" y1="1595.21" x2="300.08" y2="1653.43" gradientTransform="matrix(1, 0, 0, -1, 399.04, 1660.5)" gradientUnits="userSpaceOnUse"><stop offset="0" stop-color="gray" stop-opacity="0.25"/><stop offset="0.54" stop-color="gray" stop-opacity="0.12"/><stop offset="1" stop-color="gray" stop-opacity="0.1"/></linearGradient><linearGradient id="Dégradé_sans_nom_2" x1="567.99" y1="1426.42" x2="567.99" y2="1469.86" gradientTransform="matrix(1, 0, 0, -1, 402.5, 1579)" gradientUnits="userSpaceOnUse"><stop offset="0" stop-color="#b3b3b3" stop-opacity="0.25"/><stop offset="0.54" stop-color="#b3b3b3" stop-opacity="0.1"/><stop offset="1" stop-color="#b3b3b3" stop-opacity="0.05"/></linearGradient><linearGradient id="Dégradé_sans_nom_4" x1="554.58" y1="1454.38" x2="554.58" y2="1456.47" gradientTransform="matrix(1, 0, 0, -1, 402.5, 1579)" gradientUnits="userSpaceOnUse"><stop offset="0" stop-opacity="0.12"/><stop offset="0.55" stop-opacity="0.09"/><stop offset="1" stop-opacity="0.02"/></linearGradient><linearGradient id="Dégradé_sans_nom_4-2" x1="564.18" y1="1456.78" x2="564.18" y2="1463.17" xlink:href="#Dégradé_sans_nom_4"/><linearGradient id="Dégradé_sans_nom_5-2" x1="297.65" y1="1454.5" x2="297.65" y2="1576.34" xlink:href="#Dégradé_sans_nom_5"/></defs><title>recherchepropose</title><rect class="cls-1" x="541.7" y="7.07" width="314.84" height="58.22"/><rect class="cls-2" x="543.32" y="8.68" width="310.53" height="53.37"/><rect class="cls-3" x="562.19" y="19.47" width="180.6" height="31.81"/><path class="cls-4" d="M978,114.28a16.73,16.73,0,1,0-2.74,25.47l12.09,12.58a.81.81,0,0,0,1.15,0h0l3-2.89a.8.8,0,0,0,0-1.14h0l-12.09-12.58A16.72,16.72,0,0,0,978,114.28Zm-3.94,20.22a12,12,0,1,1,.33-16.92,12,12,0,0,1-.33,16.92Z" transform="translate(-164.96 -92.5)"/><path class="cls-5" d="M957.08,122.53a1,1,0,0,0,0,2.09A1,1,0,0,0,957.08,122.53Z" transform="translate(-164.96 -92.5)"/><path class="cls-6" d="M966.46,115.83a10.06,10.06,0,0,0-8.67,4.48c-.57.9,1.05,1.69,1.62.8a8.26,8.26,0,0,1,7.19-3.64,9.14,9.14,0,0,1,7.47,4.33c.57,1,2.07.09,1.5-.85A11.14,11.14,0,0,0,966.46,115.83Z" transform="translate(-164.96 -92.5)"/><path class="cls-7" d="M978,112.42a16.73,16.73,0,1,0-2.74,25.48l12.09,12.58a.82.82,0,0,0,1.15,0h0l3-2.89a.81.81,0,0,0,0-1.15h0l-12.09-12.58A16.74,16.74,0,0,0,978,112.42Zm-3.94,20.23a12,12,0,1,1,.33-16.92,12,12,0,0,1-.33,16.92Z" transform="translate(-164.96 -92.5)"/><path class="cls-7" d="M957.08,120.69a1,1,0,0,0,0,2.09A1,1,0,0,0,957.08,120.69Z" transform="translate(-164.96 -92.5)"/><path class="cls-7" d="M966.46,114a10,10,0,0,0-8.67,4.47c-.57.9,1.05,1.69,1.62.8a8.31,8.31,0,0,1,7.19-3.64,9.16,9.16,0,0,1,7.47,4.33c.57,1,2.07.09,1.5-.84A11.09,11.09,0,0,0,966.46,114Z" transform="translate(-164.96 -92.5)"/><rect class="cls-8" x="539.54" y="84.16" width="314.3" height="121.84"/><rect class="cls-2" x="543.32" y="87.39" width="306.76" height="114.83"/><circle class="cls-7" cx="583.31" cy="144.62" r="25.81"/><rect class="cls-9" x="627.96" y="124.05" width="107.28" height="12.94"/><rect class="cls-10" x="627.96" y="150.47" width="107.28" height="12.94"/><rect class="cls-7" x="749.26" y="87.39" width="101.35" height="114.83"/><path class="cls-11" d="M468.36,218.87c0,30-17.86,40.53-39.89,40.53s-39.88-10.49-39.88-40.53,39.88-68.25,39.88-68.25S468.36,188.84,468.36,218.87Z" transform="translate(-164.96 -92.5)"/><polygon class="cls-12" points="262.26 162.44 262.26 137.17 279.47 106.07 262.26 133.22 262.26 121.92 274.43 99.42 262.75 118.93 262.75 118.93 262.75 98.6 275.64 80.68 263.24 95.4 263.24 58.12 262.06 107.47 262.16 105.44 249.41 85.91 261.96 109.34 260.77 132.05 260.74 131.45 246.03 110.9 260.69 133.58 260.54 136.42 260.52 136.46 260.53 136.69 257.51 194.44 261.78 194.44 262.23 164.68 275.91 142.06 262.26 162.44"/><path class="cls-11" d="M385.39,191.53c0,38.85-23.09,52.42-51.58,52.42s-51.59-13.57-51.59-52.42,51.59-88.27,51.59-88.27S385.39,152.68,385.39,191.53Z" transform="translate(-164.96 -92.5)"/><polygon class="cls-12" points="166.99 145.51 166.99 112.99 189.49 72.77 167.48 107.89 167.48 93.27 182.97 64.17 167.96 89.4 167.96 89.18 168.38 62.88 184.34 39.72 168.45 58.75 168.71 10.54 167.06 74.36 167.2 71.73 150.97 46.48 166.94 76.78 165.43 106.15 165.38 105.37 146.68 78.8 165.32 108.12 165.14 111.8 165.1 111.85 165.12 112.15 161.28 186.66 166.5 186.66 166.5 148.4 185.84 119.14 166.99 145.51"/><path class="cls-12" d="M465.17,292.32c0,2.92-8.5,5.65-23.18,7.95-26.6,4.17-73.51,6.94-126.93,6.94-82.9,0-150.1-6.67-150.1-14.89,0-1.14,1.29-2.25,3.73-3.32a65.12,65.12,0,0,1,12.49-3.43c11.34-2.21,28.09-4.1,48.53-5.51,23.72-1.62,52.41-2.59,83.36-2.63h2c3.73,0,7.42,0,11.09,0l5.14,0c18.22.2,35.47.72,51.15,1.5l2.09.1.71,0h.19c3.08.16,6.1.34,9,.52l2.87.18c9.22.6,17.73,1.3,25.38,2.08l3.85.41c9.68,1.06,17.84,2.27,24.12,3.58C460,287.86,465.17,290,465.17,292.32Z" transform="translate(-164.96 -92.5)"/><ellipse class="cls-13" cx="217.78" cy="198.89" rx="32.71" ry="7.58"/><path class="cls-13" d="M465.17,292.32c0,2.92-8.5,5.65-23.18,7.95-11.1-1.21-18.79-3.83-18.79-6.86,0-3.77,11.91-6.9,27.49-7.48C460,287.86,465.17,290,465.17,292.32Z" transform="translate(-164.96 -92.5)"/><path class="cls-13" d="M327.69,288.86c0,5-35.59,9-79.5,9-43.5,0-78.84-4-79.5-8.9,8.44-3.68,30.67-6.85,61-8.94,5.93-.16,12.12-.24,18.48-.24C292.1,279.82,327.69,283.87,327.69,288.86Z" transform="translate(-164.96 -92.5)"/><rect class="cls-12" x="16.3" width="131.73" height="197.35"/><rect class="cls-14" x="24.08" y="68.54" width="123.95" height="60.76"/><rect class="cls-12" x="74.15" y="69.51" width="122.49" height="57.84"/><rect class="cls-15" x="81.93" y="78.26" width="27.22" height="9.72"/><rect class="cls-15" x="88.73" y="95.76" width="100.62" height="2.43"/><rect class="cls-15" x="88.73" y="102.56" width="100.62" height="2.43"/><rect class="cls-15" x="88.73" y="109.37" width="100.62" height="2.43"/><rect class="cls-15" x="88.73" y="116.66" width="100.62" height="2.43"/><rect class="cls-11" x="25.05" y="22.36" width="27.22" height="9.72"/><rect class="cls-11" x="31.86" y="39.37" width="100.62" height="2.43"/><rect class="cls-11" x="31.86" y="46.66" width="100.62" height="2.43"/><rect class="cls-11" x="31.86" y="53.47" width="100.62" height="2.43"/><rect class="cls-11" x="31.86" y="60.27" width="100.62" height="2.43"/><rect class="cls-11" x="26.03" y="135.13" width="27.22" height="9.72"/><rect class="cls-11" x="32.83" y="152.63" width="100.62" height="2.43"/><rect class="cls-11" x="32.83" y="159.44" width="100.62" height="2.43"/><rect class="cls-11" x="32.83" y="166.24" width="100.62" height="2.43"/><rect class="cls-11" x="32.83" y="173.53" width="100.62" height="2.43"/><path class="cls-16" d="M374.09,133s5.47,7,4.78,12,11.28-6.84,11.28-6.84-4.1-8.54-1.88-12.64S374.09,133,374.09,133Z" transform="translate(-164.96 -92.5)"/><path class="cls-14" d="M393.22,274.79s7.18,7.86,6,9.57-22.21,8.2-24.6,7.86-3.59-2.05-2.73-2.56,6.32-3.42,6.32-3.42l4.61-5.3s3.42-1.88,3.42-2.9S393.22,274.79,393.22,274.79Z" transform="translate(-164.96 -92.5)"/><path class="cls-16" d="M381.09,283.5s-2.73,4.45-3.24,4.62,2.56,6.32,2.56,6.32l7.18-2.22,3.93-3.25-.86-4.44Z" transform="translate(-164.96 -92.5)"/><path class="cls-17" d="M373.75,198.76,370.33,214s-11.79,26.48-3.59,31.09l17.94,34.34,9.57-4.27-16.06-35.19,7.35-40.5Z" transform="translate(-164.96 -92.5)"/><path class="cls-13" d="M373.75,198.76,370.33,214s-11.79,26.48-3.59,31.09l17.94,34.34,9.57-4.27-16.06-35.19,7.35-40.5Z" transform="translate(-164.96 -92.5)"/><path class="cls-17" d="M374.94,201.38h-1.73a96,96,0,0,0,.88,15.72c1.19,8.72,4.27,28.71,4.27,28.71s-.34,3.76.68,4.95,1.2-.34,1.37,2.39,1.79,21.74,1.79,21.74,1.11,3.89-.08,4.75-3.59,5.46-1.88,6.15,13.5,1.53,14,1,0-32.63,0-32.63-.34-6.49-.68-6.84-1.88-5-1.37-6,.17-4.1.17-4.61-1.54,0-.17-2.22,1.54-20,1.54-20,7.34-11.28,5.12-14.18Z" transform="translate(-164.96 -92.5)"/><circle class="cls-16" cx="213.91" cy="31.76" r="11.28"/><path class="cls-14" d="M390.09,136.22s-6.84,1.71-9.57,5.81l-2.39.52v2.39s-4.45,14.18-3.42,20.33,0,18.11-1.71,21.36-2.22,3.93-1.37,5.29,2.05,6,1.2,8,0,4.11,7.86,4.62,19,.51,19-2.22-.69-10.43,0-12.48a9.75,9.75,0,0,0,.68-5.29c-.34-1.88.68-22.9.68-22.9S401.19,140.67,390.09,136.22Z" transform="translate(-164.96 -92.5)"/><path class="cls-16" d="M374.09,189l-9.4,14s-9.91,9.06-6.32,13.16,13-12,13-12l10.26-11.62Z" transform="translate(-164.96 -92.5)"/><path class="cls-14" d="M380.07,289s-.34-2.22-1.54-2.22-9.23,5.47-9.23,5.47-10.59,1.19-6.49,3.42,29.22,2.56,29.39,1.7.51-9.28-.68-9.25S380.75,290,380.75,290Z" transform="translate(-164.96 -92.5)"/><path class="cls-14" d="M379.67,118.44a2.74,2.74,0,0,1-1.29.29c-.46,0-1,0-1.25-.39a1.79,1.79,0,0,1-.16-.82,2.72,2.72,0,0,0-3-2.33l-.12,0a3.81,3.81,0,0,0,.51,1.61,3.47,3.47,0,0,1-3-.4l-.17,2.3a1.88,1.88,0,0,1-1.93-.07,1.07,1.07,0,0,1,0-1.71c-.74-.16-1.66-.49-1.71-1.25s.68-1.2.82-1.89-.19-1.16,0-1.68c.29-.69,1.32-.87,1.52-1.59a5.35,5.35,0,0,0,0-1.13c.1-1,1.34-1.4,2.34-1.35s2.07.32,2.92-.2a9.78,9.78,0,0,0,1.05-1,3.12,3.12,0,0,1,3.63-.31,6.46,6.46,0,0,0,1.2.74c.91.31,1.86-.28,2.81-.41a2.33,2.33,0,0,1,2,.57,1.59,1.59,0,0,1,.3,1.93,3.15,3.15,0,0,1,1.67,0,1.09,1.09,0,0,1,.69,1.36,1.72,1.72,0,0,0-.21.43c-.05.3.23.55.52.64s.61.07.89.17c1.17.43.89,2.3,1.81,3.14a6.85,6.85,0,0,0,1,.61,2.45,2.45,0,0,1,.86,2.94,2.62,2.62,0,0,0-.46,1.25c.05.63.73,1,1.2,1.39a2.79,2.79,0,0,1,.65,3.19c-.44.91-1.38,1.59-1.47,2.59,0,.44.09.87.08,1.3a2.69,2.69,0,0,1-1.15,2,6,6,0,0,1-2.22.93c-.37.08-.82.22-.91.6s.39.84.34,1.29a.76.76,0,0,1-.31.49,1.53,1.53,0,0,1-2.12-.67,4.44,4.44,0,0,1-.3-2.48l.23-3.07c.08-1,.07-2.09-.71-2.65s-2.11-.11-3.09-.53a2.84,2.84,0,0,1-1.33-2.81,16.55,16.55,0,0,0,.17-3.29c-.22-1.35-1.42-2.26-2.63-1.38C380.33,116.72,380.51,117.94,379.67,118.44Z" transform="translate(-164.96 -92.5)"/><path class="cls-13" d="M389.12,144.43s-6.83,2.73-6.83,8.54.34,13.5-.86,16.06-2.22,3.42-1.53,5.47,1.88,1.71,0,3.24-1.71-1-1.88,1.54,1.71,2.91,0,4.1-6.15,6-4.27,7.52,6.83,6.49,8.54,4.61,2.56-6.66,4.95-6.32,2.74.51,2.4-1.2-1.88-1.7.17-2.22,2.9.69,2.22-1-1.2-2.39.17-4.27,2.05-2.4,1.88-4.27,3.76-18.8,3.76-18.8S399,143.06,389.12,144.43Z" transform="translate(-164.96 -92.5)"/><path class="cls-13" d="M387.24,144.08s-6.83,2.74-6.83,8.55.34,13.49-.85,16.06-2.23,3.41-1.54,5.47,1.88,1.7,0,3.24-1.71-1-1.88,1.54,1.71,2.9,0,4.1-6.15,6-4.27,7.52,6.83,6.49,8.54,4.61,2.56-6.66,4.95-6.32,2.74.51,2.4-1.2-1.88-1.71.17-2.22,2.9.69,2.22-1-1.2-2.4.17-4.27,2.05-2.4,1.88-4.28S396,157.07,396,157.07,397.15,142.72,387.24,144.08Z" transform="translate(-164.96 -92.5)"/><path class="cls-14" d="M388.1,143.57s-6.84,2.74-6.84,8.54.35,13.5-.85,16.07-2.22,3.41-1.54,5.46,1.88,1.71,0,3.25-1.71-1-1.88,1.54,1.71,2.9,0,4.1-6.15,6-4.27,7.51,6.84,6.5,8.54,4.62,2.57-6.67,5-6.32,2.73.51,2.39-1.2-1.88-1.71.17-2.22,2.91.68,2.22-1-1.19-2.39.17-4.27,2.05-2.39,1.88-4.27,3.76-18.79,3.76-18.79S398,142.2,388.1,143.57Z" transform="translate(-164.96 -92.5)"/><path class="cls-14" d="M423.82,261.61c0,14.95,9.37,27.05,21,27.05" transform="translate(-164.96 -92.5)"/><path class="cls-15" d="M444.78,288.66c0-15.12,10.47-27.35,23.4-27.35" transform="translate(-164.96 -92.5)"/><path class="cls-15" d="M431.41,263c0,14.2,6,25.69,13.37,25.69" transform="translate(-164.96 -92.5)"/><path class="cls-14" d="M444.78,288.66c0-19.32,12.1-35,27.05-35" transform="translate(-164.96 -92.5)"/><path class="cls-18" d="M440.37,288.85s3-.09,3.87-.73,4.58-1.4,4.8-.38,4.47,5.09,1.11,5.12-7.8-.52-8.69-1.07S440.37,288.85,440.37,288.85Z" transform="translate(-164.96 -92.5)"/><path class="cls-19" d="M450.21,292.5c-3.36,0-7.8-.52-8.69-1.06-.69-.42-1-1.91-1-2.59h-.1s.19,2.4,1.09,2.94,5.33,1.1,8.69,1.07c1,0,1.3-.35,1.29-.86C451.3,292.31,450.93,292.5,450.21,292.5Z" transform="translate(-164.96 -92.5)"/><text class="cls-20" transform="translate(32.54 288.06)">Re<tspan class="cls-21" x="53.08" y="0">c</tspan><tspan class="cls-22" x="75.28" y="0">h</tspan><tspan x="102.44" y="0">e</tspan><tspan class="cls-23" x="126.6" y="0">r</tspan><tspan class="cls-21" x="142.12" y="0">c</tspan><tspan class="cls-22" x="164.32" y="0">h</tspan><tspan class="cls-24" x="191.48" y="0">e</tspan><tspan x="215.44" y="0">z et</tspan><tspan class="cls-25" x="286.76" y="0">/</tspan><tspan x="297.44" y="0">ou p</tspan><tspan class="cls-23" x="387.04" y="0">r</tspan><tspan x="402.56" y="0">opos</tspan><tspan class="cls-26" x="499.4" y="0">e</tspan><tspan x="523.36" y="0">z des se</tspan><tspan class="cls-27" x="679.31" y="0">r</tspan><tspan x="695.95" y="0">vi</tspan><tspan class="cls-28" x="728.39" y="0">c</tspan><tspan x="750.55" y="0">es</tspan></text><path d="M650.51,119.47q-60,68.31-120.54,136.2c-1.28,1.44.83,3.57,2.12,2.13q60.51-67.89,120.55-136.21c1.27-1.44-.85-3.57-2.13-2.12Z" transform="translate(-164.96 -92.5)"/></svg>