<svg id="Calque_1" data-name="Calque 1" xmlns="http://www.w3.org/2000/svg" xmlns:xlink="http://www.w3.org/1999/xlink" viewBox="0 0 1069.7 407.83"><defs><style>.cls-1,.cls-5{fill:#a3418f;}.cls-1,.cls-11,.cls-3,.cls-4{opacity:0.1;}.cls-1,.cls-11,.cls-21,.cls-3{isolation:isolate;}.cls-2{fill:#3f3d56;}.cls-6{fill:#f2f2f2;}.cls-7{fill:#fbbebe;}.cls-8{fill:#ff6f61;}.cls-9{fill:#3a3768;}.cls-10{fill:#e6e8ec;}.cls-11,.cls-20{fill:#f1712a;}.cls-12{fill:url(#Dégradé_sans_nom_6);}.cls-13{fill:url(#Dégradé_sans_nom_6-2);}.cls-14{fill:url(#Dégradé_sans_nom_6-3);}.cls-15{fill:url(#Dégradé_sans_nom_6-4);}.cls-16{fill:url(#Dégradé_sans_nom_6-5);}.cls-17{fill:url(#Dégradé_sans_nom_6-6);}.cls-18{fill:#f7d6c8;}.cls-19{fill:#efb7b9;}.cls-21{opacity:0.05;}.cls-22{fill:#c3705a;}.cls-23{fill:#ecb4b6;}.cls-24{fill:#463a3e;}.cls-25{fill:#c17174;}.cls-26{fill:url(#Dégradé_sans_nom_6-7);}.cls-27{fill:url(#Dégradé_sans_nom_6-8);}.cls-28{fill:url(#Dégradé_sans_nom_6-9);}.cls-29{fill:url(#Dégradé_sans_nom_6-10);}.cls-30{fill:url(#Dégradé_sans_nom_6-11);}.cls-31{fill:url(#Dégradé_sans_nom_6-12);}.cls-32{fill:url(#Dégradé_sans_nom_6-13);}.cls-33{fill:url(#Dégradé_sans_nom_6-14);}.cls-34{fill:url(#Dégradé_sans_nom_6-15);}.cls-35{fill:url(#Dégradé_sans_nom_6-16);}.cls-36{fill:url(#Dégradé_sans_nom_6-17);}.cls-37{fill:url(#Dégradé_sans_nom_6-18);}.cls-38{fill:url(#Dégradé_sans_nom_6-19);}.cls-39{fill:url(#Dégradé_sans_nom_6-20);}.cls-40{fill:url(#Dégradé_sans_nom_6-21);}.cls-41{fill:url(#Dégradé_sans_nom_6-22);}.cls-42{fill:url(#Dégradé_sans_nom_6-23);}.cls-43{fill:url(#Dégradé_sans_nom_6-24);}.cls-44{fill:#fff;}.cls-45{font-size:40px;font-family:Montserrat-Regular, Montserrat;}.cls-46{letter-spacing:-0.02em;}.cls-47{letter-spacing:-0.01em;}.cls-48{letter-spacing:0em;}.cls-49{letter-spacing:0em;}.cls-50{letter-spacing:0em;}.cls-51{letter-spacing:0em;}.cls-52{letter-spacing:0.02em;}.cls-53{letter-spacing:-0.01em;}.cls-54{letter-spacing:-0.02em;}.cls-55{letter-spacing:-0.01em;}.cls-56{letter-spacing:-0.01em;}.cls-57{letter-spacing:0em;}.cls-58{letter-spacing:-0.02em;}</style><linearGradient id="Dégradé_sans_nom_6" x1="525.09" y1="873.27" x2="525.09" y2="926.44" gradientTransform="matrix(1, 0, 0, -1, 519.51, 956.77)" gradientUnits="userSpaceOnUse"><stop offset="0" stop-color="gray" stop-opacity="0.25"/><stop offset="0.54" stop-color="gray" stop-opacity="0.12"/><stop offset="1" stop-color="gray" stop-opacity="0.1"/></linearGradient><linearGradient id="Dégradé_sans_nom_6-2" x1="482.99" y1="896.68" x2="482.99" y2="896.76" xlink:href="#Dégradé_sans_nom_6"/><linearGradient id="Dégradé_sans_nom_6-3" x1="482.99" y1="896.76" x2="482.99" y2="896.84" xlink:href="#Dégradé_sans_nom_6"/><linearGradient id="Dégradé_sans_nom_6-4" x1="482.63" y1="896.87" x2="482.63" y2="896.87" xlink:href="#Dégradé_sans_nom_6"/><linearGradient id="Dégradé_sans_nom_6-5" x1="482.63" y1="896.84" x2="482.63" y2="896.84" xlink:href="#Dégradé_sans_nom_6"/><linearGradient id="Dégradé_sans_nom_6-6" x1="482.63" y1="896.85" x2="482.63" y2="896.85" xlink:href="#Dégradé_sans_nom_6"/><linearGradient id="Dégradé_sans_nom_6-7" x1="-364.91" y1="677.27" x2="-364.91" y2="730.44" xlink:href="#Dégradé_sans_nom_6"/><linearGradient id="Dégradé_sans_nom_6-8" x1="-407.01" y1="700.68" x2="-407.01" y2="700.76" xlink:href="#Dégradé_sans_nom_6"/><linearGradient id="Dégradé_sans_nom_6-9" x1="-407.01" y1="700.76" x2="-407.01" y2="700.84" xlink:href="#Dégradé_sans_nom_6"/><linearGradient id="Dégradé_sans_nom_6-10" x1="-407.37" y1="700.87" x2="-407.37" y2="700.87" xlink:href="#Dégradé_sans_nom_6"/><linearGradient id="Dégradé_sans_nom_6-11" x1="-407.37" y1="700.84" x2="-407.37" y2="700.84" xlink:href="#Dégradé_sans_nom_6"/><linearGradient id="Dégradé_sans_nom_6-12" x1="-407.37" y1="700.85" x2="-407.37" y2="700.85" xlink:href="#Dégradé_sans_nom_6"/><linearGradient id="Dégradé_sans_nom_6-13" x1="-202.91" y1="867.27" x2="-202.91" y2="920.44" xlink:href="#Dégradé_sans_nom_6"/><linearGradient id="Dégradé_sans_nom_6-14" x1="-245.01" y1="890.68" x2="-245.01" y2="890.76" xlink:href="#Dégradé_sans_nom_6"/><linearGradient id="Dégradé_sans_nom_6-15" x1="-245.01" y1="890.76" x2="-245.01" y2="890.84" xlink:href="#Dégradé_sans_nom_6"/><linearGradient id="Dégradé_sans_nom_6-16" x1="-245.37" y1="890.87" x2="-245.37" y2="890.87" xlink:href="#Dégradé_sans_nom_6"/><linearGradient id="Dégradé_sans_nom_6-17" x1="-245.37" y1="890.84" x2="-245.37" y2="890.84" xlink:href="#Dégradé_sans_nom_6"/><linearGradient id="Dégradé_sans_nom_6-18" x1="-245.37" y1="890.85" x2="-245.37" y2="890.85" xlink:href="#Dégradé_sans_nom_6"/><linearGradient id="Dégradé_sans_nom_6-19" x1="452.09" y1="654.27" x2="452.09" y2="707.44" xlink:href="#Dégradé_sans_nom_6"/><linearGradient id="Dégradé_sans_nom_6-20" x1="409.99" y1="677.68" x2="409.99" y2="677.76" xlink:href="#Dégradé_sans_nom_6"/><linearGradient id="Dégradé_sans_nom_6-21" x1="409.99" y1="677.76" x2="409.99" y2="677.84" xlink:href="#Dégradé_sans_nom_6"/><linearGradient id="Dégradé_sans_nom_6-22" x1="409.63" y1="677.87" x2="409.63" y2="677.87" xlink:href="#Dégradé_sans_nom_6"/><linearGradient id="Dégradé_sans_nom_6-23" x1="409.63" y1="677.84" x2="409.63" y2="677.84" xlink:href="#Dégradé_sans_nom_6"/><linearGradient id="Dégradé_sans_nom_6-24" x1="409.63" y1="677.85" x2="409.63" y2="677.85" xlink:href="#Dégradé_sans_nom_6"/></defs><title>communautésautour</title><path class="cls-1" d="M569,110.71a96.07,96.07,0,0,0-115.44-13C490.57,111,531.39,111.44,569,110.71Z" transform="translate(-89.8 -22.5)"/><path class="cls-1" d="M783.45,325.81l-40.41-70a1.28,1.28,0,0,0-1.75-.48,1.23,1.23,0,0,0-.48.48l-40.4,70a1.28,1.28,0,0,0,.44,1.76c.2.12.43.19.67.93h12.05c.72-.74,1.93.54,1.93.54v15.14a1.29,1.29,0,0,0,1.26,1.32h15.45a1.29,1.29,0,0,0,1.29-1.29v-7.42a1.29,1.29,0,0,1,1.29-1.29h14.44a1.29,1.29,0,0,1,1.27,1.31v7.4a1.29,1.29,0,0,0,1.29,1.29h15.42a1.29,1.29,0,0,0,1.29-1.29V329a6.28,6.28,0,0,1,1.78-1.53h12.05a1,1,0,0,0,1.29-1.05A1.28,1.28,0,0,0,783.45,325.81Zm-56.35,7.74a4,4,0,0,0-.91.95h-5.66c-.71-.56-1.29-1.14-1.29-1.85a1.11,1.11,0,0,1,1.29-1.15h5.67a1.11,1.11,0,0,1,1.29,1.15,1.25,1.25,0,0,1-.38.91Zm37.12,0a4,4,0,0,0-.91.95h-5.66c-.71-.56-1.29-1.14-1.29-1.85a1.11,1.11,0,0,1,1.29-1.15h5.68a1.11,1.11,0,0,1,1.29,1.15,1.3,1.3,0,0,1-.38.91Z" transform="translate(-89.8 -22.5)"/><path class="cls-1" d="M533.72,326.42l-40.41-70a1.28,1.28,0,0,0-1.76-.47,1.32,1.32,0,0,0-.47.47l-34.9,60.45c4.36,5.49,14.61,15.61,14.61,15.61h5.68s1.29,0,1.29.76-1.29,1.24-1.29,1.24h-2.4a105.93,105.93,0,0,0,9.43,5.86v-3c-.08-.71,1.21-1.88,1.21-1.88h15.53a1.29,1.29,0,0,1,1.26,1.32v7.36a1.38,1.38,0,0,0,.12.56,1.27,1.27,0,0,0,1.15.76h15.47a1.23,1.23,0,0,0,1-.53,1.34,1.34,0,0,0,.26-.79V329.65s.33-1.29,1-1.15h12.05a1.54,1.54,0,0,0,1.3-1.42A1.38,1.38,0,0,0,533.72,326.42ZM507,332.34a5.37,5.37,0,0,0,.91-.84h5.68a2.27,2.27,0,0,1,1.28,1.74,1.23,1.23,0,0,1-1.28,1.26h-5.68a1.25,1.25,0,0,1-1.29-1.26,1.3,1.3,0,0,1,.38-.91ZM480.5,305.21v-9.42a1.29,1.29,0,0,1,1.29-1.29H503.2a1.27,1.27,0,0,1,1.3,1.25v9.5a1.27,1.27,0,0,1-1.3,1.25H481.79A1.29,1.29,0,0,1,480.5,305.21Z" transform="translate(-89.8 -22.5)"/><path class="cls-1" d="M694,200.5H643.5V190.06A2.56,2.56,0,0,0,641,187.5H626.5V176.13a1.63,1.63,0,0,0-1.63-1.63H606.11a1.61,1.61,0,0,0-1.61,1.61V187.5H587.06a2.56,2.56,0,0,0-2.56,2.56V200.5H537a.52.52,0,0,0-.52.53V345a.52.52,0,0,0,.52.53h31a.53.53,0,0,0,.53-.53V326a.51.51,0,0,1,.51-.52h13a.51.51,0,0,1,.51.52v19a.51.51,0,0,0,.51.52h63a.51.51,0,0,0,.51-.52V326a.51.51,0,0,1,.51-.52h13a.53.53,0,0,1,.53.53v19a.51.51,0,0,0,.51.52h33a.53.53,0,0,0,.53-.53V201A.53.53,0,0,0,694,200.5ZM563.5,318a.54.54,0,0,1-.53.54H543a.54.54,0,0,1-.54-.54h0V311a.53.53,0,0,1,.53-.53H563a.54.54,0,0,1,.53.54Zm0-17a.54.54,0,0,1-.53.54H543a.54.54,0,0,1-.54-.54h0V294a.54.54,0,0,1,.53-.54H563a.54.54,0,0,1,.53.54h0Zm0-17a.54.54,0,0,1-.53.54H543a.53.53,0,0,1-.53-.53V277a.53.53,0,0,1,.53-.53H563a.54.54,0,0,1,.53.54Zm0-17a.54.54,0,0,1-.53.54H543a.54.54,0,0,1-.54-.54h0V260a.54.54,0,0,1,.53-.54H563a.54.54,0,0,1,.53.54h0Zm0-18a.54.54,0,0,1-.53.54H543a.53.53,0,0,1-.53-.53V242a.54.54,0,0,1,.53-.54H563a.54.54,0,0,1,.53.54h0Zm0-17a.52.52,0,0,1-.52.52H543a.54.54,0,0,1-.54-.54h0V225a.54.54,0,0,1,.54-.54H563a.54.54,0,0,1,.53.54Zm0-17a.54.54,0,0,1-.53.54H543a.54.54,0,0,1-.54-.54h0V208a.54.54,0,0,1,.53-.54H563a.54.54,0,0,1,.53.54h0Zm46,103a.54.54,0,0,1-.53.54H589a.54.54,0,0,1-.54-.54v-6.91a.55.55,0,0,1,.54-.55H609a.53.53,0,0,1,.53.53Zm0-17a.54.54,0,0,1-.53.54H589a.53.53,0,0,1-.53-.53V294a.53.53,0,0,1,.53-.53H609a.54.54,0,0,1,.54.54h0Zm0-17a.53.53,0,0,1-.53.53H589a.54.54,0,0,1-.54-.54V277a.54.54,0,0,1,.54-.54H609a.53.53,0,0,1,.53.53Zm0-17a.54.54,0,0,1-.53.55H589a.53.53,0,0,1-.53-.53V260a.53.53,0,0,1,.53-.53H609a.54.54,0,0,1,.54.54h0Zm0-18a.53.53,0,0,1-.53.53H589a.54.54,0,0,1-.54-.54V242a.54.54,0,0,1,.54-.54H609a.54.54,0,0,1,.54.54h0Zm0-17a.54.54,0,0,1-.53.54H589a.54.54,0,0,1-.54-.54V225a.54.54,0,0,1,.54-.54H609a.53.53,0,0,1,.53.53Zm0-17a.54.54,0,0,1-.53.55H589a.53.53,0,0,1-.53-.53V208a.53.53,0,0,1,.53-.53H609a.54.54,0,0,1,.54.54h0Zm32,103a.54.54,0,0,1-.53.54H621a.54.54,0,0,1-.54-.54v-6.91a.55.55,0,0,1,.54-.55H641a.53.53,0,0,1,.53.53Zm0-17a.54.54,0,0,1-.53.54H621a.53.53,0,0,1-.53-.53V294a.53.53,0,0,1,.53-.53H641a.54.54,0,0,1,.54.54h0Zm0-17a.53.53,0,0,1-.53.53H621a.54.54,0,0,1-.54-.54V277a.54.54,0,0,1,.54-.54H641a.53.53,0,0,1,.53.53Zm0-17a.54.54,0,0,1-.53.55H621a.53.53,0,0,1-.53-.53V260a.53.53,0,0,1,.53-.53H641a.54.54,0,0,1,.54.54h0Zm0-18a.53.53,0,0,1-.53.53H621a.54.54,0,0,1-.54-.54V242a.54.54,0,0,1,.54-.54H641a.54.54,0,0,1,.54.54h0Zm0-17a.54.54,0,0,1-.53.54H621a.54.54,0,0,1-.54-.54V225a.54.54,0,0,1,.54-.54H641a.53.53,0,0,1,.53.53Zm0-17a.54.54,0,0,1-.53.55H621a.53.53,0,0,1-.53-.53V208a.53.53,0,0,1,.53-.53H641a.54.54,0,0,1,.54.54h0Zm46,103a.55.55,0,0,1-.54.54H667a.54.54,0,0,1-.54-.54h0V311a.53.53,0,0,1,.53-.53H687a.55.55,0,0,1,.54.55Zm0-17a.53.53,0,0,1-.53.53H667a.54.54,0,0,1-.54-.54h0V294a.54.54,0,0,1,.53-.54H687a.53.53,0,0,1,.53.53Zm0-17a.54.54,0,0,1-.54.54H667a.53.53,0,0,1-.53-.53V277a.53.53,0,0,1,.53-.53H687a.54.54,0,0,1,.54.54Zm0-17a.53.53,0,0,1-.53.53H667a.54.54,0,0,1-.54-.54h0v-6.9a.54.54,0,0,1,.53-.55H687a.53.53,0,0,1,.53.53Zm0-18a.54.54,0,0,1-.54.54H667a.53.53,0,0,1-.53-.53V242a.54.54,0,0,1,.53-.54H687a.54.54,0,0,1,.54.54Zm0-17a.54.54,0,0,1-.53.55H667a.54.54,0,0,1-.54-.54h0V225a.53.53,0,0,1,.53-.53H687a.54.54,0,0,1,.54.54Zm0-17a.53.53,0,0,1-.53.53H667a.54.54,0,0,1-.54-.54h0v-6.9a.54.54,0,0,1,.53-.55H687a.53.53,0,0,1,.53.53Z" transform="translate(-89.8 -22.5)"/><path class="cls-1" d="M551,161.37a11.24,11.24,0,0,0-6.53.71,9.62,9.62,0,0,1-7.88,0,11,11,0,0,0-9.23.18,5.85,5.85,0,0,1-2.65.67c-3.74,0-6.86-3.77-7.5-8.74a7.2,7.2,0,0,0,1.87-2c2.19-3.53,5.59-5.8,9.4-5.8s7.17,2.24,9.35,5.74a7.22,7.22,0,0,0,6.21,3.41h.1C547.18,155.5,549.76,157.89,551,161.37Z" transform="translate(-89.8 -22.5)"/><path class="cls-1" d="M562.41,146.64l-6,3.84L560,143.8a6,6,0,0,0-3.66-1.3h-.1a7.44,7.44,0,0,1-1.25-.09l-2,1.3.88-1.6a7.32,7.32,0,0,1-3.59-2.73l-3.66,2.34,2.31-4.22a10.73,10.73,0,0,0-8.22-4.15c-3.81,0-7.21,2.26-9.4,5.8a7.06,7.06,0,0,1-6.24,3.35h-.2c-4.21,0-7.63,4.77-7.63,10.66s3.42,10.66,7.63,10.66a5.68,5.68,0,0,0,2.65-.66,11,11,0,0,1,9.23-.18,9.65,9.65,0,0,0,7.84,0,11,11,0,0,1,9.15.17,5.6,5.6,0,0,0,2.63.65c4.21,0,7.62-4.77,7.62-10.66A13.63,13.63,0,0,0,562.41,146.64Z" transform="translate(-89.8 -22.5)"/><path class="cls-1" d="M730.61,232.6a8,8,0,0,0-4.57.49,6.76,6.76,0,0,1-5.5,0,7.72,7.72,0,0,0-6.46.13,4,4,0,0,1-1.85.46c-2.62,0-4.8-2.63-5.25-6.11a5,5,0,0,0,1.31-1.41,7.36,7.36,0,0,1,13.13,0,5,5,0,0,0,4.35,2.39h.07C727.91,228.49,729.71,230.16,730.61,232.6Z" transform="translate(-89.8 -22.5)"/><path class="cls-1" d="M738.56,222l-4.23,2.69L736.9,220a29.08,29.08,0,0,0-2.56-1.48h-.07c-.29.58-.58.55-.87.51l-1.44.9.62-1.11a5.11,5.11,0,0,1-2.51-1.9l-2.58,1.62,1.62-3a7.45,7.45,0,0,0-5.75-2.91,7.87,7.87,0,0,0-6.58,4.06,6.65,6.65,0,0,1-4.35,2.78h-.13c-2.94-.44-5.34,2.9-5.34,7s2.4,7.46,5.34,7.46a4,4,0,0,0,1.86-.46,7.68,7.68,0,0,1,6.46-.13,6.73,6.73,0,0,0,5.49,0,7.69,7.69,0,0,1,6.4.13,4.07,4.07,0,0,0,1.84.45c2.95,0,5.33-3.34,5.33-7.46A9.48,9.48,0,0,0,738.56,222Z" transform="translate(-89.8 -22.5)"/><path class="cls-1" d="M499.46,207.61a7.91,7.91,0,0,1,4.58.49,6.73,6.73,0,0,0,5.49,0,7.66,7.66,0,0,1,6.45.13,4,4,0,0,0,1.86.46c2.62,0,4.8-2.63,5.25-6.11a5.18,5.18,0,0,1-1.31-1.41,7.36,7.36,0,0,0-13.14-.07,5,5,0,0,1-4.35,2.4h-.07C502.15,203.5,500.34,205.17,499.46,207.61Z" transform="translate(-89.8 -22.5)"/><path class="cls-1" d="M491.49,197l4.23,2.68L493.14,195c.73-.58,1.63-.9,2.56-1.54h.07c.3.63.59.61.88.56l1.43.91-.61-1.11A5.16,5.16,0,0,0,500,192l2.57,1.63-1.63-3a7.55,7.55,0,0,1,5.76-2.91,7.85,7.85,0,0,1,6.58,4.07,6.35,6.35,0,0,0,4.35,2.71h.14c3-.38,5.34,3,5.34,7.08s-2.39,7.47-5.34,7.47a4.17,4.17,0,0,1-1.86-.47,7.66,7.66,0,0,0-6.45-.12,6.81,6.81,0,0,1-5.49,0,7.71,7.71,0,0,0-6.41.12,3.94,3.94,0,0,1-1.84.45c-2.94,0-5.33-3.33-5.33-7.46A9.44,9.44,0,0,1,491.49,197Z" transform="translate(-89.8 -22.5)"/><path class="cls-2" d="M491.7,346.73c5.27,3.35,12.87,0,18.18,3.26,1.37.85,2.48,2.1,3.89,2.87a12.65,12.65,0,0,0,5.65,1.17c16.21.63,32.69-3.9,48.5-.24,4.42,1,8.75,2.68,13.28,2.92,7.82.42,15.32-3.39,23.15-3.6,11.89-.32,23.56,7.63,35,4.49,3.78-1,7.23-3.23,11.13-3.6,4.33-.39,8.5,1.5,12.71,2.6,14.95,3.9,30.52-2.41,46-2.89,10.08-.3,20.06,1.89,30.13,2.4a179.17,179.17,0,0,0,21.48-.64c2.73-.19,5.59-.43,7.87-1.92s3.68-4.71,2.27-7.05Z" transform="translate(-89.8 -22.5)"/><path class="cls-3" d="M491.7,346.73c5.27,3.35,12.87,0,18.18,3.26,1.37.85,2.48,2.1,3.89,2.87a12.65,12.65,0,0,0,5.65,1.17c16.21.63,32.69-3.9,48.5-.24,4.42,1,8.75,2.68,13.28,2.92,7.82.42,15.32-3.39,23.15-3.6,11.89-.32,23.56,7.63,35,4.49,3.78-1,7.23-3.23,11.13-3.6,4.33-.39,8.5,1.5,12.71,2.6,14.95,3.9,30.52-2.41,46-2.89,10.08-.3,20.06,1.89,30.13,2.4a179.17,179.17,0,0,0,21.48-.64c2.73-.19,5.59-.43,7.87-1.92s3.68-4.71,2.27-7.05Z" transform="translate(-89.8 -22.5)"/><path class="cls-2" d="M491.7,344.73c5.27,3.35,12.87,0,18.18,3.26,1.37.85,2.48,2.1,3.89,2.87a12.65,12.65,0,0,0,5.65,1.17c16.21.63,32.69-3.9,48.5-.24,4.42,1,8.75,2.68,13.28,2.92,7.82.42,15.32-3.39,23.15-3.6,11.89-.32,23.56,7.63,35,4.49,3.78-1,7.23-3.23,11.13-3.6,4.33-.39,8.5,1.5,12.71,2.6,14.95,3.9,30.52-2.41,46-2.89,10.08-.3,20.06,1.89,30.13,2.4a179.17,179.17,0,0,0,21.48-.64c2.73-.19,5.59-.43,7.87-1.92s3.68-4.71,2.27-7.05Z" transform="translate(-89.8 -22.5)"/><g class="cls-4"><path class="cls-2" d="M454.17,297.13a9.49,9.49,0,0,1-1.26,4.82,9.87,9.87,0,0,1,0,9.65,8.59,8.59,0,0,1,.95,2.33,176.53,176.53,0,0,1-11.72-17.53h0a9.49,9.49,0,0,1,1.23-4.11,9.48,9.48,0,0,1-1.25-4.82,9.88,9.88,0,0,1,.56-3.36,9.29,9.29,0,0,1,.69-1.46,5.24,5.24,0,0,1,9.54,0,8.06,8.06,0,0,1,.68,1.42,9.84,9.84,0,0,1,.58,3.4,9.49,9.49,0,0,1-1.26,4.82A9.43,9.43,0,0,1,454.17,297.13Z" transform="translate(-89.8 -22.5)"/><ellipse class="cls-2" cx="358.34" cy="255.34" rx="6.03" ry="7.89"/><ellipse class="cls-2" cx="358.34" cy="245.7" rx="6.03" ry="7.89"/><path class="cls-5" d="M476.89,220.11A28.74,28.74,0,0,1,470.71,238a28.88,28.88,0,0,1-17.14,46.19c-.7.14-1.4.25-2.11.34a29.4,29.4,0,0,1-6.63,0c-.73-.08-1.45-.19-2.17-.32a28.59,28.59,0,0,1-9-3.28,286.94,286.94,0,0,1-13.55-32.64,28.74,28.74,0,0,1,5.17-10.3,28.9,28.9,0,0,1-4.67-27.12l21.92,7.36L422,207.54a29.61,29.61,0,0,1,3.29-5.27,28.88,28.88,0,1,1,45.39-35.71A27.78,27.78,0,0,1,473,170L451.8,185.54l23-11.92a28.93,28.93,0,0,1-.55,22.88l-17.14-.13,15.84,2.6a28.76,28.76,0,0,1-2.25,3.31A28.71,28.71,0,0,1,476.89,220.11Z" transform="translate(-89.8 -22.5)"/><path class="cls-3" d="M476.89,255.75a28.87,28.87,0,0,1-23.3,28.33c-.7.14-1.4.25-2.11.34a29.4,29.4,0,0,1-6.63,0c-.73-.07-1.45-.18-2.17-.32a28.5,28.5,0,0,1-9-3.28,287.21,287.21,0,0,1-13.57-32.65,28.66,28.66,0,0,1,5.17-10.3A28.82,28.82,0,0,1,419.14,220c0-3.24,55.44,12.94,51.57,17.85A28.82,28.82,0,0,1,476.89,255.75Z" transform="translate(-89.8 -22.5)"/></g><g class="cls-4"><path class="cls-2" d="M801.86,289.62c-1.13,3.61-2.34,7.19-3.58,10.68a9.91,9.91,0,0,1-.51-3.19C797.77,293.63,799.48,290.67,801.86,289.62Z" transform="translate(-89.8 -22.5)"/><path class="cls-5" d="M814,227.92c0,6.84-1.38,17.64-3.9,30a328.72,328.72,0,0,1-8.23,32.16c-1.13,3.61-2.34,7.19-3.58,10.69-1.42,4-2.92,7.84-4.49,11.53A29,29,0,0,1,781,267.2,29,29,0,0,1,776.27,240l21.93,7.38-20.56-10.71a29.13,29.13,0,0,1,3.29-5.28,29,29,0,0,1,4.92-40.69,29.32,29.32,0,0,1,6.42-3.81,49.69,49.69,0,0,1,19,24.9l-3.8,2.83,4.08-2.12a49.45,49.45,0,0,1,2.37,13h-1.14l1.16.19C814,226.43,814,227.17,814,227.92Z" transform="translate(-89.8 -22.5)"/><path class="cls-3" d="M810.09,257.46a330.18,330.18,0,0,1-8.23,32.16c-1.13,3.61-2.34,7.19-3.58,10.68-1.42,4-2.92,7.84-4.49,11.54A29,29,0,0,1,781,266.74a28.87,28.87,0,0,1-6.18-17.89C774.79,246.91,794.94,252,810.09,257.46Z" transform="translate(-89.8 -22.5)"/></g><path class="cls-1" d="M814.5,225.23v-.65a49.39,49.39,0,0,0-2.38-13c-.07-.24-.15-.48-.23-.72A49.58,49.58,0,0,0,728,194a69.6,69.6,0,0,0-3.94-13.81,223.22,223.22,0,0,1-39.28,1.46,159.93,159.93,0,0,0,24.9,9l-.3,1.13a160.36,160.36,0,0,1-27.83-10.4l-2.7-1.3,3,.19a222.47,222.47,0,0,0,41.76-1.2,70.5,70.5,0,0,0-12.3-19.5c-22.47-2.26-44.76-7-65.57-16.3l.48-1.06c20.26,9.09,42,13.76,63.89,16.06A70.18,70.18,0,0,0,598.6,170.11,96.11,96.11,0,0,0,574.7,116a225.18,225.18,0,0,1-37,11.18,224,224,0,0,1-57.81,4.59,158.47,158.47,0,0,0,24.89,9l-.3,1.13a160.67,160.67,0,0,1-27.83-10.4L474,130.22l3,.2a222.41,222.41,0,0,0,96.92-15.33c-1.15-1.26-2.35-2.5-3.57-3.71-38.41.78-80.24.39-118.12-13.37a96.39,96.39,0,0,0-45.86,82.14c0,18.1,5,43,13.66,68a291.19,291.19,0,0,0,13.62,32.72c2.65,5.37,5.47,10.6,8.42,15.6h0A179.08,179.08,0,0,0,453.77,314c.77,1,1.54,2,2.33,3a106.78,106.78,0,0,0,14.62,15.14h0c1.09.9,2.18,1.77,3.28,2.58a62.51,62.51,0,0,0,9.37,5.85A43.23,43.23,0,0,0,501,345.27l1.46,0v.2h262v1h0a38.7,38.7,0,0,1,4.42-1.52c9.26-3.28,17.78-16.47,24.87-33.13,1.55-3.7,3.07-7.56,4.49-11.53q1.88-5.26,3.57-10.69a326.67,326.67,0,0,0,8.24-32.16c2.5-12.36,3.9-23.16,3.9-30A9.91,9.91,0,0,1,814.5,225.23Z" transform="translate(-89.8 -22.5)"/><path class="cls-5" d="M536.64,334.5l7.46-4.39a18,18,0,0,0-3.82-4.56l-14.06,4.37,11-6.47a17.92,17.92,0,0,0-26.53,15.71c0,9.9,8,10.24,17.92,10.24s17.92-.34,17.92-10.24a17.87,17.87,0,0,0-1.54-7.27Z" transform="translate(-89.8 -22.5)"/><path class="cls-3" d="M538.54,344.12A13.9,13.9,0,0,0,535.9,342a12.31,12.31,0,0,0-4.35-2.12,32.22,32.22,0,0,0-4.29-.12,10.1,10.1,0,0,1-6.55-3,20.23,20.23,0,0,0-3-3.16,6.68,6.68,0,0,0-4.56-.83,10.08,10.08,0,0,0-1.35.27,18,18,0,0,0-1.06,6.08c0,9.9,8,10.24,17.92,10.24,4.8,0,9.16-.08,12.38-1.29l-.54-1A14.17,14.17,0,0,0,538.54,344.12Z" transform="translate(-89.8 -22.5)"/><circle class="cls-2" cx="529.92" cy="124.23" r="13.93"/><path class="cls-2" d="M611.64,254.74c1.44,10.09-.31,20.37-3,30.19a22.22,22.22,0,0,1-2,5.3c-1,1.64-2.28,3-3.4,4.6-2.34,3.22-3.71,7-5,10.76a303.24,303.24,0,0,0-8.89,31.68,2.22,2.22,0,0,0,0,1.35c.34.78,1.37.88,2.21.88l10.93-.06c.39-.75-.33-1.56-.78-2.27-1.56-2.43-.06-5.57,1.32-8.11a87.44,87.44,0,0,0,7.7-19.48,53.64,53.64,0,0,1,2.57-8.46c1.47-3.27,3.77-6.07,5.64-9.13a76.45,76.45,0,0,0,5.34-11.27c2.19-5.37,4.41-10.8,5.27-16.53.82-5.39.42-10.87-.11-16.29a1,1,0,0,0-.86-1.17,1,1,0,0,0-.34,0L613.53,246c-3-.16-3.74-.82-3.28,2.15C610.57,250.34,611.32,252.5,611.64,254.74Z" transform="translate(-89.8 -22.5)"/><path class="cls-3" d="M611.64,254.74c1.44,10.09-.31,20.37-3,30.19a22.22,22.22,0,0,1-2,5.3c-1,1.64-2.28,3-3.4,4.6-2.34,3.22-3.71,7-5,10.76a303.24,303.24,0,0,0-8.89,31.68,2.22,2.22,0,0,0,0,1.35c.34.78,1.37.88,2.21.88l10.93-.06c.39-.75-.33-1.56-.78-2.27-1.56-2.43-.06-5.57,1.32-8.11a87.44,87.44,0,0,0,7.7-19.48,53.64,53.64,0,0,1,2.57-8.46c1.47-3.27,3.77-6.07,5.64-9.13a76.45,76.45,0,0,0,5.34-11.27c2.19-5.37,4.41-10.8,5.27-16.53.82-5.39.42-10.87-.11-16.29a1,1,0,0,0-.86-1.17,1,1,0,0,0-.34,0L613.53,246c-3-.16-3.74-.82-3.28,2.15C610.57,250.34,611.32,252.5,611.64,254.74Z" transform="translate(-89.8 -22.5)"/><path class="cls-2" d="M614.53,230.54c-3,4.29-6.11,9.22-5.12,14.35.75,3.9,3.72,6.92,6.52,9.74,11.2,11.24,22.21,23.73,26,39.14,1,4,1.45,8.06,2.3,12.07,1.53,7.29,4.28,14.25,7,21.17l7.31,18.45a11,11,0,0,0,10.55-7,4.67,4.67,0,0,1-2.77-1.78c-3.11-4.32-3.75-9.86-4.55-15.12-.88-5.81-2.06-11.58-3.25-17.34l-5.23-25.49c-.61-2.94-1.21-5.89-2-8.79-3-11.22-8.82-21.81-9.71-33.42-.13-1.7-.21-3.58-1.37-4.84s-3.21-1.56-5-1.67C627.93,229.54,621.63,228.82,614.53,230.54Z" transform="translate(-89.8 -22.5)"/><path class="cls-6" d="M594.84,337.33a11.54,11.54,0,0,0-2.42-.31,5,5,0,0,0-4,2.16,9.89,9.89,0,0,0-1.06,2.34l-1.06,3a3.38,3.38,0,0,0-.15,2.72,2.92,2.92,0,0,0,1.42,1.1c2.55,1.14,5.45,1.2,8.22,1.47s5.38.74,8,1.24c.92.18,1.83.35,2.77.44a33.5,33.5,0,0,0,6.25-.18l2.15-.21a7.56,7.56,0,0,0,2.11-.39,2.66,2.66,0,0,0,1.56-1.4,2.53,2.53,0,0,0-2-3.14c-.57-.11-1.17-.06-1.72-.13a8.23,8.23,0,0,1-1.89-.56,37.34,37.34,0,0,1-7.93-3.87c-.67-.47-1.37-1.13-1.3-1.95a4,4,0,0,1,.35-1,3.78,3.78,0,0,0,0-2.61c-.14-.35-.39-.73-.75-.77-1-.13-.91,1.37-1.06,1.94-.21.78-.58.85-1.31.78C599,337.83,596.93,337.73,594.84,337.33Z" transform="translate(-89.8 -22.5)"/><path class="cls-6" d="M656.34,347.8a6.84,6.84,0,0,0,1.49,4.18,3.27,3.27,0,0,0,1.06.86,4.15,4.15,0,0,0,1.94.3,15.62,15.62,0,0,0,5.41-1.09,16.3,16.3,0,0,1,1.87-.71,22.39,22.39,0,0,1,2.44-.35c3.22-.46,6-2.36,9.16-3.32a18.44,18.44,0,0,0,2.72-.9,12.69,12.69,0,0,0,3.21-2.5,5.78,5.78,0,0,0,2.1-5.31,1,1,0,0,0-.09-.55.77.77,0,0,0-.35-.27,5.1,5.1,0,0,0-3.12-.06,55.22,55.22,0,0,1-11.5.43,1.67,1.67,0,0,1-1.77-1l-1.46-2.34c-.42-.67-1.08-1.43-1.84-1.2a1.48,1.48,0,0,0-.82,1.55,8.62,8.62,0,0,1,.09,1.89,2.57,2.57,0,0,1-1.24,1.62,8.55,8.55,0,0,1-1.95.75c-2.15.61-4.65,1.29-6.32,2.88C656.15,343.77,656.26,346.28,656.34,347.8Z" transform="translate(-89.8 -22.5)"/><path class="cls-7" d="M655.58,193.25a9,9,0,0,0,2.13-2.31,9.46,9.46,0,0,0,.91-3.2l.61-3.87c.34-2.13.74-4.38,2.16-6s4.25-2.2,5.7-.6a5,5,0,0,1,1,2.59,18.83,18.83,0,0,1-4.6,15.58c-1.75,1.92-3.9,3.44-5.75,5.25-1.61,1.56-3,3.35-4.5,5A62,62,0,0,1,641,216.44c.06-2.9.43-6,0-8.89-.31-2.08-1.16-3.2.85-4.56C646.53,199.81,651.25,196.94,655.58,193.25Z" transform="translate(-89.8 -22.5)"/><path class="cls-7" d="M616.3,164.74a7.11,7.11,0,0,1-2.72,5.39q7.27,2.55,14.36,5.62a5,5,0,0,1-1.23-3.48,17.64,17.64,0,0,1,2.68-9.39,2.22,2.22,0,0,0,.44-1.24c-.05-.92-1.14-1.35-2-1.56a50.37,50.37,0,0,0-9.31-1.35c-1.35,0-2.94-.47-2.64,1.24A18.79,18.79,0,0,1,616.3,164.74Z" transform="translate(-89.8 -22.5)"/><circle class="cls-7" cx="535.89" cy="131.97" r="11.39"/><path class="cls-8" d="M637,185.22a13.44,13.44,0,0,0-1.44-2.42,50.71,50.71,0,0,0-6.83-8.38,42.6,42.6,0,0,0-6.49-4.76,14.62,14.62,0,0,0-4.06-1.95,16.39,16.39,0,0,0-2.61-.36l-2.95-.24a2.56,2.56,0,0,0-.78,0,1.68,1.68,0,0,0-1,2,4.87,4.87,0,0,0,1.32,2.07c.13,6-2.55,12-2.92,18-.63,10.53,5.8,20.33,6.31,30.88a3.2,3.2,0,0,1-.14,1.41c-.09.22-.22.42-.31.63a6,6,0,0,0-.35,2.15,10.87,10.87,0,0,1-3.21,6.86,4.89,4.89,0,0,0,1.81,1.38,33.21,33.21,0,0,0,4.05,1c3.44,1,7,2,10.55,1.8a9.37,9.37,0,0,0,.81-3.07c.51-.31,1.1.36,1.17.95s0,1.29.39,1.71a1.59,1.59,0,0,0,1.48.3,64.5,64.5,0,0,0,6.43-1.51,12,12,0,0,1,6.52,0,1.75,1.75,0,0,0-.1-1.91,8.37,8.37,0,0,1-1-1.75,3.69,3.69,0,0,1-.12-1.15c0-3.33.68-6.69,0-10-.19-1-.49-1.9-.69-2.86a24.59,24.59,0,0,1-.28-5.69c.05-1.91-.18-4-.22-5.9a19.05,19.05,0,0,0-.15-2.39c-.13-.83-.39-1.64-.46-2.48-.21-2.12.64-4.23.52-6.37C642,190,638.23,188.21,637,185.22Z" transform="translate(-89.8 -22.5)"/><path class="cls-7" d="M611.27,183.69c-2.76,7.32-4.11,15.08-5.46,22.78l-3.11,18.1A86.63,86.63,0,0,0,601,240a16.64,16.64,0,0,1-.29,4.35c-.5,1.85-1.74,3.38-2.68,5.06a16.68,16.68,0,0,0-1.79,11.27c.32,1.62,1.19,3.45,2.83,3.64,1.35.15,2.52-.92,3.3-2a26,26,0,0,0,3.51-8.61,194.67,194.67,0,0,0,5.4-30,30.8,30.8,0,0,1,.54-3.82,28,28,0,0,1,1.32-3.8q1.78-4.44,3.58-8.87c2.75-6.82,5.52-13.68,9.31-20-3.74-1.08-7.64-2.34-11.37-3.4A10.45,10.45,0,0,0,611.27,183.69Z" transform="translate(-89.8 -22.5)"/><path class="cls-8" d="M617.75,189.25a42.72,42.72,0,0,0-8-.45,1.72,1.72,0,0,1-1.08-.28c-.54-.47-.31-1.34,0-2l1.29-3.12a4.54,4.54,0,0,1,1-1.72,4.35,4.35,0,0,1,2.45-.84,22.39,22.39,0,0,1,8.52.34,10.16,10.16,0,0,1,6.57,5.09,3.44,3.44,0,0,1,.07,3.41c-1,1.45-3.28,3.08-5,2.28C621.58,191,620,189.74,617.75,189.25Z" transform="translate(-89.8 -22.5)"/><path class="cls-2" d="M631.67,136.78a11.52,11.52,0,0,0-6.35,1.83,14,14,0,0,0-13.68-3.2,8,8,0,1,0-9.19,9.21,13.93,13.93,0,0,0,26.73,7.83,13.08,13.08,0,0,0,2.5.25c5.49,0,10-3.57,10-8S637.15,136.78,631.67,136.78Z" transform="translate(-89.8 -22.5)"/><path class="cls-3" d="M633.65,148.72a11.66,11.66,0,0,1-2.5-.26,13.72,13.72,0,0,1-1.82,4,12.21,12.21,0,0,0,2.34.23c5.13,0,9.34-3.12,9.89-7.11A11,11,0,0,1,633.65,148.72Z" transform="translate(-89.8 -22.5)"/><path class="cls-3" d="M617.73,158.67a13.94,13.94,0,0,1-13.92-14,13.64,13.64,0,0,1,.61-4.06,8,8,0,0,1-6.58-7.84,7.5,7.5,0,0,1,.13-1.42,8,8,0,0,0,4.46,13.24,13.93,13.93,0,0,0,26.6,8.25A13.91,13.91,0,0,1,617.73,158.67Z" transform="translate(-89.8 -22.5)"/><path class="cls-9" d="M668.5,182h0a.14.14,0,0,1,0,.19l-1.1,1.54a.13.13,0,0,1-.18,0h0a.13.13,0,0,1,0-.18l1.1-1.55A.13.13,0,0,1,668.5,182Z" transform="translate(-89.8 -22.5)"/><path class="cls-9" d="M662.36,175.5h0a.08.08,0,0,1,0,.1l-.33.46a.08.08,0,0,1-.1,0h0a.08.08,0,0,1,0-.11l.33-.45A.06.06,0,0,1,662.36,175.5Z" transform="translate(-89.8 -22.5)"/><path class="cls-9" d="M661.6,176.56h0a.08.08,0,0,1,0,.12l-.62.87a.09.09,0,0,1-.12,0h0a.11.11,0,0,1,0-.12l.63-.87A.09.09,0,0,1,661.6,176.56Z" transform="translate(-89.8 -22.5)"/><path class="cls-9" d="M660.63,177.92h0a.07.07,0,0,1,0,.11l-.63.89a.09.09,0,0,1-.11,0h0a.09.09,0,0,1,0-.11l.64-.89A.07.07,0,0,1,660.63,177.92Z" transform="translate(-89.8 -22.5)"/><rect class="cls-9" x="653.59" y="179.73" width="17.8" height="8.76" rx="0.98" transform="translate(38.01 593.94) rotate(-54.49)"/><rect class="cls-3" x="653.59" y="179.73" width="17.8" height="8.76" rx="0.98" transform="translate(38.01 593.94) rotate(-54.49)"/><rect class="cls-9" x="653.23" y="179" width="17.8" height="8.76" rx="0.98" transform="matrix(0.58, -0.81, 0.81, 0.58, 38.45, 593.34)"/><path class="cls-5" d="M669.56,178.35l-.81-.59-.07.1a.57.57,0,0,1-.78.14l-2.61-1.86a.58.58,0,0,1-.13-.8l.07-.1-.78-.54a.69.69,0,0,0-1,.15h0l-9,12.6a.7.7,0,0,0,.16,1l5.12,3.65a.7.7,0,0,0,1-.16h0l9-12.59a.69.69,0,0,0-.17-1Z" transform="translate(-89.8 -22.5)"/><path class="cls-10" d="M666.4,176.16l.79.56a.13.13,0,0,1,0,.18h0a.14.14,0,0,1-.18,0l-.79-.57a.13.13,0,0,1,0-.17h0A.13.13,0,0,1,666.4,176.16Z" transform="translate(-89.8 -22.5)"/><circle class="cls-10" cx="577.66" cy="154.6" r="0.14"/><path class="cls-5" d="M667.5,79.79a26.11,26.11,0,0,0-26.1,26.1c0,14.41,27.35,62.15,27.35,62.15s24.85-47.72,24.85-62.15A26.1,26.1,0,0,0,667.5,79.79Zm0,43.7a13.67,13.67,0,1,1,13.67-13.67h0A13.68,13.68,0,0,1,667.5,123.5h0Z" transform="translate(-89.8 -22.5)"/><path class="cls-3" d="M667.5,79.79a26.11,26.11,0,0,0-26.1,26.1c0,14.41,27.35,62.15,27.35,62.15s24.85-47.72,24.85-62.15A26.1,26.1,0,0,0,667.5,79.79Zm0,43.7a13.67,13.67,0,1,1,13.67-13.67h0A13.68,13.68,0,0,1,667.5,123.5h0Z" transform="translate(-89.8 -22.5)"/><path class="cls-5" d="M667.5,74.5a26.1,26.1,0,0,0-26.1,26.1h0c0,14.41,27.35,67.58,27.35,67.58S693.6,115,693.6,100.6a26.1,26.1,0,0,0-26.09-26.1Zm0,43.37a13.68,13.68,0,1,1,13.68-13.67h0A13.68,13.68,0,0,1,667.5,117.87Z" transform="translate(-89.8 -22.5)"/><path class="cls-11" d="M985.24,31.81a26.69,26.69,0,0,1,.75,3.93c0,4.35-5.27,7-6.08,11.31-.48,2.55.76,5.14,2.52,7a44.28,44.28,0,0,0,6.05,4.82,38.81,38.81,0,0,1,12.71,16.8,15.9,15.9,0,0,1,1.11,4.16,24.8,24.8,0,0,0,.3,3.11c1,4,5.86,5.6,10,5.86a43.78,43.78,0,0,0,19.49-3.26,9.11,9.11,0,0,1,4.31-1.07,9,9,0,0,1,3.29,1.36,43.66,43.66,0,0,0,9.75,4,13.39,13.39,0,0,0,5.78.57c5.78-1,8.85-8,14.51-9.55,3.92-1.06,8,.79,11.52,2.82s7.14,4.37,11.2,4.38c5.42,0,9.87-4.09,13.54-8.07a8.22,8.22,0,0,0,1.92-2.78c.75-2.19-.46-4.64-2.24-6.11a22.27,22.27,0,0,0-6.19-3,54.1,54.1,0,0,1-10.37-5.41,20.37,20.37,0,0,1-5.57-5.09,30.55,30.55,0,0,1-2.81-5.88c-1.82-4.41-4.39-8.89-8.68-11-3.51-1.7-7.58-1.51-11.47-1.55-5.74-.06-11.62-.75-16.7-3.41-4.29-2.24-7.82-5.77-12.17-7.89-6.93-3.36-14.86-2.7-22.32-2.58-3.59.07-7.86.42-11.31-.75-2.54-.87-3.86-2.65-6.78-1.93A8.21,8.21,0,0,0,985.24,31.81Z" transform="translate(-89.8 -22.5)"/><path class="cls-12" d="M1091.42,63.56a2.87,2.87,0,0,1,0-1.83c.35-.9,1.19-1.55,1.49-2.46.55-1.7-.94-3.3-1.85-4.84A8.08,8.08,0,0,1,1090,49.7c.15-1.78.87-3.47.93-5.25a14,14,0,0,0-1-4.84,16.82,16.82,0,0,0-1.62-3.77,8.6,8.6,0,0,0-6.45-3.77c-1.2-.11-2.38.28-3.57.13-1.65-.22-3.21-.64-4.88-.7s-3.36.16-4.45,1.33c-.83.89-1.1,2.19-1.86,3.14-1.08,1.36-3,1.82-4.15,3.08a4.36,4.36,0,0,0-1,4.21c.17.54.44,1,.61,1.57.74,2.22-.23,4.6-.82,6.87a1.13,1.13,0,0,0,0,.58c.09.27.38.42.63.58a3.29,3.29,0,0,1,1.27,2.47,9.73,9.73,0,0,1-.36,2.83c-.56,2.37-1.25,4.9-3.07,6.48a16.89,16.89,0,0,0-1.17-2.28,12.35,12.35,0,0,1-2-6.19v0c0-.11,0-.23,0-.34.15-2.52,1.24-5,1.21-7.47,0-.2,0-.41,0-.61a12.74,12.74,0,0,0-2.36-5.94,14.61,14.61,0,0,0-3.16-3.62,14.61,14.61,0,0,0-6.94-2.49c-2.46-.35-4.7-.67-7.18-.84-2.67-.17-5.6-.27-7.71,1.37-2.75,2.14-2.9,6.28-5,9.06-1.25,1.66-3.23,2.93-3.89,4.82a10.56,10.56,0,0,1-.44-1.42l0-.09a13.74,13.74,0,0,0,.54-7.08,8.89,8.89,0,0,0,.08-1.15,4.4,4.4,0,0,0-.14-1.25,7.12,7.12,0,0,0-1.9-2.88,9,9,0,0,0-.94-.91,13.71,13.71,0,0,0-23.38,13.63,3.57,3.57,0,0,1-1,2.11c-.25.26-.58.57-.53.9a.43.43,0,0,0,0,.27.78.78,0,0,0,.23.25,4.11,4.11,0,0,0,2.83.84,11.8,11.8,0,0,0,4.76,6.12,1.55,1.55,0,0,1,0,.22c0,.13.33.39.33.39v1.43s-3.77,4.92-7.26,5.1a7.05,7.05,0,0,0-4.71,2.79,12.19,12.19,0,0,0-2.47,4.25c-.14,1-1.15,5.89-1.15,5.89h29c-.34,1.76-.81,4-.81,4h50.48l-.36-5h6.29v1h29l1.84-3C1101.83,68.47,1097.09,64.05,1091.42,63.56Zm-72.18-9a7.61,7.61,0,0,0,2.08.75,1.27,1.27,0,0,0,.94-.08,1,1,0,0,0,.37-.53l0,0a20.45,20.45,0,0,1,1.64,6.1c0,.2,0,.4,0,.6a8.73,8.73,0,0,1-.73,3.49,66.16,66.16,0,0,1-7.54-4.62l-.16-.06a4.06,4.06,0,0,1,.12.4,1.05,1.05,0,0,1,0,.19c-.16-.53-.31-1.08-.44-1.64l-.05-.19A11.91,11.91,0,0,0,1019.24,54.58Z" transform="translate(-89.8 -22.5)"/><path class="cls-13" d="M1002.5,60.09v0Z" transform="translate(-89.8 -22.5)"/><path class="cls-14" d="M1002.5,60v0Z" transform="translate(-89.8 -22.5)"/><path class="cls-15" d="M1002.14,59.9" transform="translate(-89.8 -22.5)"/><path class="cls-16" d="M1002.14,59.93Z" transform="translate(-89.8 -22.5)"/><path class="cls-17" d="M1002.14,59.92Z" transform="translate(-89.8 -22.5)"/><path class="cls-18" d="M1072.94,31.91c-1.57,0-3.3.16-4.37,1.31-.82.88-1.08,2.15-1.83,3.09-1.06,1.34-2.92,1.79-4.09,3a4.28,4.28,0,0,0-1,4.14c.16.53.42,1,.6,1.54.72,2.2-.22,4.54-.81,6.77a.92.92,0,0,0,0,.57c.09.27.37.41.61.58a3.17,3.17,0,0,1,1.25,2.42,9.46,9.46,0,0,1-.36,2.79c-.57,2.43-1.28,5-3.25,6.56-.83.66-1.94,1.19-2.16,2.23-.26,1.21.91,2.25,2,2.8,3.27,1.62,7.07,1.64,10.65,2.36,3.15.64,6.3,1.84,9.49,1.43a18.63,18.63,0,0,0,4.12-1.18l8.38-3.09a2,2,0,0,0,.66-.33,1.56,1.56,0,0,0,.25-1.82,7.15,7.15,0,0,0-1.21-1.54c-1-1.07-1.69-2.58-1.17-3.92.35-.88,1.18-1.52,1.47-2.43.54-1.67-.93-3.24-1.81-4.76a7.89,7.89,0,0,1-1.07-4.65c.14-1.75.85-3.42.9-5.17a13.89,13.89,0,0,0-1-4.77,16.43,16.43,0,0,0-1.6-3.7,8.48,8.48,0,0,0-6.34-3.72c-1.19-.1-2.35.28-3.52.13C1076.13,32.38,1074.6,32,1072.94,31.91Z" transform="translate(-89.8 -22.5)"/><path class="cls-19" d="M1075,77.75s-9.5-6-5.81-12.82a10.72,10.72,0,0,0,1.31-4.46,9.91,9.91,0,0,0,0-1.09v-.05c0-.19,0-.37,0-.55a11.18,11.18,0,0,0-2.77-6s15.76-4.6,13.12-.45c-1.22,1.92-.86,3.81,0,5.76.09.21.18.42.28.62.94,2.06,2.26,4.2,2.62,6.51C1084.42,70,1075,77.75,1075,77.75Z" transform="translate(-89.8 -22.5)"/><path class="cls-3" d="M1081.09,52.34c-1.22,1.92-.86,3.81,0,5.76a10.62,10.62,0,0,1-10.31.68,11.18,11.18,0,0,0-2.77-6S1083.73,48.19,1081.09,52.34Z" transform="translate(-89.8 -22.5)"/><circle class="cls-19" cx="985.48" cy="26.45" r="10.63"/><path class="cls-3" d="M1070.5,59.39v-.08S1070.5,59.36,1070.5,59.39Z" transform="translate(-89.8 -22.5)"/><path class="cls-3" d="M1075.29,77.75s-9.5-6-5.81-12.82a10.57,10.57,0,0,0,1.31-4.46c.22,1.69,1.39,3.8,3.52,6.72a9.4,9.4,0,0,1,1.44,4.82l.22.15,1-.63a11.11,11.11,0,0,1,1.46-5.35c2.47-3.7,3-5.54,2.87-7.46,1,2.06,2.26,4.19,2.63,6.51C1084.71,70,1075.29,77.75,1075.29,77.75Z" transform="translate(-89.8 -22.5)"/><path class="cls-20" d="M1090.51,63.44a14.38,14.38,0,0,1-9.24-4.8c.31,2-.18,3.9-2.82,7.85a11,11,0,0,0-1.45,5.35l-1,.63-.21-.15a9.44,9.44,0,0,0-1.45-4.83c-2.64-3.61-3.81-6-3.5-7.87a11.65,11.65,0,0,1-8.56,5.08c-5.65.38-10.4,4.38-10.86,11.69l1.81,2.11H1071v1h28.53l1.81-3.3C1100.92,68.21,1096.17,63.85,1090.51,63.44Z" transform="translate(-89.8 -22.5)"/><path class="cls-21" d="M1090.51,63.44a14.38,14.38,0,0,1-9.24-4.8c.31,2-.18,3.9-2.82,7.85a11,11,0,0,0-1.45,5.35l-1,.63-.21-.15a9.44,9.44,0,0,0-1.45-4.83c-2.64-3.61-3.81-6-3.5-7.87a11.65,11.65,0,0,1-8.56,5.08c-5.65.38-10.4,4.38-10.86,11.69l1.81,2.11H1071v1h28.53l1.81-3.3C1100.92,68.21,1096.17,63.85,1090.51,63.44Z" transform="translate(-89.8 -22.5)"/><path class="cls-3" d="M1082.47,43.81a8.66,8.66,0,0,1-2.18,3,6.44,6.44,0,0,1-4.49,2.12,6.94,6.94,0,0,0,1.94-3.19c-1.08.63-1.89,1.62-2.91,2.32a3.11,3.11,0,0,1-3.48.34,10.51,10.51,0,0,0,4.35-4.11c-2.44.63-3.69,3.37-5.88,4.6a6.6,6.6,0,0,1-3.41.77,2.68,2.68,0,0,1-2.24-.91,2.58,2.58,0,0,1-.34-1.4,9.57,9.57,0,0,1,2.24-6.11,15.77,15.77,0,0,1,5.21-4.05,6.85,6.85,0,0,1,2.21-.81,8,8,0,0,1,2.92.28,16.88,16.88,0,0,1,3.63,1.16C1082.48,39,1083.54,41.17,1082.47,43.81Z" transform="translate(-89.8 -22.5)"/><path class="cls-18" d="M1082.47,43.66a8.66,8.66,0,0,1-2.18,3,6.44,6.44,0,0,1-4.49,2.12,6.94,6.94,0,0,0,1.94-3.19c-1.08.63-1.89,1.62-2.91,2.32a3.11,3.11,0,0,1-3.48.34,10.51,10.51,0,0,0,4.35-4.11c-2.44.63-3.69,3.37-5.88,4.6a6.6,6.6,0,0,1-3.41.77,2.68,2.68,0,0,1-2.24-.91,2.58,2.58,0,0,1-.34-1.4,9.57,9.57,0,0,1,2.24-6.11,15.93,15.93,0,0,1,5.21-4.06,7.07,7.07,0,0,1,2.21-.8,7.82,7.82,0,0,1,2.92.28,16.88,16.88,0,0,1,3.63,1.16C1082.48,38.83,1083.54,41,1082.47,43.66Z" transform="translate(-89.8 -22.5)"/><circle class="cls-22" cx="919.37" cy="21.74" r="13.49"/><path class="cls-23" d="M1021.28,70.22s-12.36,3.16-12.67,3.46-10.4.83-7.46-5.35a22.85,22.85,0,0,0,1.67-8.35c0-.12,0-.25,0-.38a61.46,61.46,0,0,0-.47-9.67s14.32-5.66,13.26,2.94a18,18,0,0,0,.44,6.31c.16.68.34,1.34.55,2A33.68,33.68,0,0,0,1021.28,70.22Z" transform="translate(-89.8 -22.5)"/><path class="cls-3" d="M1016.06,59.19a11.63,11.63,0,0,1-13.23.42,61.35,61.35,0,0,0-.47-9.67s14.32-5.66,13.26,2.94A18,18,0,0,0,1016.06,59.19Z" transform="translate(-89.8 -22.5)"/><circle class="cls-23" cx="919.34" cy="27.13" r="11.61"/><path class="cls-3" d="M1021.28,70.22s-12.36,3.16-12.67,3.46-10.4.83-7.46-5.35a22.85,22.85,0,0,0,1.67-8.35c.11,1.57,1,5.35,1.12,6.61a1.43,1.43,0,0,0,0,.22,4.69,4.69,0,0,0,1.49,1.82l0,0a5.5,5.5,0,0,0,6.48.43,29.59,29.59,0,0,0,3-2.13,5.17,5.17,0,0,0,1.81-3.93,8.56,8.56,0,0,0-.15-1.89A33.64,33.64,0,0,0,1021.28,70.22Z" transform="translate(-89.8 -22.5)"/><path class="cls-20" d="M1036.88,78.5H986.45s1-5.13,1.2-6.18a12.69,12.69,0,0,1,2.59-4.46,7.41,7.41,0,0,1,5-2.93c3.66-.19,7.61-5.35,7.61-5.35h0c.09,1.5,1,5.42,1.14,6.71a.78.78,0,0,0,0,.21,4.65,4.65,0,0,0,1.48,1.82l0,0a5.55,5.55,0,0,0,6.53.4,28.52,28.52,0,0,0,2.9-2.1,5.13,5.13,0,0,0,1.82-3.92,8.75,8.75,0,0,0-.32-2.6,2.28,2.28,0,0,0-.12-.39l.16.06s6.82,5,13.07,7a6.08,6.08,0,0,1,1.18.48A8.72,8.72,0,0,1,1033,69.1a12.94,12.94,0,0,1,2.08,3.2A21.88,21.88,0,0,1,1036.88,78.5Z" transform="translate(-89.8 -22.5)"/><path class="cls-21" d="M1036.88,78.5H986.45s1-5.13,1.2-6.18a12.69,12.69,0,0,1,2.59-4.46,7.41,7.41,0,0,1,5-2.93c3.66-.19,7.61-5.35,7.61-5.35h0c.09,1.5,1,5.42,1.14,6.71a.78.78,0,0,0,0,.21,4.65,4.65,0,0,0,1.48,1.82l0,0a5.55,5.55,0,0,0,6.53.4,28.52,28.52,0,0,0,2.9-2.1,5.13,5.13,0,0,0,1.82-3.92,8.75,8.75,0,0,0-.32-2.6,2.28,2.28,0,0,0-.12-.39l.16.06s6.82,5,13.07,7a6.08,6.08,0,0,1,1.18.48A8.72,8.72,0,0,1,1033,69.1a12.94,12.94,0,0,1,2.08,3.2A21.88,21.88,0,0,1,1036.88,78.5Z" transform="translate(-89.8 -22.5)"/><path class="cls-3" d="M1014.72,45.74a4.65,4.65,0,0,0,1.73,3,1.51,1.51,0,0,1,.37.25c.26.28.18.71.14,1.08a4.46,4.46,0,0,0,1.33,3.51,6.58,6.58,0,0,0,3.39,1.74,1.2,1.2,0,0,0,.93-.07,1.09,1.09,0,0,0,.38-.54,4.66,4.66,0,0,0-.09-3c-.3-.95-.73-1.87-1-2.84-.53-2.32.18-4.71.49-7.07a6,6,0,0,0,0-2.35,7.11,7.11,0,0,0-1.88-2.83,5.93,5.93,0,0,0-1.39-1.21c-1.58-.87-3.63-.1-5.32-.73a17.51,17.51,0,0,1-1.9-1,6.88,6.88,0,0,0-4.5-.41,20.53,20.53,0,0,0-4.31,1.6l-1.06.48c-1.5.7-3.11,1.48-3.92,2.93s-.62,3.52-1.48,5.06a4.28,4.28,0,0,0-.7,1.44,3,3,0,0,0,.19,1.14,9.32,9.32,0,0,1,.48,2.77,3.71,3.71,0,0,1-1,2.57c-.28.28-.66.64-.49,1a.79.79,0,0,0,.23.25,4.08,4.08,0,0,0,3.9.58,2.49,2.49,0,0,0,1.27-1,3.65,3.65,0,0,0,.41-1.07,15.1,15.1,0,0,0,.7-4.15,15.17,15.17,0,0,1,0-2.43,2.14,2.14,0,0,1,1.36-1.84,6.79,6.79,0,0,1,1.8,0c.87,0,1.93-1,2.74-.68s1.24,1.57,1.81,2.08A6.63,6.63,0,0,0,1014.72,45.74Z" transform="translate(-89.8 -22.5)"/><path class="cls-22" d="M1014.72,45.58a4.6,4.6,0,0,0,1.73,3,1.55,1.55,0,0,1,.37.26c.25.27.18.7.14,1.08a4.48,4.48,0,0,0,1.32,3.5,6.63,6.63,0,0,0,3.4,1.75,1.26,1.26,0,0,0,.92-.07,1.06,1.06,0,0,0,.38-.55,4.56,4.56,0,0,0-.09-2.94c-.29-1-.73-1.87-.95-2.85-.53-2.31.17-4.71.49-7.06a6.24,6.24,0,0,0,0-2.36,7.07,7.07,0,0,0-1.88-2.83,5.69,5.69,0,0,0-1.38-1.21c-1.59-.86-3.63-.09-5.33-.73a19.62,19.62,0,0,1-1.9-1,6.85,6.85,0,0,0-4.49-.41,20.13,20.13,0,0,0-4.31,1.6l-1.05.49c-1.5.69-3.11,1.48-3.92,2.92s-.62,3.52-1.48,5.07a4.23,4.23,0,0,0-.7,1.43,3,3,0,0,0,.19,1.14,9.37,9.37,0,0,1,.48,2.77,3.74,3.74,0,0,1-1,2.57c-.28.28-.66.64-.49,1a.92.92,0,0,0,.23.25,4.14,4.14,0,0,0,3.9.58,2.65,2.65,0,0,0,1.27-1,3.82,3.82,0,0,0,.41-1.08,15,15,0,0,0,.7-4.15,15,15,0,0,1,0-2.42,2.15,2.15,0,0,1,1.36-1.85,7.25,7.25,0,0,1,1.8,0c.87,0,1.93-1,2.74-.69s1.24,1.57,1.81,2.08A6.53,6.53,0,0,0,1014.72,45.58Z" transform="translate(-89.8 -22.5)"/><rect class="cls-24" x="937.7" y="28" width="26" height="23"/><rect class="cls-21" x="937.7" y="28" width="26" height="23"/><path class="cls-25" d="M1049.6,83.5h-22.34a11.87,11.87,0,0,1,2.63-5.4,20.19,20.19,0,0,0,3-5.11c.2-.49.38-1,.54-1.49a23.27,23.27,0,0,0,.94-4.55.59.59,0,0,1,0-.13,26.76,26.76,0,0,0,.13-3.23v-.46a24.06,24.06,0,0,0-1-6.85l-.24-.79c-.23-.78-.4-1.21-.4-1.21s.42-.25,1.11-.61l.06,0c2.55-1.31,8.57-4,11.23-2.09l0,0c.92.71,1.43,2,1.19,4.18v-.32a9.12,9.12,0,0,1,1,.12c-.15,1.49,0,4.49,0,4.49v.24a2.22,2.22,0,0,0,0,1.06v.15a20.49,20.49,0,0,0,0,3.59c.1,1.7.24,3.42.4,5.12.08.72.15,1.44.24,2.15,0,.08,0,.17,0,.25.1.86.2,1.71.3,2.53v0C1048.86,78.45,1049.6,83.5,1049.6,83.5Z" transform="translate(-89.8 -22.5)"/><path class="cls-3" d="M1046.5,55.47v0l1,4.62v.16a11.36,11.36,0,0,1-13,3.05v-.7a27.48,27.48,0,0,0-1.24-7.36c-.23-.72-.4-1.13-.4-1.13s.42-.23,1.11-.56c2.53-1.22,8.68-3.85,11.33-2C1046.23,52.23,1046.73,53.44,1046.5,55.47Z" transform="translate(-89.8 -22.5)"/><circle class="cls-25" cx="949.18" cy="30.38" r="11.01"/><path class="cls-3" d="M1039.56,83.5h-23.48s1-5.13,1.2-6.18a12.69,12.69,0,0,1,2.59-4.46,11.4,11.4,0,0,1,7-2.49c4.49-.07,5.8,1.48,6.16,2.62a2.67,2.67,0,0,1,.09,1.19l.85,1.23Z" transform="translate(-89.8 -22.5)"/><path class="cls-20" d="M1039.49,83.5H1016s1.06-5.13,1.21-6.18a12.69,12.69,0,0,1,2.59-4.46,11.38,11.38,0,0,1,7-2.49c4.49-.07,5.8,1.48,6.15,2.62a2.41,2.41,0,0,1,.09,1.19l.85,1.23Z" transform="translate(-89.8 -22.5)"/><path class="cls-3" d="M1065.13,83.5h-24.61c1.17-2.5,4.25-9.15,4.42-10.69.07-.6.7-1.16,1.54-1.63a9.06,9.06,0,0,1,.82-.42l0,0,.47-.19a9.37,9.37,0,0,1,6.58,0c2,.77,4.62,1.81,6.65,2.78h0c.52.25,1,.5,1.43.73a5.64,5.64,0,0,1,1.72,1.24,7.66,7.66,0,0,1,.36,2C1064.75,78.8,1064.94,81,1065.13,83.5Z" transform="translate(-89.8 -22.5)"/><path class="cls-20" d="M1065.2,83.5h-24.61c1.18-2.5,4.25-9.15,4.43-10.69.06-.6.7-1.16,1.54-1.63a7.91,7.91,0,0,1,.82-.42l0,0,.46-.19a9.4,9.4,0,0,1,6.59,0c2,.77,4.62,1.81,6.64,2.78h0c.52.25,1,.5,1.43.73a5.69,5.69,0,0,1,1.71,1.24,8,8,0,0,1,.37,2C1064.82,78.8,1065,81,1065.2,83.5Z" transform="translate(-89.8 -22.5)"/><path class="cls-3" d="M1061.24,71.08c0,.36,0,.71,0,1.07,0,.17,0,.35,0,.52l0,.37,0,.14c-.19,1.68-.53,3.35-.62,5v.24c0,1.58.64,5,.64,5H1047c0-.29,0-.58,0-.86s0-.52,0-.78c.22-2.12,1.31-4.11,1.47-6.23v-.09c0-.16,0-.32,0-.48v0a8.58,8.58,0,0,0-.32-2.07l0-.1a19.82,19.82,0,0,0-.69-2l0-.13a30.25,30.25,0,0,1-1.06-2.87,7.41,7.41,0,0,1-.33-2.19,2.68,2.68,0,0,1,0-.4c0-.11,0-.22,0-.33s.06-.34.1-.51a11.8,11.8,0,0,1,1.2-2.61h0a7.56,7.56,0,0,0,1.11-2.86,2.3,2.3,0,0,0,0-.37h0a3.87,3.87,0,0,0,0-.49,8.16,8.16,0,0,0-.78-2l-.09-.2s0,0,0,0a26,26,0,0,1-1.26-4.17c0-.06,0-.12,0-.18-.08-.35-.17-.7-.27-1-.65-2.37-1.64-4.78-3.86-6.09a4.6,4.6,0,0,0-2.19-.67c-2.83-.09-4.18,2.25-4.69,4.51-.37,1.65-.4,3.38-.88,5,0,.12-.07.23-.12.35l-.06.18c-.21.59-.46,1.18-.73,1.76l0,.06c-.88,1.87-1.9,3.7-1.93,5.58v-.17a3.28,3.28,0,0,0,.14,1.32,6.51,6.51,0,0,0,1.14,2.08l.29.37c.49.6,1,1.17,1.48,1.79v0a6.82,6.82,0,0,1,.88,1.47,5.36,5.36,0,0,1,0,4.14c-.14.31-.29.6-.45.89-.3.51-.63,1-.89,1.54-.08.18-.16.37-.23.55-.57,1.49-.7,3.13-1.17,4.67a4.17,4.17,0,0,1-1.68,2.61h-15a50.2,50.2,0,0,0,1.17-5.37,12.79,12.79,0,0,1,2.59-4.47l-.37.31a12.92,12.92,0,0,0-2.52,2.9c0-.11.07-.21.1-.31.22-.63.44-1.26.68-1.88a13.54,13.54,0,0,1,2.76-4.93c.75-.76,1.67-1.35,2.39-2.14a7.68,7.68,0,0,0,1.79-5.23c0-.19,0-.39,0-.59a19.86,19.86,0,0,0-1.61-6,8.69,8.69,0,0,1-.84-3.24c0-.15,0-.3,0-.46.32-2.28,2.63-3.65,4-5.49,2.07-2.74,2.22-6.82,4.92-8.92,2.08-1.62,5-1.52,7.59-1.34,2.45.16,4.65.48,7.07.82a14.32,14.32,0,0,1,6.83,2.47,14.3,14.3,0,0,1,3.1,3.56A12.37,12.37,0,0,1,1058,48c0,.15,0,.3,0,.45,0,2.47-1,4.86-1.19,7.35,0,.11,0,.23,0,.34v0a12.13,12.13,0,0,0,1.92,6.24A16.69,16.69,0,0,1,1061.24,71.08Z" transform="translate(-89.8 -22.5)"/><path class="cls-24" d="M1061.24,71.08c0,.31,0,.61,0,.92s0,.34,0,.52,0,.34-.05.51c-.19,1.68-.53,3.35-.62,5v.39c0,1.58.67,5,.67,5H1047c0-.29,0-.58,0-.86s0-.62,0-.93c.22-2.12,1.31-4.11,1.47-6.23,0-.15,0-.31,0-.46v-.11a8.21,8.21,0,0,0-.34-2.2,20.07,20.07,0,0,0-.7-2c-.4-1-.82-2-1.11-3a7.84,7.84,0,0,1-.33-2,5.09,5.09,0,0,1,0-.55c0-.11,0-.21,0-.32s.06-.35.1-.51a11.17,11.17,0,0,1,1.2-2.61,7.47,7.47,0,0,0,1.12-2.87c0-.07,0-.15,0-.23h0a2.68,2.68,0,0,0,0-.63,8.07,8.07,0,0,0-.78-2,1.54,1.54,0,0,1-.08-.19,25.57,25.57,0,0,1-1.28-4.21c-.1-.41-.21-.82-.32-1.22-.63-2.33-1.6-4.69-3.74-6a4.58,4.58,0,0,0-2.22-.71c-2.89-.15-4.27,2.21-4.78,4.5-.37,1.65-.4,3.38-.88,5l-.18.53a19,19,0,0,1-.76,1.82c-.9,1.91-2,3.8-1.93,5.73V60.9a7.82,7.82,0,0,0,.15,1.32,6.51,6.51,0,0,0,1.14,2.08l.3.37c.49.6,1,1.18,1.48,1.81a6.82,6.82,0,0,1,.88,1.47,5.31,5.31,0,0,1,0,4.14,7.42,7.42,0,0,1-.45.89c-.3.51-.63,1-.88,1.54a3.76,3.76,0,0,0-.23.55c-.58,1.49-.71,3.13-1.18,4.67A4.44,4.44,0,0,1,1031,82.5h-15a45.87,45.87,0,0,0,1.21-5.53,12.15,12.15,0,0,1,2.21-4l.38-.46a13,13,0,0,0-2.79,3l-.1.17c.24-.74.5-1.47.77-2.19a13.6,13.6,0,0,1,2.76-4.93c.76-.76,1.68-1.35,2.4-2.14a7.57,7.57,0,0,0,1.78-5.09c0-.24,0-.49,0-.73a20.44,20.44,0,0,0-1.61-6,9.24,9.24,0,0,1-.84-3.09,4.17,4.17,0,0,1,0-.61c.31-2.27,2.62-3.63,4-5.48,2.06-2.74,2.21-6.81,4.92-8.92,2.08-1.61,5-1.51,7.59-1.34,2.44.17,4.65.48,7.07.82a14.32,14.32,0,0,1,6.83,2.47,14.48,14.48,0,0,1,3.1,3.56,12.37,12.37,0,0,1,2.33,5.84c0,.2,0,.41,0,.61,0,2.41-1,4.76-1.19,7.19,0,.17,0,.33,0,.5v0a12.24,12.24,0,0,0,1.92,6.08A16.69,16.69,0,0,1,1061.24,71.08Z" transform="translate(-89.8 -22.5)"/><path class="cls-11" d="M95.24,227.81a26.69,26.69,0,0,1,.75,3.93c0,4.35-5.27,7-6.08,11.31-.48,2.55.76,5.14,2.52,7a44.28,44.28,0,0,0,6,4.82,38.81,38.81,0,0,1,12.71,16.8,15.9,15.9,0,0,1,1.11,4.16,24.8,24.8,0,0,0,.3,3.11c1,4,5.86,5.6,10,5.86a43.78,43.78,0,0,0,19.49-3.26,9.11,9.11,0,0,1,4.31-1.07,9,9,0,0,1,3.29,1.36,43.66,43.66,0,0,0,9.75,4,13.39,13.39,0,0,0,5.78.57c5.78-1,8.85-8,14.51-9.55,3.92-1.06,8,.79,11.52,2.82s7.14,4.37,11.2,4.38c5.42,0,9.87-4.09,13.54-8.07a8.22,8.22,0,0,0,1.92-2.78c.75-2.19-.46-4.64-2.24-6.11a22.27,22.27,0,0,0-6.19-3,54.1,54.1,0,0,1-10.37-5.41,20.37,20.37,0,0,1-5.57-5.09,30.55,30.55,0,0,1-2.81-5.88c-1.82-4.41-4.39-8.89-8.68-11-3.51-1.7-7.58-1.51-11.47-1.55-5.74-.06-11.62-.75-16.7-3.41-4.29-2.24-7.82-5.77-12.17-7.89-6.93-3.36-14.86-2.7-22.32-2.58-3.59.07-7.86.42-11.31-.75-2.54-.87-3.86-2.65-6.78-1.93A8.21,8.21,0,0,0,95.24,227.81Z" transform="translate(-89.8 -22.5)"/><path class="cls-26" d="M201.42,259.56a2.87,2.87,0,0,1,.05-1.83c.35-.9,1.19-1.55,1.49-2.46.55-1.7-.94-3.3-1.85-4.84A8.08,8.08,0,0,1,200,245.7c.15-1.78.87-3.47.93-5.25a14,14,0,0,0-1-4.84,16.82,16.82,0,0,0-1.62-3.77,8.6,8.6,0,0,0-6.45-3.77c-1.2-.11-2.38.28-3.57.13-1.65-.22-3.21-.64-4.88-.7s-3.36.16-4.45,1.33c-.83.89-1.1,2.19-1.86,3.14-1.08,1.36-3,1.82-4.15,3.08a4.36,4.36,0,0,0-1,4.21c.17.54.44,1,.61,1.57.74,2.22-.23,4.6-.82,6.87a1.13,1.13,0,0,0,0,.58c.09.27.38.42.63.58a3.29,3.29,0,0,1,1.27,2.47,9.73,9.73,0,0,1-.36,2.83c-.56,2.37-1.25,4.9-3.07,6.48a16.89,16.89,0,0,0-1.17-2.28,12.35,12.35,0,0,1-2-6.19v0c0-.11,0-.23,0-.34.15-2.52,1.24-5,1.21-7.47,0-.2,0-.41,0-.61a12.74,12.74,0,0,0-2.36-5.94,12.12,12.12,0,0,0-10.1-6.11c-2.46-.35-4.7-.67-7.18-.84-2.67-.17-5.6-.27-7.71,1.37-2.75,2.14-2.9,6.28-5,9.06-1.25,1.66-3.23,2.93-3.89,4.82a10.56,10.56,0,0,1-.44-1.42l0-.09a13.74,13.74,0,0,0,.54-7.08,8.89,8.89,0,0,0,.08-1.15,4.4,4.4,0,0,0-.14-1.25,7.12,7.12,0,0,0-1.9-2.88,9,9,0,0,0-.94-.91,13.71,13.71,0,0,0-23.38,13.63,3.57,3.57,0,0,1-1,2.11c-.25.26-.58.57-.53.9a.43.43,0,0,0,0,.27.78.78,0,0,0,.23.25,4.11,4.11,0,0,0,2.83.84,11.8,11.8,0,0,0,4.76,6.12,1.55,1.55,0,0,1,0,.22c0,.13.33.39.33.39v1.43s-3.77,4.92-7.26,5.1a7.05,7.05,0,0,0-4.71,2.79,12.19,12.19,0,0,0-2.47,4.25c-.14,1-1.15,5.89-1.15,5.89h29c-.34,1.76-.81,4-.81,4h50.48l-.36-5h6.29v1h29l1.84-3C211.83,264.47,207.09,260.05,201.42,259.56Zm-72.18-9a7.61,7.61,0,0,0,2.08.75,1.27,1.27,0,0,0,.94-.08,1,1,0,0,0,.37-.53l0,0a20.45,20.45,0,0,1,1.64,6.1c0,.2,0,.4,0,.6a8.73,8.73,0,0,1-.73,3.49,66.16,66.16,0,0,1-7.54-4.62l-.16-.06a4.06,4.06,0,0,1,.12.4,1.05,1.05,0,0,1,0,.19c-.16-.53-.31-1.08-.44-1.64l0-.19A11.91,11.91,0,0,0,129.24,250.58Z" transform="translate(-89.8 -22.5)"/><path class="cls-27" d="M112.5,256.09v0Z" transform="translate(-89.8 -22.5)"/><path class="cls-28" d="M112.5,256v0Z" transform="translate(-89.8 -22.5)"/><path class="cls-29" d="M112.14,255.9" transform="translate(-89.8 -22.5)"/><path class="cls-30" d="M112.14,255.93Z" transform="translate(-89.8 -22.5)"/><path class="cls-31" d="M112.14,255.92Z" transform="translate(-89.8 -22.5)"/><path class="cls-18" d="M182.94,227.91c-1.57,0-3.3.16-4.37,1.31-.82.88-1.08,2.15-1.83,3.09-1.06,1.34-2.92,1.79-4.09,3a4.28,4.28,0,0,0-1,4.14c.16.53.42,1,.6,1.54.72,2.2-.22,4.54-.81,6.77a.92.92,0,0,0,0,.57c.09.27.37.41.61.58a3.17,3.17,0,0,1,1.25,2.42,9.46,9.46,0,0,1-.36,2.79c-.57,2.43-1.28,5-3.25,6.56-.83.66-1.94,1.19-2.16,2.23-.26,1.21.91,2.25,2,2.8,3.27,1.62,7.07,1.64,10.65,2.36,3.15.64,6.3,1.84,9.49,1.43a18.63,18.63,0,0,0,4.12-1.18l8.38-3.09a2,2,0,0,0,.66-.33,1.56,1.56,0,0,0,.25-1.82,7.15,7.15,0,0,0-1.21-1.54c-1-1.07-1.69-2.58-1.17-3.92.35-.88,1.18-1.52,1.47-2.43.54-1.67-.93-3.24-1.81-4.76a7.89,7.89,0,0,1-1.07-4.65c.14-1.75.85-3.42.9-5.17a13.89,13.89,0,0,0-1-4.77,16.43,16.43,0,0,0-1.6-3.7,8.48,8.48,0,0,0-6.34-3.72c-1.19-.1-2.35.28-3.52.13C186.13,228.38,184.6,228,182.94,227.91Z" transform="translate(-89.8 -22.5)"/><path class="cls-19" d="M185,273.75s-9.5-6-5.81-12.82a10.72,10.72,0,0,0,1.31-4.46,9.91,9.91,0,0,0,0-1.09v0c0-.19,0-.37-.05-.55a11.18,11.18,0,0,0-2.77-6s15.76-4.6,13.12-.45c-1.22,1.92-.86,3.81,0,5.76.09.21.18.42.28.62.94,2.06,2.26,4.2,2.62,6.51C194.42,266,185,273.75,185,273.75Z" transform="translate(-89.8 -22.5)"/><path class="cls-3" d="M191.09,248.34c-1.22,1.92-.86,3.81,0,5.76a10.62,10.62,0,0,1-10.31.68,11.18,11.18,0,0,0-2.77-6S193.73,244.19,191.09,248.34Z" transform="translate(-89.8 -22.5)"/><circle class="cls-19" cx="95.48" cy="222.45" r="10.63"/><path class="cls-3" d="M180.5,255.39v-.08S180.5,255.36,180.5,255.39Z" transform="translate(-89.8 -22.5)"/><path class="cls-3" d="M185.29,273.75s-9.5-6-5.81-12.82a10.57,10.57,0,0,0,1.31-4.46c.22,1.69,1.39,3.8,3.52,6.72a9.4,9.4,0,0,1,1.44,4.82l.22.15,1-.63a11.11,11.11,0,0,1,1.46-5.35c2.47-3.7,3-5.54,2.87-7.46.95,2.06,2.26,4.19,2.63,6.51C194.71,266,185.29,273.75,185.29,273.75Z" transform="translate(-89.8 -22.5)"/><path class="cls-20" d="M200.51,259.44a14.38,14.38,0,0,1-9.24-4.8c.31,2.05-.18,3.9-2.82,7.85a11,11,0,0,0-1.45,5.35l-1,.63-.21-.15a9.44,9.44,0,0,0-1.45-4.83c-2.64-3.61-3.81-6-3.5-7.87a11.65,11.65,0,0,1-8.56,5.08c-5.65.38-10.4,4.38-10.86,11.69l1.81,2.11H181v1h28.53l1.81-3.3C210.92,264.21,206.17,259.85,200.51,259.44Z" transform="translate(-89.8 -22.5)"/><path class="cls-21" d="M200.51,259.44a14.38,14.38,0,0,1-9.24-4.8c.31,2.05-.18,3.9-2.82,7.85a11,11,0,0,0-1.45,5.35l-1,.63-.21-.15a9.44,9.44,0,0,0-1.45-4.83c-2.64-3.61-3.81-6-3.5-7.87a11.65,11.65,0,0,1-8.56,5.08c-5.65.38-10.4,4.38-10.86,11.69l1.81,2.11H181v1h28.53l1.81-3.3C210.92,264.21,206.17,259.85,200.51,259.44Z" transform="translate(-89.8 -22.5)"/><path class="cls-3" d="M192.47,239.81a8.66,8.66,0,0,1-2.18,3,6.44,6.44,0,0,1-4.49,2.12,6.94,6.94,0,0,0,1.94-3.19c-1.08.63-1.89,1.62-2.91,2.32a3.11,3.11,0,0,1-3.48.34,10.51,10.51,0,0,0,4.35-4.11c-2.44.63-3.69,3.37-5.88,4.6a6.6,6.6,0,0,1-3.41.77,2.68,2.68,0,0,1-2.24-.91,2.58,2.58,0,0,1-.34-1.4,9.57,9.57,0,0,1,2.24-6.11,15.77,15.77,0,0,1,5.21-4,6.85,6.85,0,0,1,2.21-.81,8,8,0,0,1,2.92.28,16.88,16.88,0,0,1,3.63,1.16C192.48,235,193.54,237.17,192.47,239.81Z" transform="translate(-89.8 -22.5)"/><path class="cls-18" d="M192.47,239.66a8.66,8.66,0,0,1-2.18,3,6.44,6.44,0,0,1-4.49,2.12,6.94,6.94,0,0,0,1.94-3.19c-1.08.63-1.89,1.62-2.91,2.32a3.11,3.11,0,0,1-3.48.34,10.51,10.51,0,0,0,4.35-4.11c-2.44.63-3.69,3.37-5.88,4.6a6.6,6.6,0,0,1-3.41.77,2.68,2.68,0,0,1-2.24-.91,2.58,2.58,0,0,1-.34-1.4,9.57,9.57,0,0,1,2.24-6.11,15.93,15.93,0,0,1,5.21-4.06,7.07,7.07,0,0,1,2.21-.8,7.82,7.82,0,0,1,2.92.28,16.88,16.88,0,0,1,3.63,1.16C192.48,234.83,193.54,237,192.47,239.66Z" transform="translate(-89.8 -22.5)"/><circle class="cls-22" cx="29.37" cy="217.74" r="13.49"/><path class="cls-23" d="M131.28,266.22s-12.36,3.16-12.67,3.46-10.4.83-7.46-5.35a22.85,22.85,0,0,0,1.67-8.35c0-.12,0-.25,0-.38a61.46,61.46,0,0,0-.47-9.67s14.32-5.66,13.26,2.94a18,18,0,0,0,.44,6.31c.16.68.34,1.34.55,2A33.68,33.68,0,0,0,131.28,266.22Z" transform="translate(-89.8 -22.5)"/><path class="cls-3" d="M126.06,255.19a11.63,11.63,0,0,1-13.23.42,61.35,61.35,0,0,0-.47-9.67s14.32-5.66,13.26,2.94A18,18,0,0,0,126.06,255.19Z" transform="translate(-89.8 -22.5)"/><circle class="cls-23" cx="29.34" cy="223.13" r="11.61"/><path class="cls-3" d="M131.28,266.22s-12.36,3.16-12.67,3.46-10.4.83-7.46-5.35a22.85,22.85,0,0,0,1.67-8.35c.11,1.57,1,5.35,1.12,6.61a1.43,1.43,0,0,0,0,.22,4.69,4.69,0,0,0,1.49,1.82l0,0a5.5,5.5,0,0,0,6.48.43,29.59,29.59,0,0,0,3-2.13,5.17,5.17,0,0,0,1.81-3.93,8.56,8.56,0,0,0-.15-1.89A33.64,33.64,0,0,0,131.28,266.22Z" transform="translate(-89.8 -22.5)"/><path class="cls-20" d="M146.88,274.5H96.45s1-5.13,1.2-6.18a12.69,12.69,0,0,1,2.59-4.46,7.41,7.41,0,0,1,5-2.93c3.66-.19,7.61-5.35,7.61-5.35h0c.09,1.5,1,5.42,1.14,6.71a.78.78,0,0,0,0,.21,4.65,4.65,0,0,0,1.48,1.82l.05,0a5.55,5.55,0,0,0,6.53.4,28.52,28.52,0,0,0,2.9-2.1,5.13,5.13,0,0,0,1.82-3.92,8.75,8.75,0,0,0-.32-2.6,2.28,2.28,0,0,0-.12-.39l.16.06s6.82,5,13.07,7a6.08,6.08,0,0,1,1.18.48A8.72,8.72,0,0,1,143,265.1a12.94,12.94,0,0,1,2.08,3.2A21.88,21.88,0,0,1,146.88,274.5Z" transform="translate(-89.8 -22.5)"/><path class="cls-21" d="M146.88,274.5H96.45s1-5.13,1.2-6.18a12.69,12.69,0,0,1,2.59-4.46,7.41,7.41,0,0,1,5-2.93c3.66-.19,7.61-5.35,7.61-5.35h0c.09,1.5,1,5.42,1.14,6.71a.78.78,0,0,0,0,.21,4.65,4.65,0,0,0,1.48,1.82l.05,0a5.55,5.55,0,0,0,6.53.4,28.52,28.52,0,0,0,2.9-2.1,5.13,5.13,0,0,0,1.82-3.92,8.75,8.75,0,0,0-.32-2.6,2.28,2.28,0,0,0-.12-.39l.16.06s6.82,5,13.07,7a6.08,6.08,0,0,1,1.18.48A8.72,8.72,0,0,1,143,265.1a12.94,12.94,0,0,1,2.08,3.2A21.88,21.88,0,0,1,146.88,274.5Z" transform="translate(-89.8 -22.5)"/><path class="cls-3" d="M124.72,241.74a4.65,4.65,0,0,0,1.73,3,1.51,1.51,0,0,1,.37.25c.26.28.18.71.14,1.08a4.46,4.46,0,0,0,1.33,3.51,6.58,6.58,0,0,0,3.39,1.74,1.2,1.2,0,0,0,.93-.07,1.09,1.09,0,0,0,.38-.54,4.66,4.66,0,0,0-.09-2.95c-.3-1-.73-1.87-1-2.84-.53-2.32.18-4.71.49-7.07a6,6,0,0,0,0-2.35,7.11,7.11,0,0,0-1.88-2.83,5.93,5.93,0,0,0-1.39-1.21c-1.58-.87-3.63-.1-5.32-.73a17.51,17.51,0,0,1-1.9-1,6.88,6.88,0,0,0-4.5-.41,20.53,20.53,0,0,0-4.31,1.6l-1.06.48c-1.5.7-3.11,1.48-3.92,2.93s-.62,3.52-1.48,5.06a4.28,4.28,0,0,0-.7,1.44,3,3,0,0,0,.19,1.14,9.32,9.32,0,0,1,.48,2.77,3.71,3.71,0,0,1-1,2.57c-.28.28-.66.64-.49,1a.79.79,0,0,0,.23.25,4.08,4.08,0,0,0,3.9.58,2.49,2.49,0,0,0,1.27-1,3.65,3.65,0,0,0,.41-1.07,15.1,15.1,0,0,0,.7-4.15,15.17,15.17,0,0,1,0-2.43,2.14,2.14,0,0,1,1.36-1.84,6.79,6.79,0,0,1,1.8,0c.87,0,1.93-1,2.74-.68s1.24,1.57,1.81,2.08A6.63,6.63,0,0,0,124.72,241.74Z" transform="translate(-89.8 -22.5)"/><path class="cls-22" d="M124.72,241.58a4.6,4.6,0,0,0,1.73,3,1.55,1.55,0,0,1,.37.26c.25.27.18.7.14,1.08a4.48,4.48,0,0,0,1.32,3.5,6.63,6.63,0,0,0,3.4,1.75,1.26,1.26,0,0,0,.92-.07,1.06,1.06,0,0,0,.38-.55,4.56,4.56,0,0,0-.09-2.94c-.29-1-.73-1.87-.95-2.85-.53-2.31.17-4.71.49-7.06a6.24,6.24,0,0,0,0-2.36,7.07,7.07,0,0,0-1.88-2.83,5.69,5.69,0,0,0-1.38-1.21c-1.59-.86-3.63-.09-5.33-.73a19.62,19.62,0,0,1-1.9-1,6.85,6.85,0,0,0-4.49-.41,20.13,20.13,0,0,0-4.31,1.6l-1,.49c-1.5.69-3.11,1.48-3.92,2.92s-.62,3.52-1.48,5.07a4.23,4.23,0,0,0-.7,1.43,3,3,0,0,0,.19,1.14,9.37,9.37,0,0,1,.48,2.77,3.74,3.74,0,0,1-1,2.57c-.28.28-.66.64-.49,1a.92.92,0,0,0,.23.25,4.14,4.14,0,0,0,3.9.58,2.65,2.65,0,0,0,1.27-1,3.82,3.82,0,0,0,.41-1.08,15,15,0,0,0,.7-4.15,15,15,0,0,1,0-2.42,2.15,2.15,0,0,1,1.36-1.85,7.25,7.25,0,0,1,1.8,0c.87,0,1.93-1,2.74-.69s1.24,1.57,1.81,2.08A6.53,6.53,0,0,0,124.72,241.58Z" transform="translate(-89.8 -22.5)"/><rect class="cls-24" x="47.7" y="224" width="26" height="23"/><rect class="cls-21" x="47.7" y="224" width="26" height="23"/><path class="cls-25" d="M159.6,279.5H137.26a11.87,11.87,0,0,1,2.63-5.4,20.19,20.19,0,0,0,3-5.11c.2-.49.38-1,.54-1.49a23.27,23.27,0,0,0,.94-4.55.59.59,0,0,1,0-.13,26.76,26.76,0,0,0,.13-3.23v-.46a24.06,24.06,0,0,0-1-6.85l-.24-.79c-.23-.78-.4-1.21-.4-1.21s.42-.25,1.11-.61l.06,0c2.55-1.31,8.57-4,11.23-2.09l.05,0c.92.71,1.43,2,1.19,4.18v-.32a9.12,9.12,0,0,1,1.05.12c-.15,1.49-.05,4.49-.05,4.49v.24a2.22,2.22,0,0,0,0,1.06v.15a20.49,20.49,0,0,0,0,3.59c.1,1.7.24,3.42.4,5.12.08.72.15,1.44.24,2.15,0,.08,0,.17,0,.25.1.86.2,1.71.3,2.53v.05C158.86,274.45,159.6,279.5,159.6,279.5Z" transform="translate(-89.8 -22.5)"/><path class="cls-3" d="M156.5,251.47v0l1,4.62v.16a11.36,11.36,0,0,1-13,3v-.7a27.48,27.48,0,0,0-1.24-7.36c-.23-.72-.4-1.13-.4-1.13s.42-.23,1.11-.56c2.53-1.22,8.68-3.85,11.33-2C156.23,248.23,156.73,249.44,156.5,251.47Z" transform="translate(-89.8 -22.5)"/><circle class="cls-25" cx="59.18" cy="226.38" r="11.01"/><path class="cls-3" d="M149.56,279.5H126.08s1-5.13,1.2-6.18a12.69,12.69,0,0,1,2.59-4.46,11.4,11.4,0,0,1,7-2.49c4.49-.07,5.8,1.48,6.16,2.62a2.67,2.67,0,0,1,.09,1.19l.85,1.23Z" transform="translate(-89.8 -22.5)"/><path class="cls-20" d="M149.49,279.5H126s1.06-5.13,1.21-6.18a12.69,12.69,0,0,1,2.59-4.46,11.38,11.38,0,0,1,7-2.49c4.49-.07,5.8,1.48,6.15,2.62a2.41,2.41,0,0,1,.09,1.19l.85,1.23Z" transform="translate(-89.8 -22.5)"/><path class="cls-3" d="M175.13,279.5H150.52c1.17-2.5,4.25-9.15,4.42-10.69.07-.6.7-1.16,1.54-1.63a9.06,9.06,0,0,1,.82-.42l0,0,.47-.19a9.37,9.37,0,0,1,6.58.05c2,.77,4.62,1.81,6.65,2.78h0c.52.25,1,.5,1.43.73a5.64,5.64,0,0,1,1.72,1.24,7.66,7.66,0,0,1,.36,2C174.75,274.8,174.94,277,175.13,279.5Z" transform="translate(-89.8 -22.5)"/><path class="cls-20" d="M175.2,279.5H150.59c1.18-2.5,4.25-9.15,4.43-10.69.06-.6.7-1.16,1.54-1.63a7.91,7.91,0,0,1,.82-.42l.05,0,.46-.19a9.4,9.4,0,0,1,6.59.05c2,.77,4.62,1.81,6.64,2.78h0c.52.25,1,.5,1.43.73a5.69,5.69,0,0,1,1.71,1.24,8,8,0,0,1,.37,2C174.82,274.8,175,277,175.2,279.5Z" transform="translate(-89.8 -22.5)"/><path class="cls-3" d="M171.24,267.08c0,.36,0,.71,0,1.07,0,.17,0,.35,0,.52l0,.37,0,.14c-.19,1.68-.53,3.35-.62,5v.24c0,1.58.64,5,.64,5H157c0-.29,0-.58,0-.86s0-.52,0-.78c.22-2.12,1.31-4.11,1.47-6.23v-.09c0-.16,0-.32,0-.48v0a8.58,8.58,0,0,0-.32-2.07l0-.1a19.82,19.82,0,0,0-.69-2l-.05-.13a30.25,30.25,0,0,1-1.06-2.87,7.41,7.41,0,0,1-.33-2.19,2.68,2.68,0,0,1,0-.4c0-.11,0-.22,0-.33s.06-.34.1-.51a11.8,11.8,0,0,1,1.2-2.61h0a7.56,7.56,0,0,0,1.11-2.86,2.3,2.3,0,0,0,0-.37h0a3.87,3.87,0,0,0-.05-.49,8.16,8.16,0,0,0-.78-2l-.09-.2s0,0,0,0a26,26,0,0,1-1.26-4.17c0-.06,0-.12-.05-.18-.08-.35-.17-.7-.27-1-.65-2.37-1.64-4.78-3.86-6.09a4.6,4.6,0,0,0-2.19-.67c-2.83-.09-4.18,2.25-4.69,4.51-.37,1.65-.4,3.38-.88,5,0,.12-.07.23-.12.35l-.06.18c-.21.59-.46,1.18-.73,1.76l0,.06c-.88,1.87-1.9,3.7-1.93,5.58v-.17a3.28,3.28,0,0,0,.14,1.32,6.51,6.51,0,0,0,1.14,2.08l.29.37c.49.6,1,1.17,1.48,1.79v0a6.82,6.82,0,0,1,.88,1.47,5.36,5.36,0,0,1,0,4.14c-.14.31-.29.6-.45.89-.3.51-.63,1-.89,1.54-.08.18-.16.37-.23.55-.57,1.49-.7,3.13-1.17,4.67a4.17,4.17,0,0,1-1.68,2.61H126a50.2,50.2,0,0,0,1.17-5.37,12.79,12.79,0,0,1,2.59-4.47l-.37.31a12.92,12.92,0,0,0-2.52,2.9c0-.11.07-.21.1-.31.22-.63.44-1.26.68-1.88a13.54,13.54,0,0,1,2.76-4.93c.75-.76,1.67-1.35,2.39-2.14a7.68,7.68,0,0,0,1.79-5.23c0-.19,0-.39,0-.59a19.86,19.86,0,0,0-1.61-6,8.69,8.69,0,0,1-.84-3.24c0-.15,0-.3,0-.46.32-2.28,2.63-3.65,4-5.49,2.07-2.74,2.22-6.82,4.92-8.92,2.08-1.62,5-1.52,7.59-1.34,2.45.16,4.65.48,7.07.82a12,12,0,0,1,9.93,6A12.37,12.37,0,0,1,168,244c0,.15,0,.3,0,.45,0,2.47-1.05,4.86-1.19,7.35,0,.11,0,.23,0,.34v0a12.13,12.13,0,0,0,1.92,6.24A16.69,16.69,0,0,1,171.24,267.08Z" transform="translate(-89.8 -22.5)"/><path class="cls-24" d="M171.24,267.08c0,.31,0,.61,0,.92s0,.34,0,.52,0,.34,0,.51c-.19,1.68-.53,3.35-.62,5v.39c.05,1.58.67,5,.67,5H157c0-.29,0-.58,0-.86s0-.62,0-.93c.22-2.12,1.31-4.11,1.47-6.23,0-.15,0-.31,0-.46v-.11a8.21,8.21,0,0,0-.34-2.2,20.07,20.07,0,0,0-.7-2c-.4-1-.82-2-1.11-3a7.84,7.84,0,0,1-.33-2.05,5.09,5.09,0,0,1,0-.55c0-.11,0-.21,0-.32s.06-.35.1-.51a11.17,11.17,0,0,1,1.2-2.61,7.47,7.47,0,0,0,1.12-2.87c0-.07,0-.15,0-.23h0a2.68,2.68,0,0,0-.05-.63,8.07,8.07,0,0,0-.78-2,1.54,1.54,0,0,1-.08-.19,25.57,25.57,0,0,1-1.28-4.21c-.1-.41-.21-.82-.32-1.22-.63-2.33-1.6-4.69-3.74-6a4.58,4.58,0,0,0-2.22-.71c-2.89-.15-4.27,2.21-4.78,4.5-.37,1.65-.4,3.38-.88,5l-.18.53a19,19,0,0,1-.76,1.82c-.9,1.91-2,3.8-1.93,5.73v-.32a7.82,7.82,0,0,0,.15,1.32,6.51,6.51,0,0,0,1.14,2.08l.3.37c.49.6,1,1.18,1.48,1.81a6.82,6.82,0,0,1,.88,1.47,5.31,5.31,0,0,1,0,4.14,7.42,7.42,0,0,1-.45.89c-.3.51-.63,1-.88,1.54a3.76,3.76,0,0,0-.23.55c-.58,1.49-.71,3.13-1.18,4.67A4.44,4.44,0,0,1,141,278.5H126a45.87,45.87,0,0,0,1.21-5.53,12.15,12.15,0,0,1,2.21-4l.38-.46a13,13,0,0,0-2.79,3l-.1.17c.24-.74.5-1.47.77-2.19a13.6,13.6,0,0,1,2.76-4.93c.76-.76,1.68-1.35,2.4-2.14a7.57,7.57,0,0,0,1.78-5.09c0-.24,0-.49,0-.73a20.44,20.44,0,0,0-1.61-6,9.24,9.24,0,0,1-.84-3.09,4.17,4.17,0,0,1,0-.61c.31-2.27,2.62-3.63,4-5.48,2.06-2.74,2.21-6.81,4.92-8.92,2.08-1.61,5-1.51,7.59-1.34,2.44.17,4.65.48,7.07.82a14.32,14.32,0,0,1,6.83,2.47,14.48,14.48,0,0,1,3.1,3.56,12.37,12.37,0,0,1,2.33,5.84c0,.2,0,.41,0,.61,0,2.41-1.05,4.76-1.19,7.19,0,.17,0,.33,0,.5v0a12.24,12.24,0,0,0,1.92,6.08A16.69,16.69,0,0,1,171.24,267.08Z" transform="translate(-89.8 -22.5)"/><path class="cls-11" d="M257.24,37.81a26.69,26.69,0,0,1,.75,3.93c0,4.35-5.27,7-6.08,11.31-.48,2.55.76,5.14,2.52,7a44.28,44.28,0,0,0,6.05,4.82,38.81,38.81,0,0,1,12.71,16.8,15.9,15.9,0,0,1,1.11,4.16,24.8,24.8,0,0,0,.3,3.11c1,4,5.86,5.6,10,5.86a43.78,43.78,0,0,0,19.49-3.26,9.11,9.11,0,0,1,4.31-1.07,9,9,0,0,1,3.29,1.36,43.66,43.66,0,0,0,9.75,4,13.39,13.39,0,0,0,5.78.57c5.78-1,8.85-8,14.51-9.55,3.92-1.06,8,.79,11.52,2.82s7.14,4.37,11.2,4.38c5.42,0,9.87-4.09,13.54-8.07a8.22,8.22,0,0,0,1.92-2.78c.75-2.19-.46-4.64-2.24-6.11a22.27,22.27,0,0,0-6.19-3,54.1,54.1,0,0,1-10.37-5.41,20.37,20.37,0,0,1-5.57-5.09,30.55,30.55,0,0,1-2.81-5.88c-1.82-4.41-4.39-8.89-8.68-11-3.51-1.7-7.58-1.51-11.47-1.55-5.74-.06-11.62-.75-16.7-3.41-4.29-2.24-7.82-5.77-12.17-7.89-6.93-3.36-14.86-2.7-22.32-2.58-3.59.07-7.86.42-11.31-.75-2.54-.87-3.86-2.65-6.78-1.93A8.21,8.21,0,0,0,257.24,37.81Z" transform="translate(-89.8 -22.5)"/><path class="cls-32" d="M363.42,69.56a2.87,2.87,0,0,1,.05-1.83c.35-.9,1.19-1.55,1.49-2.46.55-1.7-.94-3.3-1.85-4.84A8.08,8.08,0,0,1,362,55.7c.15-1.78.87-3.47.93-5.25a14,14,0,0,0-1-4.84,16.82,16.82,0,0,0-1.62-3.77,8.6,8.6,0,0,0-6.45-3.77c-1.2-.11-2.38.28-3.57.13-1.65-.22-3.21-.64-4.88-.7s-3.36.16-4.45,1.33c-.83.89-1.1,2.19-1.86,3.14-1.08,1.36-3,1.82-4.15,3.08a4.36,4.36,0,0,0-1,4.21c.17.54.44,1,.61,1.57.74,2.22-.23,4.6-.82,6.87a1.13,1.13,0,0,0,0,.58c.09.27.38.42.63.58a3.29,3.29,0,0,1,1.27,2.47,9.73,9.73,0,0,1-.36,2.83c-.56,2.37-1.25,4.9-3.07,6.48A16.89,16.89,0,0,0,331,68.36a12.35,12.35,0,0,1-2-6.19v0c0-.11,0-.23,0-.34.15-2.52,1.24-5,1.21-7.47,0-.2,0-.41,0-.61a12.74,12.74,0,0,0-2.36-5.94,14.61,14.61,0,0,0-3.16-3.62,14.61,14.61,0,0,0-6.94-2.49c-2.46-.35-4.7-.67-7.18-.84-2.67-.17-5.6-.27-7.71,1.37-2.75,2.14-2.9,6.28-5,9.06-1.25,1.66-3.23,2.93-3.89,4.82a10.56,10.56,0,0,1-.44-1.42l0-.09a13.74,13.74,0,0,0,.54-7.08,8.89,8.89,0,0,0,.08-1.15A4.4,4.4,0,0,0,294,45.1a7.12,7.12,0,0,0-1.9-2.88,9,9,0,0,0-.94-.91,13.71,13.71,0,0,0-23.38,13.63,3.57,3.57,0,0,1-1,2.11c-.25.26-.58.57-.53.9a.43.43,0,0,0,0,.27.78.78,0,0,0,.23.25,4.11,4.11,0,0,0,2.83.84,11.8,11.8,0,0,0,4.76,6.12,1.55,1.55,0,0,1,0,.22c0,.13.33.39.33.39v1.43s-3.77,4.92-7.26,5.1a7.05,7.05,0,0,0-4.71,2.79,12.19,12.19,0,0,0-2.47,4.25c-.14,1-1.15,5.89-1.15,5.89h29c-.34,1.76-.81,4-.81,4h50.48l-.36-5h6.29v1h29l1.84-3C373.83,74.47,369.09,70.05,363.42,69.56Zm-72.18-9a7.61,7.61,0,0,0,2.08.75,1.27,1.27,0,0,0,.94-.08,1,1,0,0,0,.37-.53l0,0a20.45,20.45,0,0,1,1.64,6.1c0,.2,0,.4,0,.6a8.73,8.73,0,0,1-.73,3.49A66.16,66.16,0,0,1,288,66.32l-.16-.06a4.06,4.06,0,0,1,.12.4,1.05,1.05,0,0,1,.05.19c-.16-.53-.31-1.08-.44-1.64l-.05-.19A11.91,11.91,0,0,0,291.24,60.58Z" transform="translate(-89.8 -22.5)"/><path class="cls-33" d="M274.5,66.09v0Z" transform="translate(-89.8 -22.5)"/><path class="cls-34" d="M274.5,66v0Z" transform="translate(-89.8 -22.5)"/><path class="cls-35" d="M274.14,65.9" transform="translate(-89.8 -22.5)"/><path class="cls-36" d="M274.14,65.93Z" transform="translate(-89.8 -22.5)"/><path class="cls-37" d="M274.14,65.92Z" transform="translate(-89.8 -22.5)"/><path class="cls-18" d="M344.94,37.91c-1.57,0-3.3.16-4.37,1.31-.82.88-1.08,2.15-1.83,3.09-1.06,1.34-2.92,1.79-4.09,3a4.28,4.28,0,0,0-1,4.14c.16.53.42,1,.6,1.54.72,2.2-.22,4.54-.81,6.77a.92.92,0,0,0,0,.57c.09.27.37.41.61.58a3.17,3.17,0,0,1,1.25,2.42,9.46,9.46,0,0,1-.36,2.79c-.57,2.43-1.28,5-3.25,6.56-.83.66-1.94,1.19-2.16,2.23-.26,1.21.91,2.25,2,2.8,3.27,1.62,7.07,1.64,10.65,2.36,3.15.64,6.3,1.84,9.49,1.43a18.63,18.63,0,0,0,4.12-1.18l8.38-3.09a2,2,0,0,0,.66-.33,1.56,1.56,0,0,0,.25-1.82,7.15,7.15,0,0,0-1.21-1.54c-1-1.07-1.69-2.58-1.17-3.92.35-.88,1.18-1.52,1.47-2.43.54-1.67-.93-3.24-1.81-4.76a7.89,7.89,0,0,1-1.07-4.65c.14-1.75.85-3.42.9-5.17a13.89,13.89,0,0,0-1-4.77,16.43,16.43,0,0,0-1.6-3.7,8.48,8.48,0,0,0-6.34-3.72c-1.19-.1-2.35.28-3.52.13C348.13,38.38,346.6,38,344.94,37.91Z" transform="translate(-89.8 -22.5)"/><path class="cls-19" d="M347,83.75s-9.5-6-5.81-12.82a10.72,10.72,0,0,0,1.31-4.46,9.91,9.91,0,0,0,0-1.09v0c0-.19,0-.37-.05-.55a11.18,11.18,0,0,0-2.77-6s15.76-4.6,13.12-.45c-1.22,1.92-.86,3.81,0,5.76.09.21.18.42.28.62.94,2.06,2.26,4.2,2.62,6.51C356.42,76,347,83.75,347,83.75Z" transform="translate(-89.8 -22.5)"/><path class="cls-3" d="M353.09,58.34c-1.22,1.92-.86,3.81,0,5.76a10.62,10.62,0,0,1-10.31.68,11.18,11.18,0,0,0-2.77-6S355.73,54.19,353.09,58.34Z" transform="translate(-89.8 -22.5)"/><circle class="cls-19" cx="257.48" cy="32.45" r="10.63"/><path class="cls-3" d="M342.5,65.39v-.08S342.5,65.36,342.5,65.39Z" transform="translate(-89.8 -22.5)"/><path class="cls-3" d="M347.29,83.75s-9.5-6-5.81-12.82a10.57,10.57,0,0,0,1.31-4.46c.22,1.69,1.39,3.8,3.52,6.72A9.4,9.4,0,0,1,347.75,78l.22.15,1-.63a11.11,11.11,0,0,1,1.46-5.35c2.47-3.7,3.05-5.54,2.87-7.46.95,2.06,2.26,4.19,2.63,6.51C356.71,76,347.29,83.75,347.29,83.75Z" transform="translate(-89.8 -22.5)"/><path class="cls-20" d="M362.51,69.44a14.38,14.38,0,0,1-9.24-4.8c.31,2-.18,3.9-2.82,7.85A11,11,0,0,0,349,77.84l-1,.63-.21-.15a9.44,9.44,0,0,0-1.45-4.83c-2.64-3.61-3.81-6-3.5-7.87a11.65,11.65,0,0,1-8.56,5.08c-5.65.38-10.4,4.38-10.86,11.69l1.81,2.11H343v1h28.53l1.81-3.3C372.92,74.21,368.17,69.85,362.51,69.44Z" transform="translate(-89.8 -22.5)"/><path class="cls-21" d="M362.51,69.44a14.38,14.38,0,0,1-9.24-4.8c.31,2-.18,3.9-2.82,7.85A11,11,0,0,0,349,77.84l-1,.63-.21-.15a9.44,9.44,0,0,0-1.45-4.83c-2.64-3.61-3.81-6-3.5-7.87a11.65,11.65,0,0,1-8.56,5.08c-5.65.38-10.4,4.38-10.86,11.69l1.81,2.11H343v1h28.53l1.81-3.3C372.92,74.21,368.17,69.85,362.51,69.44Z" transform="translate(-89.8 -22.5)"/><path class="cls-3" d="M354.47,49.81a8.66,8.66,0,0,1-2.18,3,6.44,6.44,0,0,1-4.49,2.12,6.94,6.94,0,0,0,1.94-3.19c-1.08.63-1.89,1.62-2.91,2.32a3.11,3.11,0,0,1-3.48.34,10.51,10.51,0,0,0,4.35-4.11c-2.44.63-3.69,3.37-5.88,4.6a6.6,6.6,0,0,1-3.41.77,2.68,2.68,0,0,1-2.24-.91,2.58,2.58,0,0,1-.34-1.4,9.57,9.57,0,0,1,2.24-6.11,15.77,15.77,0,0,1,5.21-4.05,6.85,6.85,0,0,1,2.21-.81,8,8,0,0,1,2.92.28A16.88,16.88,0,0,1,352,43.78C354.48,45,355.54,47.17,354.47,49.81Z" transform="translate(-89.8 -22.5)"/><path class="cls-18" d="M354.47,49.66a8.66,8.66,0,0,1-2.18,3,6.44,6.44,0,0,1-4.49,2.12,6.94,6.94,0,0,0,1.94-3.19c-1.08.63-1.89,1.62-2.91,2.32a3.11,3.11,0,0,1-3.48.34,10.51,10.51,0,0,0,4.35-4.11c-2.44.63-3.69,3.37-5.88,4.6a6.6,6.6,0,0,1-3.41.77,2.68,2.68,0,0,1-2.24-.91,2.58,2.58,0,0,1-.34-1.4,9.57,9.57,0,0,1,2.24-6.11A15.93,15.93,0,0,1,343.28,43a7.07,7.07,0,0,1,2.21-.8,7.82,7.82,0,0,1,2.92.28A16.88,16.88,0,0,1,352,43.63C354.48,44.83,355.54,47,354.47,49.66Z" transform="translate(-89.8 -22.5)"/><circle class="cls-22" cx="191.37" cy="27.74" r="13.49"/><path class="cls-23" d="M293.28,76.22s-12.36,3.16-12.67,3.46-10.4.83-7.46-5.35A22.85,22.85,0,0,0,274.82,66c0-.12,0-.25,0-.38a61.46,61.46,0,0,0-.47-9.67s14.32-5.66,13.26,2.94a18,18,0,0,0,.44,6.31c.16.68.34,1.34.55,2A33.68,33.68,0,0,0,293.28,76.22Z" transform="translate(-89.8 -22.5)"/><path class="cls-3" d="M288.06,65.19a11.63,11.63,0,0,1-13.23.42,61.35,61.35,0,0,0-.47-9.67s14.32-5.66,13.26,2.94A18,18,0,0,0,288.06,65.19Z" transform="translate(-89.8 -22.5)"/><circle class="cls-23" cx="191.34" cy="33.13" r="11.61"/><path class="cls-3" d="M293.28,76.22s-12.36,3.16-12.67,3.46-10.4.83-7.46-5.35A22.85,22.85,0,0,0,274.82,66c.11,1.57,1,5.35,1.12,6.61a1.43,1.43,0,0,0,0,.22,4.69,4.69,0,0,0,1.49,1.82l0,0a5.5,5.5,0,0,0,6.48.43A29.59,29.59,0,0,0,287,73,5.17,5.17,0,0,0,288.76,69a8.56,8.56,0,0,0-.15-1.89A33.64,33.64,0,0,0,293.28,76.22Z" transform="translate(-89.8 -22.5)"/><path class="cls-20" d="M308.88,84.5H258.45s1.05-5.13,1.2-6.18a12.69,12.69,0,0,1,2.59-4.46,7.41,7.41,0,0,1,4.95-2.93c3.66-.19,7.61-5.35,7.61-5.35h0c.09,1.5,1,5.42,1.14,6.71a.78.78,0,0,0,0,.21,4.65,4.65,0,0,0,1.48,1.82l.05,0a5.55,5.55,0,0,0,6.53.4,28.52,28.52,0,0,0,2.9-2.1,5.13,5.13,0,0,0,1.82-3.92,8.75,8.75,0,0,0-.32-2.6,2.28,2.28,0,0,0-.12-.39l.16.06s6.82,5,13.07,7a6.08,6.08,0,0,1,1.18.48A8.72,8.72,0,0,1,305,75.1a12.94,12.94,0,0,1,2.08,3.2A21.88,21.88,0,0,1,308.88,84.5Z" transform="translate(-89.8 -22.5)"/><path class="cls-21" d="M308.88,84.5H258.45s1.05-5.13,1.2-6.18a12.69,12.69,0,0,1,2.59-4.46,7.41,7.41,0,0,1,4.95-2.93c3.66-.19,7.61-5.35,7.61-5.35h0c.09,1.5,1,5.42,1.14,6.71a.78.78,0,0,0,0,.21,4.65,4.65,0,0,0,1.48,1.82l.05,0a5.55,5.55,0,0,0,6.53.4,28.52,28.52,0,0,0,2.9-2.1,5.13,5.13,0,0,0,1.82-3.92,8.75,8.75,0,0,0-.32-2.6,2.28,2.28,0,0,0-.12-.39l.16.06s6.82,5,13.07,7a6.08,6.08,0,0,1,1.18.48A8.72,8.72,0,0,1,305,75.1a12.94,12.94,0,0,1,2.08,3.2A21.88,21.88,0,0,1,308.88,84.5Z" transform="translate(-89.8 -22.5)"/><path class="cls-3" d="M286.72,51.74a4.65,4.65,0,0,0,1.73,3,1.51,1.51,0,0,1,.37.25c.26.28.18.71.14,1.08a4.46,4.46,0,0,0,1.33,3.51,6.58,6.58,0,0,0,3.39,1.74,1.2,1.2,0,0,0,.93-.07,1.09,1.09,0,0,0,.38-.54,4.66,4.66,0,0,0-.09-3c-.3-.95-.73-1.87-1-2.84-.53-2.32.18-4.71.49-7.07a6,6,0,0,0,0-2.35,7.11,7.11,0,0,0-1.88-2.83,5.93,5.93,0,0,0-1.39-1.21c-1.58-.87-3.63-.1-5.32-.73a17.51,17.51,0,0,1-1.9-1,6.88,6.88,0,0,0-4.5-.41,20.53,20.53,0,0,0-4.31,1.6L274,41.4c-1.5.7-3.11,1.48-3.92,2.93s-.62,3.52-1.48,5.06a4.28,4.28,0,0,0-.7,1.44,3,3,0,0,0,.19,1.14,9.32,9.32,0,0,1,.48,2.77,3.71,3.71,0,0,1-1,2.57c-.28.28-.66.64-.49,1a.79.79,0,0,0,.23.25,4.08,4.08,0,0,0,3.9.58,2.49,2.49,0,0,0,1.27-1,3.65,3.65,0,0,0,.41-1.07,15.1,15.1,0,0,0,.7-4.15,15.17,15.17,0,0,1,0-2.43A2.14,2.14,0,0,1,275,48.68a6.79,6.79,0,0,1,1.8,0c.87,0,1.93-1,2.74-.68s1.24,1.57,1.81,2.08A6.63,6.63,0,0,0,286.72,51.74Z" transform="translate(-89.8 -22.5)"/><path class="cls-22" d="M286.72,51.58a4.6,4.6,0,0,0,1.73,3,1.55,1.55,0,0,1,.37.26c.25.27.18.7.14,1.08a4.48,4.48,0,0,0,1.32,3.5,6.63,6.63,0,0,0,3.4,1.75,1.26,1.26,0,0,0,.92-.07,1.06,1.06,0,0,0,.38-.55,4.56,4.56,0,0,0-.09-2.94c-.29-1-.73-1.87-.95-2.85-.53-2.31.17-4.71.49-7.06a6.24,6.24,0,0,0,0-2.36,7.07,7.07,0,0,0-1.88-2.83,5.69,5.69,0,0,0-1.38-1.21c-1.59-.86-3.63-.09-5.33-.73a19.62,19.62,0,0,1-1.9-1,6.85,6.85,0,0,0-4.49-.41,20.13,20.13,0,0,0-4.31,1.6l-1.05.49c-1.5.69-3.11,1.48-3.92,2.92s-.62,3.52-1.48,5.07a4.23,4.23,0,0,0-.7,1.43,3,3,0,0,0,.19,1.14,9.37,9.37,0,0,1,.48,2.77,3.74,3.74,0,0,1-1,2.57c-.28.28-.66.64-.49,1a.92.92,0,0,0,.23.25,4.14,4.14,0,0,0,3.9.58,2.65,2.65,0,0,0,1.27-1,3.82,3.82,0,0,0,.41-1.08,15,15,0,0,0,.7-4.15,15,15,0,0,1,0-2.42A2.15,2.15,0,0,1,275,48.52a7.25,7.25,0,0,1,1.8,0c.87,0,1.93-1,2.74-.69s1.24,1.57,1.81,2.08A6.53,6.53,0,0,0,286.72,51.58Z" transform="translate(-89.8 -22.5)"/><rect class="cls-24" x="209.7" y="34" width="26" height="23"/><rect class="cls-21" x="209.7" y="34" width="26" height="23"/><path class="cls-25" d="M321.6,89.5H299.26a11.87,11.87,0,0,1,2.63-5.4,20.19,20.19,0,0,0,3-5.11c.2-.49.38-1,.54-1.49a23.27,23.27,0,0,0,.94-4.55.59.59,0,0,1,0-.13,26.76,26.76,0,0,0,.13-3.23v-.46a24.06,24.06,0,0,0-1-6.85l-.24-.79c-.23-.78-.4-1.21-.4-1.21s.42-.25,1.11-.61l.06,0c2.55-1.31,8.57-4,11.23-2.09l.05,0c.92.71,1.43,2,1.19,4.18v-.32a9.12,9.12,0,0,1,1.05.12c-.15,1.49-.05,4.49-.05,4.49v.24a2.22,2.22,0,0,0,0,1.06v.15a20.49,20.49,0,0,0,0,3.59c.1,1.7.24,3.42.4,5.12.08.72.15,1.44.24,2.15,0,.08,0,.17,0,.25.1.86.2,1.71.3,2.53v0C320.86,84.45,321.6,89.5,321.6,89.5Z" transform="translate(-89.8 -22.5)"/><path class="cls-3" d="M318.5,61.47v0l1,4.62v.16a11.36,11.36,0,0,1-13,3v-.7a27.48,27.48,0,0,0-1.24-7.36c-.23-.72-.4-1.13-.4-1.13s.42-.23,1.11-.56c2.53-1.22,8.68-3.85,11.33-2C318.23,58.23,318.73,59.44,318.5,61.47Z" transform="translate(-89.8 -22.5)"/><circle class="cls-25" cx="221.18" cy="36.38" r="11.01"/><path class="cls-3" d="M311.56,89.5H288.08s1.05-5.13,1.2-6.18a12.69,12.69,0,0,1,2.59-4.46,11.4,11.4,0,0,1,7-2.49c4.49-.07,5.8,1.48,6.16,2.62a2.67,2.67,0,0,1,.09,1.19l.85,1.23Z" transform="translate(-89.8 -22.5)"/><path class="cls-20" d="M311.49,89.5H288s1.06-5.13,1.21-6.18a12.69,12.69,0,0,1,2.59-4.46,11.38,11.38,0,0,1,7-2.49c4.49-.07,5.8,1.48,6.15,2.62a2.41,2.41,0,0,1,.09,1.19l.85,1.23Z" transform="translate(-89.8 -22.5)"/><path class="cls-3" d="M337.13,89.5H312.52c1.17-2.5,4.25-9.15,4.42-10.69.07-.6.7-1.16,1.54-1.63a9.06,9.06,0,0,1,.82-.42l.05,0,.47-.19a9.37,9.37,0,0,1,6.58,0c2,.77,4.62,1.81,6.65,2.78h0c.52.25,1,.5,1.43.73a5.64,5.64,0,0,1,1.72,1.24,7.66,7.66,0,0,1,.36,2C336.75,84.8,336.94,87,337.13,89.5Z" transform="translate(-89.8 -22.5)"/><path class="cls-20" d="M337.2,89.5H312.59c1.18-2.5,4.25-9.15,4.43-10.69.06-.6.7-1.16,1.54-1.63a7.91,7.91,0,0,1,.82-.42l.05,0,.46-.19a9.4,9.4,0,0,1,6.59,0c2,.77,4.62,1.81,6.64,2.78h0c.52.25,1,.5,1.43.73a5.69,5.69,0,0,1,1.71,1.24,8,8,0,0,1,.37,2C336.82,84.8,337,87,337.2,89.5Z" transform="translate(-89.8 -22.5)"/><path class="cls-3" d="M333.24,77.08c0,.36,0,.71,0,1.07,0,.17,0,.35,0,.52l0,.37,0,.14c-.19,1.68-.53,3.35-.62,5v.24c0,1.58.64,5,.64,5H319c0-.29,0-.58,0-.86s0-.52,0-.78c.22-2.12,1.31-4.11,1.47-6.23v-.09c0-.16,0-.32,0-.48v0a8.58,8.58,0,0,0-.32-2.07l0-.1a19.82,19.82,0,0,0-.69-2l0-.13a30.25,30.25,0,0,1-1.06-2.87A7.41,7.41,0,0,1,318,71.7a2.68,2.68,0,0,1,0-.4c0-.11,0-.22,0-.33s.06-.34.1-.51a11.8,11.8,0,0,1,1.2-2.61h0A7.56,7.56,0,0,0,320.48,65a2.3,2.3,0,0,0,0-.37h0a3.87,3.87,0,0,0-.05-.49,8.16,8.16,0,0,0-.78-2l-.09-.2s0,0,0,0a26,26,0,0,1-1.26-4.17c0-.06,0-.12-.05-.18-.08-.35-.17-.7-.27-1-.65-2.37-1.64-4.78-3.86-6.09a4.6,4.6,0,0,0-2.19-.67c-2.83-.09-4.18,2.25-4.69,4.51-.37,1.65-.4,3.38-.88,5,0,.12-.07.23-.12.35l-.06.18c-.21.59-.46,1.18-.73,1.76l0,.06c-.88,1.87-1.9,3.7-1.93,5.58v-.17a3.28,3.28,0,0,0,.14,1.32,6.51,6.51,0,0,0,1.14,2.08l.29.37c.49.6,1,1.17,1.48,1.79v0a6.82,6.82,0,0,1,.88,1.47,5.36,5.36,0,0,1,0,4.14c-.14.31-.29.6-.45.89-.3.51-.63,1-.89,1.54-.08.18-.16.37-.23.55-.57,1.49-.7,3.13-1.17,4.67a4.17,4.17,0,0,1-1.68,2.61H288a50.2,50.2,0,0,0,1.17-5.37,12.79,12.79,0,0,1,2.59-4.47l-.37.31a12.92,12.92,0,0,0-2.52,2.9c0-.11.07-.21.1-.31.22-.63.44-1.26.68-1.88a13.54,13.54,0,0,1,2.76-4.93c.75-.76,1.67-1.35,2.39-2.14a7.68,7.68,0,0,0,1.79-5.23c0-.19,0-.39,0-.59a19.86,19.86,0,0,0-1.61-6,8.69,8.69,0,0,1-.84-3.24c0-.15,0-.3,0-.46.32-2.28,2.63-3.65,4-5.49,2.07-2.74,2.22-6.82,4.92-8.92,2.08-1.62,5-1.52,7.59-1.34,2.45.16,4.65.48,7.07.82a14.32,14.32,0,0,1,6.83,2.47,14.3,14.3,0,0,1,3.1,3.56A12.37,12.37,0,0,1,330,54c0,.15,0,.3,0,.45,0,2.47-1.05,4.86-1.19,7.35,0,.11,0,.23,0,.34v0a12.13,12.13,0,0,0,1.92,6.24A16.69,16.69,0,0,1,333.24,77.08Z" transform="translate(-89.8 -22.5)"/><path class="cls-24" d="M333.24,77.08c0,.31,0,.61,0,.92s0,.34,0,.52,0,.34-.05.51c-.19,1.68-.53,3.35-.62,5v.39c.05,1.58.67,5,.67,5H319c0-.29,0-.58,0-.86s0-.62,0-.93c.22-2.12,1.31-4.11,1.47-6.23,0-.15,0-.31,0-.46v-.11a8.21,8.21,0,0,0-.34-2.2,20.07,20.07,0,0,0-.7-2c-.4-1-.82-2-1.11-3a7.84,7.84,0,0,1-.33-2,5.09,5.09,0,0,1,0-.55c0-.11,0-.21,0-.32s.06-.35.1-.51a11.17,11.17,0,0,1,1.2-2.61,7.47,7.47,0,0,0,1.12-2.87c0-.07,0-.15,0-.23h0a2.68,2.68,0,0,0-.05-.63,8.07,8.07,0,0,0-.78-2,1.54,1.54,0,0,1-.08-.19,25.57,25.57,0,0,1-1.28-4.21c-.1-.41-.21-.82-.32-1.22-.63-2.33-1.6-4.69-3.74-6a4.58,4.58,0,0,0-2.22-.71c-2.89-.15-4.27,2.21-4.78,4.5-.37,1.65-.4,3.38-.88,5l-.18.53a19,19,0,0,1-.76,1.82c-.9,1.91-1.95,3.8-1.93,5.73V66.9a7.82,7.82,0,0,0,.15,1.32,6.51,6.51,0,0,0,1.14,2.08l.3.37c.49.6,1,1.18,1.48,1.81a6.82,6.82,0,0,1,.88,1.47,5.31,5.31,0,0,1,0,4.14A7.42,7.42,0,0,1,307,79c-.3.51-.63,1-.88,1.54a3.76,3.76,0,0,0-.23.55c-.58,1.49-.71,3.13-1.18,4.67A4.44,4.44,0,0,1,303,88.5H288A45.87,45.87,0,0,0,289.21,83a12.15,12.15,0,0,1,2.21-4l.38-.46a13,13,0,0,0-2.79,3l-.1.17c.24-.74.5-1.47.77-2.19a13.6,13.6,0,0,1,2.76-4.93c.76-.76,1.68-1.35,2.4-2.14a7.57,7.57,0,0,0,1.78-5.09c0-.24,0-.49,0-.73a20.44,20.44,0,0,0-1.61-6,9.24,9.24,0,0,1-.84-3.09,4.17,4.17,0,0,1,0-.61c.31-2.27,2.62-3.63,4-5.48,2.06-2.74,2.21-6.81,4.92-8.92,2.08-1.61,5-1.51,7.59-1.34,2.44.17,4.65.48,7.07.82a14.32,14.32,0,0,1,6.83,2.47,14.48,14.48,0,0,1,3.1,3.56A12.37,12.37,0,0,1,330,53.88c0,.2,0,.41,0,.61,0,2.41-1.05,4.76-1.19,7.19,0,.17,0,.33,0,.5v0a12.24,12.24,0,0,0,1.92,6.08A16.69,16.69,0,0,1,333.24,77.08Z" transform="translate(-89.8 -22.5)"/><path class="cls-11" d="M912.24,250.81a26.69,26.69,0,0,1,.75,3.93c0,4.35-5.27,7-6.08,11.31-.48,2.55.76,5.14,2.52,7a44.28,44.28,0,0,0,6.05,4.82,38.81,38.81,0,0,1,12.71,16.8,15.9,15.9,0,0,1,1.11,4.16,24.8,24.8,0,0,0,.3,3.11c1,4,5.86,5.6,10,5.86a43.78,43.78,0,0,0,19.49-3.26,9.11,9.11,0,0,1,4.31-1.07,9,9,0,0,1,3.29,1.36,43.66,43.66,0,0,0,9.75,4,13.39,13.39,0,0,0,5.78.57c5.78-1,8.85-8,14.51-9.55,3.92-1.06,8,.79,11.52,2.82s7.14,4.37,11.2,4.38c5.42,0,9.87-4.09,13.54-8.07a8.22,8.22,0,0,0,1.92-2.78c.75-2.19-.46-4.64-2.24-6.11a22.27,22.27,0,0,0-6.19-3,54.1,54.1,0,0,1-10.37-5.41,20.37,20.37,0,0,1-5.57-5.09,30.55,30.55,0,0,1-2.81-5.88c-1.82-4.41-4.39-8.89-8.68-11-3.51-1.7-7.58-1.51-11.47-1.55-5.74-.06-11.62-.75-16.7-3.41-4.29-2.24-7.82-5.77-12.17-7.89-6.93-3.36-14.86-2.7-22.32-2.58-3.59.07-7.86.42-11.31-.75-2.54-.87-3.86-2.65-6.78-1.93A8.21,8.21,0,0,0,912.24,250.81Z" transform="translate(-89.8 -22.5)"/><path class="cls-38" d="M1018.42,282.56a2.87,2.87,0,0,1,.05-1.83c.35-.9,1.19-1.55,1.49-2.46.55-1.7-.94-3.3-1.85-4.84a8.08,8.08,0,0,1-1.09-4.73c.15-1.78.87-3.47.93-5.25a14,14,0,0,0-1-4.84,16.82,16.82,0,0,0-1.62-3.77,8.6,8.6,0,0,0-6.45-3.77c-1.2-.11-2.38.28-3.57.13-1.65-.22-3.21-.64-4.88-.7s-3.36.16-4.45,1.33c-.83.89-1.1,2.19-1.86,3.14-1.08,1.36-3,1.82-4.15,3.08a4.36,4.36,0,0,0-1,4.21c.17.54.44,1,.61,1.57.74,2.22-.23,4.6-.82,6.87a1.13,1.13,0,0,0,0,.58c.09.27.38.42.63.58a3.29,3.29,0,0,1,1.27,2.47,9.73,9.73,0,0,1-.36,2.83c-.56,2.37-1.25,4.9-3.07,6.48a16.89,16.89,0,0,0-1.17-2.28,12.35,12.35,0,0,1-2-6.19v0c0-.11,0-.23,0-.34.15-2.52,1.24-5,1.21-7.47,0-.2,0-.41,0-.61a12.74,12.74,0,0,0-2.36-5.94,12.12,12.12,0,0,0-10.1-6.11c-2.46-.35-4.7-.67-7.18-.84-2.67-.17-5.6-.27-7.71,1.37-2.75,2.14-2.9,6.28-5,9.06-1.25,1.66-3.23,2.93-3.89,4.82a10.56,10.56,0,0,1-.44-1.42l0-.09a13.74,13.74,0,0,0,.54-7.08,8.89,8.89,0,0,0,.08-1.15,4.4,4.4,0,0,0-.14-1.25,7.12,7.12,0,0,0-1.9-2.88,9,9,0,0,0-.94-.91,13.71,13.71,0,0,0-23.38,13.63,3.57,3.57,0,0,1-1,2.11c-.25.26-.58.57-.53.9a.43.43,0,0,0,0,.27.78.78,0,0,0,.23.25,4.11,4.11,0,0,0,2.83.84,11.8,11.8,0,0,0,4.76,6.12,1.55,1.55,0,0,1,0,.22c0,.13.33.39.33.39v1.43s-3.77,4.92-7.26,5.1a7.05,7.05,0,0,0-4.71,2.79,12.19,12.19,0,0,0-2.47,4.25c-.14,1-1.15,5.89-1.15,5.89h29c-.34,1.76-.81,4-.81,4h50.48l-.36-5h6.29v1h29l1.84-3C1028.83,287.47,1024.09,283.05,1018.42,282.56Zm-72.18-9a7.61,7.61,0,0,0,2.08.75,1.27,1.27,0,0,0,.94-.08,1,1,0,0,0,.37-.53l0,0a20.45,20.45,0,0,1,1.64,6.1c0,.2,0,.4,0,.6a8.73,8.73,0,0,1-.73,3.49,66.16,66.16,0,0,1-7.54-4.62l-.16-.06a4.06,4.06,0,0,1,.12.4,1.05,1.05,0,0,1,0,.19c-.16-.53-.31-1.08-.44-1.64l-.05-.19A11.91,11.91,0,0,0,946.24,273.58Z" transform="translate(-89.8 -22.5)"/><path class="cls-39" d="M929.5,279.09v0Z" transform="translate(-89.8 -22.5)"/><path class="cls-40" d="M929.5,279v0Z" transform="translate(-89.8 -22.5)"/><path class="cls-41" d="M929.14,278.9" transform="translate(-89.8 -22.5)"/><path class="cls-42" d="M929.14,278.93Z" transform="translate(-89.8 -22.5)"/><path class="cls-43" d="M929.14,278.92Z" transform="translate(-89.8 -22.5)"/><path class="cls-18" d="M999.94,250.91c-1.57,0-3.3.16-4.37,1.31-.82.88-1.08,2.15-1.83,3.09-1.06,1.34-2.92,1.79-4.09,3a4.28,4.28,0,0,0-1,4.14c.16.53.42,1,.6,1.54.72,2.2-.22,4.54-.81,6.77a.92.92,0,0,0,0,.57c.09.27.37.41.61.58a3.17,3.17,0,0,1,1.25,2.42,9.46,9.46,0,0,1-.36,2.79c-.57,2.43-1.28,5-3.25,6.56-.83.66-1.94,1.19-2.16,2.23-.26,1.21.91,2.25,2,2.8,3.27,1.62,7.07,1.64,10.65,2.36,3.15.64,6.3,1.84,9.49,1.43a18.63,18.63,0,0,0,4.12-1.18l8.38-3.09a2,2,0,0,0,.66-.33,1.56,1.56,0,0,0,.25-1.82,7.15,7.15,0,0,0-1.21-1.54c-1-1.07-1.69-2.58-1.17-3.92.35-.88,1.18-1.52,1.47-2.43.54-1.67-.93-3.24-1.81-4.76a7.89,7.89,0,0,1-1.07-4.65c.14-1.75.85-3.42.9-5.17a13.89,13.89,0,0,0-1-4.77,16.43,16.43,0,0,0-1.6-3.7,8.48,8.48,0,0,0-6.34-3.72c-1.19-.1-2.35.28-3.52.13C1003.13,251.38,1001.6,251,999.94,250.91Z" transform="translate(-89.8 -22.5)"/><path class="cls-19" d="M1002,296.75s-9.5-6-5.81-12.82a10.72,10.72,0,0,0,1.31-4.46,9.91,9.91,0,0,0,0-1.09v-.05c0-.19,0-.37,0-.55a11.18,11.18,0,0,0-2.77-6s15.76-4.6,13.12-.45c-1.22,1.92-.86,3.81,0,5.76.09.21.18.42.28.62.94,2.06,2.26,4.2,2.62,6.51C1011.42,289,1002,296.75,1002,296.75Z" transform="translate(-89.8 -22.5)"/><path class="cls-3" d="M1008.09,271.34c-1.22,1.92-.86,3.81,0,5.76a10.62,10.62,0,0,1-10.31.68,11.18,11.18,0,0,0-2.77-6S1010.73,267.19,1008.09,271.34Z" transform="translate(-89.8 -22.5)"/><circle class="cls-19" cx="912.48" cy="245.45" r="10.63"/><path class="cls-3" d="M997.5,278.39v-.08S997.5,278.36,997.5,278.39Z" transform="translate(-89.8 -22.5)"/><path class="cls-3" d="M1002.29,296.75s-9.5-6-5.81-12.82a10.57,10.57,0,0,0,1.31-4.46c.22,1.69,1.39,3.8,3.52,6.72a9.4,9.4,0,0,1,1.44,4.82l.22.15,1-.63a11.11,11.11,0,0,1,1.46-5.35c2.47-3.7,3-5.54,2.87-7.46.95,2.06,2.26,4.19,2.63,6.51C1011.71,289,1002.29,296.75,1002.29,296.75Z" transform="translate(-89.8 -22.5)"/><path class="cls-20" d="M1017.51,282.44a14.38,14.38,0,0,1-9.24-4.8c.31,2.05-.18,3.9-2.82,7.85a11,11,0,0,0-1.45,5.35l-1,.63-.21-.15a9.44,9.44,0,0,0-1.45-4.83c-2.64-3.61-3.81-6-3.5-7.87a11.65,11.65,0,0,1-8.56,5.08c-5.65.38-10.4,4.38-10.86,11.69l1.81,2.11H998v1h28.53l1.81-3.3C1027.92,287.21,1023.17,282.85,1017.51,282.44Z" transform="translate(-89.8 -22.5)"/><path class="cls-21" d="M1017.51,282.44a14.38,14.38,0,0,1-9.24-4.8c.31,2.05-.18,3.9-2.82,7.85a11,11,0,0,0-1.45,5.35l-1,.63-.21-.15a9.44,9.44,0,0,0-1.45-4.83c-2.64-3.61-3.81-6-3.5-7.87a11.65,11.65,0,0,1-8.56,5.08c-5.65.38-10.4,4.38-10.86,11.69l1.81,2.11H998v1h28.53l1.81-3.3C1027.92,287.21,1023.17,282.85,1017.51,282.44Z" transform="translate(-89.8 -22.5)"/><path class="cls-3" d="M1009.47,262.81a8.66,8.66,0,0,1-2.18,3,6.44,6.44,0,0,1-4.49,2.12,6.94,6.94,0,0,0,1.94-3.19c-1.08.63-1.89,1.62-2.91,2.32a3.11,3.11,0,0,1-3.48.34,10.51,10.51,0,0,0,4.35-4.11c-2.44.63-3.69,3.37-5.88,4.6a6.6,6.6,0,0,1-3.41.77,2.68,2.68,0,0,1-2.24-.91,2.58,2.58,0,0,1-.34-1.4,9.57,9.57,0,0,1,2.24-6.11,15.77,15.77,0,0,1,5.21-4.05,6.85,6.85,0,0,1,2.21-.81,8,8,0,0,1,2.92.28,16.88,16.88,0,0,1,3.63,1.16C1009.48,258,1010.54,260.17,1009.47,262.81Z" transform="translate(-89.8 -22.5)"/><path class="cls-18" d="M1009.47,262.66a8.66,8.66,0,0,1-2.18,3,6.44,6.44,0,0,1-4.49,2.12,6.94,6.94,0,0,0,1.94-3.19c-1.08.63-1.89,1.62-2.91,2.32a3.11,3.11,0,0,1-3.48.34,10.51,10.51,0,0,0,4.35-4.11c-2.44.63-3.69,3.37-5.88,4.6a6.6,6.6,0,0,1-3.41.77,2.68,2.68,0,0,1-2.24-.91,2.58,2.58,0,0,1-.34-1.4,9.57,9.57,0,0,1,2.24-6.11,15.93,15.93,0,0,1,5.21-4.06,7.07,7.07,0,0,1,2.21-.8,7.82,7.82,0,0,1,2.92.28,16.88,16.88,0,0,1,3.63,1.16C1009.48,257.83,1010.54,260,1009.47,262.66Z" transform="translate(-89.8 -22.5)"/><circle class="cls-22" cx="846.37" cy="240.74" r="13.49"/><path class="cls-23" d="M948.28,289.22s-12.36,3.16-12.67,3.46-10.4.83-7.46-5.35a22.85,22.85,0,0,0,1.67-8.35c0-.12,0-.25,0-.38a61.46,61.46,0,0,0-.47-9.67s14.32-5.66,13.26,2.94a18,18,0,0,0,.44,6.31c.16.68.34,1.34.55,2A33.68,33.68,0,0,0,948.28,289.22Z" transform="translate(-89.8 -22.5)"/><path class="cls-3" d="M943.06,278.19a11.63,11.63,0,0,1-13.23.42,61.35,61.35,0,0,0-.47-9.67s14.32-5.66,13.26,2.94A18,18,0,0,0,943.06,278.19Z" transform="translate(-89.8 -22.5)"/><circle class="cls-23" cx="846.34" cy="246.13" r="11.61"/><path class="cls-3" d="M948.28,289.22s-12.36,3.16-12.67,3.46-10.4.83-7.46-5.35a22.85,22.85,0,0,0,1.67-8.35c.11,1.57,1,5.35,1.12,6.61a1.43,1.43,0,0,0,0,.22,4.69,4.69,0,0,0,1.49,1.82l0,0a5.5,5.5,0,0,0,6.48.43,29.59,29.59,0,0,0,3-2.13,5.17,5.17,0,0,0,1.81-3.93,8.56,8.56,0,0,0-.15-1.89A33.64,33.64,0,0,0,948.28,289.22Z" transform="translate(-89.8 -22.5)"/><path class="cls-20" d="M963.88,297.5H913.45s1-5.13,1.2-6.18a12.69,12.69,0,0,1,2.59-4.46,7.41,7.41,0,0,1,5-2.93c3.66-.19,7.61-5.35,7.61-5.35h0c.09,1.5,1,5.42,1.14,6.71a.78.78,0,0,0,0,.21,4.65,4.65,0,0,0,1.48,1.82l0,0a5.55,5.55,0,0,0,6.53.4,28.52,28.52,0,0,0,2.9-2.1,5.13,5.13,0,0,0,1.82-3.92,8.75,8.75,0,0,0-.32-2.6,2.28,2.28,0,0,0-.12-.39l.16.06s6.82,5,13.07,7a6.08,6.08,0,0,1,1.18.48A8.72,8.72,0,0,1,960,288.1a12.94,12.94,0,0,1,2.08,3.2A21.88,21.88,0,0,1,963.88,297.5Z" transform="translate(-89.8 -22.5)"/><path class="cls-21" d="M963.88,297.5H913.45s1-5.13,1.2-6.18a12.69,12.69,0,0,1,2.59-4.46,7.41,7.41,0,0,1,5-2.93c3.66-.19,7.61-5.35,7.61-5.35h0c.09,1.5,1,5.42,1.14,6.71a.78.78,0,0,0,0,.21,4.65,4.65,0,0,0,1.48,1.82l0,0a5.55,5.55,0,0,0,6.53.4,28.52,28.52,0,0,0,2.9-2.1,5.13,5.13,0,0,0,1.82-3.92,8.75,8.75,0,0,0-.32-2.6,2.28,2.28,0,0,0-.12-.39l.16.06s6.82,5,13.07,7a6.08,6.08,0,0,1,1.18.48A8.72,8.72,0,0,1,960,288.1a12.94,12.94,0,0,1,2.08,3.2A21.88,21.88,0,0,1,963.88,297.5Z" transform="translate(-89.8 -22.5)"/><path class="cls-3" d="M941.72,264.74a4.65,4.65,0,0,0,1.73,3,1.51,1.51,0,0,1,.37.25c.26.28.18.71.14,1.08a4.46,4.46,0,0,0,1.33,3.51,6.58,6.58,0,0,0,3.39,1.74,1.2,1.2,0,0,0,.93-.07,1.09,1.09,0,0,0,.38-.54,4.66,4.66,0,0,0-.09-2.95c-.3-.95-.73-1.87-1-2.84-.53-2.32.18-4.71.49-7.07a6,6,0,0,0,0-2.35,7.11,7.11,0,0,0-1.88-2.83,5.93,5.93,0,0,0-1.39-1.21c-1.58-.87-3.63-.1-5.32-.73a17.51,17.51,0,0,1-1.9-1,6.88,6.88,0,0,0-4.5-.41,20.53,20.53,0,0,0-4.31,1.6l-1.06.48c-1.5.7-3.11,1.48-3.92,2.93s-.62,3.52-1.48,5.06a4.28,4.28,0,0,0-.7,1.44,3,3,0,0,0,.19,1.14,9.32,9.32,0,0,1,.48,2.77,3.71,3.71,0,0,1-1,2.57c-.28.28-.66.64-.49,1a.79.79,0,0,0,.23.25,4.08,4.08,0,0,0,3.9.58,2.49,2.49,0,0,0,1.27-1,3.65,3.65,0,0,0,.41-1.07,15.1,15.1,0,0,0,.7-4.15,15.17,15.17,0,0,1,0-2.43,2.14,2.14,0,0,1,1.36-1.84,6.79,6.79,0,0,1,1.8,0c.87,0,1.93-1,2.74-.68s1.24,1.57,1.81,2.08A6.63,6.63,0,0,0,941.72,264.74Z" transform="translate(-89.8 -22.5)"/><path class="cls-22" d="M941.72,264.58a4.6,4.6,0,0,0,1.73,3,1.55,1.55,0,0,1,.37.26c.25.27.18.7.14,1.08a4.48,4.48,0,0,0,1.32,3.5,6.63,6.63,0,0,0,3.4,1.75,1.26,1.26,0,0,0,.92-.07,1.06,1.06,0,0,0,.38-.55,4.56,4.56,0,0,0-.09-2.94c-.29-1-.73-1.87-.95-2.85-.53-2.31.17-4.71.49-7.06a6.24,6.24,0,0,0,0-2.36,7.07,7.07,0,0,0-1.88-2.83,5.69,5.69,0,0,0-1.38-1.21c-1.59-.86-3.63-.09-5.33-.73a19.62,19.62,0,0,1-1.9-1,6.85,6.85,0,0,0-4.49-.41,20.13,20.13,0,0,0-4.31,1.6l-1.05.49c-1.5.69-3.11,1.48-3.92,2.92s-.62,3.52-1.48,5.07a4.23,4.23,0,0,0-.7,1.43,3,3,0,0,0,.19,1.14,9.37,9.37,0,0,1,.48,2.77,3.74,3.74,0,0,1-1,2.57c-.28.28-.66.64-.49,1a.92.92,0,0,0,.23.25,4.14,4.14,0,0,0,3.9.58,2.65,2.65,0,0,0,1.27-1,3.82,3.82,0,0,0,.41-1.08,15,15,0,0,0,.7-4.15,15,15,0,0,1,0-2.42,2.15,2.15,0,0,1,1.36-1.85,7.25,7.25,0,0,1,1.8,0c.87,0,1.93-1,2.74-.69s1.24,1.57,1.81,2.08A6.53,6.53,0,0,0,941.72,264.58Z" transform="translate(-89.8 -22.5)"/><rect class="cls-24" x="864.7" y="247" width="26" height="23"/><rect class="cls-21" x="864.7" y="247" width="26" height="23"/><path class="cls-25" d="M976.6,302.5H954.26a11.87,11.87,0,0,1,2.63-5.4,20.19,20.19,0,0,0,3-5.11c.2-.49.38-1,.54-1.49a23.27,23.27,0,0,0,.94-4.55.59.59,0,0,1,0-.13,26.76,26.76,0,0,0,.13-3.23v-.46a24.06,24.06,0,0,0-1-6.85l-.24-.79c-.23-.78-.4-1.21-.4-1.21s.42-.25,1.11-.61l.06,0c2.55-1.31,8.57-4,11.23-2.09l0,0c.92.71,1.43,2,1.19,4.18v-.32a9.12,9.12,0,0,1,1,.12c-.15,1.49,0,4.49,0,4.49v.24a2.22,2.22,0,0,0,0,1.06v.15a20.49,20.49,0,0,0,0,3.59c.1,1.7.24,3.42.4,5.12.08.72.15,1.44.24,2.15,0,.08,0,.17,0,.25.1.86.2,1.71.3,2.53v.05C975.86,297.45,976.6,302.5,976.6,302.5Z" transform="translate(-89.8 -22.5)"/><path class="cls-3" d="M973.5,274.47v0l1,4.62v.16a11.36,11.36,0,0,1-13,3v-.7a27.48,27.48,0,0,0-1.24-7.36c-.23-.72-.4-1.13-.4-1.13s.42-.23,1.11-.56c2.53-1.22,8.68-3.85,11.33-2C973.23,271.23,973.73,272.44,973.5,274.47Z" transform="translate(-89.8 -22.5)"/><circle class="cls-25" cx="876.18" cy="249.38" r="11.01"/><path class="cls-3" d="M966.56,302.5H943.08s1-5.13,1.2-6.18a12.69,12.69,0,0,1,2.59-4.46,11.4,11.4,0,0,1,7-2.49c4.49-.07,5.8,1.48,6.16,2.62a2.67,2.67,0,0,1,.09,1.19l.85,1.23Z" transform="translate(-89.8 -22.5)"/><path class="cls-20" d="M966.49,302.5H943s1.06-5.13,1.21-6.18a12.69,12.69,0,0,1,2.59-4.46,11.38,11.38,0,0,1,7-2.49c4.49-.07,5.8,1.48,6.15,2.62a2.41,2.41,0,0,1,.09,1.19l.85,1.23Z" transform="translate(-89.8 -22.5)"/><path class="cls-3" d="M992.13,302.5H967.52c1.17-2.5,4.25-9.15,4.42-10.69.07-.6.7-1.16,1.54-1.63a9.06,9.06,0,0,1,.82-.42l.05,0,.47-.19a9.37,9.37,0,0,1,6.58.05c2,.77,4.62,1.81,6.65,2.78h0c.52.25,1,.5,1.43.73a5.64,5.64,0,0,1,1.72,1.24,7.66,7.66,0,0,1,.36,2C991.75,297.8,991.94,300,992.13,302.5Z" transform="translate(-89.8 -22.5)"/><path class="cls-20" d="M992.2,302.5H967.59c1.18-2.5,4.25-9.15,4.43-10.69.06-.6.7-1.16,1.54-1.63a7.91,7.91,0,0,1,.82-.42l0,0,.46-.19a9.4,9.4,0,0,1,6.59.05c2,.77,4.62,1.81,6.64,2.78h0c.52.25,1,.5,1.43.73a5.69,5.69,0,0,1,1.71,1.24,8,8,0,0,1,.37,2C991.82,297.8,992,300,992.2,302.5Z" transform="translate(-89.8 -22.5)"/><path class="cls-3" d="M988.24,290.08c0,.36,0,.71,0,1.07,0,.17,0,.35,0,.52l0,.37,0,.14c-.19,1.68-.53,3.35-.62,5v.24c0,1.58.64,5,.64,5H974c0-.29,0-.58,0-.86s0-.52,0-.78c.22-2.12,1.31-4.11,1.47-6.23v-.09c0-.16,0-.32,0-.48v0a8.58,8.58,0,0,0-.32-2.07l0-.1a19.82,19.82,0,0,0-.69-2l-.05-.13a30.25,30.25,0,0,1-1.06-2.87,7.41,7.41,0,0,1-.33-2.19,2.68,2.68,0,0,1,0-.4c0-.11,0-.22,0-.33s.06-.34.1-.51a11.8,11.8,0,0,1,1.2-2.61h0a7.56,7.56,0,0,0,1.11-2.86,2.3,2.3,0,0,0,0-.37h0a3.87,3.87,0,0,0,0-.49,8.16,8.16,0,0,0-.78-2l-.09-.2v0a26,26,0,0,1-1.26-4.17c0-.06,0-.12,0-.18-.08-.35-.17-.7-.27-1-.65-2.37-1.64-4.78-3.86-6.09a4.6,4.6,0,0,0-2.19-.67c-2.83-.09-4.18,2.25-4.69,4.51-.37,1.65-.4,3.38-.88,5,0,.12-.07.23-.12.35l-.06.18c-.21.59-.46,1.18-.73,1.76l0,.06c-.88,1.87-1.9,3.7-1.93,5.58v-.17a3.28,3.28,0,0,0,.14,1.32,6.51,6.51,0,0,0,1.14,2.08l.29.37c.49.6,1,1.17,1.48,1.79v0a6.82,6.82,0,0,1,.88,1.47,5.36,5.36,0,0,1,0,4.14c-.14.31-.29.6-.45.89-.3.51-.63,1-.89,1.54-.08.18-.16.37-.23.55-.57,1.49-.7,3.13-1.17,4.67a4.17,4.17,0,0,1-1.68,2.61H943a50.2,50.2,0,0,0,1.17-5.37,12.79,12.79,0,0,1,2.59-4.47l-.37.31a12.92,12.92,0,0,0-2.52,2.9c0-.11.07-.21.1-.31.22-.63.44-1.26.68-1.88a13.54,13.54,0,0,1,2.76-4.93c.75-.76,1.67-1.35,2.39-2.14a7.68,7.68,0,0,0,1.79-5.23c0-.19,0-.39,0-.59a19.86,19.86,0,0,0-1.61-6,8.69,8.69,0,0,1-.84-3.24c0-.15,0-.3,0-.46.32-2.28,2.63-3.65,4-5.49,2.07-2.74,2.22-6.82,4.92-8.92,2.08-1.62,5-1.52,7.59-1.34,2.45.16,4.65.48,7.07.82a12,12,0,0,1,9.93,6A12.37,12.37,0,0,1,985,267c0,.15,0,.3,0,.45,0,2.47-1,4.86-1.19,7.35,0,.11,0,.23,0,.34v0a12.13,12.13,0,0,0,1.92,6.24A16.69,16.69,0,0,1,988.24,290.08Z" transform="translate(-89.8 -22.5)"/><path class="cls-24" d="M988.24,290.08c0,.31,0,.61,0,.92s0,.34,0,.52,0,.34,0,.51c-.19,1.68-.53,3.35-.62,5v.39c0,1.58.67,5,.67,5H974c0-.29,0-.58,0-.86s0-.62,0-.93c.22-2.12,1.31-4.11,1.47-6.23,0-.15,0-.31,0-.46v-.11a8.21,8.21,0,0,0-.34-2.2,20.07,20.07,0,0,0-.7-2c-.4-1-.82-2-1.11-3a7.84,7.84,0,0,1-.33-2.05,5.09,5.09,0,0,1,0-.55c0-.11,0-.21,0-.32s.06-.35.1-.51a11.17,11.17,0,0,1,1.2-2.61,7.47,7.47,0,0,0,1.12-2.87c0-.07,0-.15,0-.23h0a2.68,2.68,0,0,0,0-.63,8.07,8.07,0,0,0-.78-2,1.54,1.54,0,0,1-.08-.19,25.57,25.57,0,0,1-1.28-4.21c-.1-.41-.21-.82-.32-1.22-.63-2.33-1.6-4.69-3.74-6a4.58,4.58,0,0,0-2.22-.71c-2.89-.15-4.27,2.21-4.78,4.5-.37,1.65-.4,3.38-.88,5l-.18.53a19,19,0,0,1-.76,1.82c-.9,1.91-1.95,3.8-1.93,5.73v-.32a7.82,7.82,0,0,0,.15,1.32,6.51,6.51,0,0,0,1.14,2.08l.3.37c.49.6,1,1.18,1.48,1.81a6.82,6.82,0,0,1,.88,1.47,5.31,5.31,0,0,1,0,4.14,7.42,7.42,0,0,1-.45.89c-.3.51-.63,1-.88,1.54a3.76,3.76,0,0,0-.23.55c-.58,1.49-.71,3.13-1.18,4.67A4.44,4.44,0,0,1,958,301.5H943a45.87,45.87,0,0,0,1.21-5.53,12.15,12.15,0,0,1,2.21-4l.38-.46a13,13,0,0,0-2.79,3l-.1.17c.24-.74.5-1.47.77-2.19a13.6,13.6,0,0,1,2.76-4.93c.76-.76,1.68-1.35,2.4-2.14a7.57,7.57,0,0,0,1.78-5.09c0-.24,0-.49,0-.73a20.44,20.44,0,0,0-1.61-6,9.24,9.24,0,0,1-.84-3.09,4.17,4.17,0,0,1,0-.61c.31-2.27,2.62-3.63,4-5.48,2.06-2.74,2.21-6.81,4.92-8.92,2.08-1.61,5-1.51,7.59-1.34,2.44.17,4.65.48,7.07.82a14.32,14.32,0,0,1,6.83,2.47,14.48,14.48,0,0,1,3.1,3.56,12.37,12.37,0,0,1,2.33,5.84c0,.2,0,.41,0,.61,0,2.41-1,4.76-1.19,7.19,0,.17,0,.33,0,.5v0a12.24,12.24,0,0,0,1.92,6.08A16.69,16.69,0,0,1,988.24,290.08Z" transform="translate(-89.8 -22.5)"/><path class="cls-44" d="M833.32,162.8a1.5,1.5,0,0,0,0-3,1.5,1.5,0,0,0,0,3Z" transform="translate(-89.8 -22.5)"/><path class="cls-44" d="M836,157.51a1.5,1.5,0,0,0,0-3,1.5,1.5,0,0,0,0,3Z" transform="translate(-89.8 -22.5)"/><path class="cls-44" d="M836,157.51a1.5,1.5,0,0,0,0-3,1.5,1.5,0,0,0,0,3Z" transform="translate(-89.8 -22.5)"/><path class="cls-44" d="M768.5,150.9a1.5,1.5,0,0,0,0-3,1.5,1.5,0,0,0,0,3Z" transform="translate(-89.8 -22.5)"/><path class="cls-44" d="M768.5,150.9a1.5,1.5,0,0,0,0-3,1.5,1.5,0,0,0,0,3Z" transform="translate(-89.8 -22.5)"/><path d="M830.68,260.7H881a1.5,1.5,0,0,0,0-3H830.68a1.5,1.5,0,0,0,0,3Z" transform="translate(-89.8 -22.5)"/><path d="M240.68,258.59l134.89-5c1.93-.07,1.94-3.08,0-3l-134.89,5.05c-1.93.07-1.94,3.07,0,3Z" transform="translate(-89.8 -22.5)"/><path d="M319.79,116.77a622.64,622.64,0,0,1,58.56,40.49c1.51,1.18,3.65-.93,2.13-2.12a628,628,0,0,0-59.18-41c-1.65-1-3.16,1.59-1.51,2.59Z" transform="translate(-89.8 -22.5)"/><text class="cls-45" transform="translate(5.7 382.06)"><tspan class="cls-46">P</tspan><tspan class="cls-47" x="27.8" y="0">r</tspan><tspan class="cls-48" x="43.32" y="0">e</tspan><tspan class="cls-49" x="67.48" y="0">n</tspan><tspan class="cls-50" x="94.64" y="0">e</tspan><tspan x="118.6" y="0">z </tspan><tspan class="cls-51" x="149.52" y="0">p</tspan><tspan class="cls-48" x="176.52" y="0">a</tspan><tspan class="cls-52" x="200.12" y="0">r</tspan><tspan x="216.76" y="0">t à des </tspan><tspan class="cls-53" x="358.88" y="0">c</tspan><tspan x="381.04" y="0">ommunau</tspan><tspan class="cls-54" x="595.51" y="0">t</tspan><tspan x="610.99" y="0">és p</tspan><tspan class="cls-55" x="692.31" y="0">r</tspan><tspan x="707.83" y="0">ès de </tspan><tspan class="cls-56" x="823.79" y="0">c</tspan><tspan class="cls-49" x="845.99" y="0">h</tspan><tspan class="cls-57" x="873.15" y="0">e</tspan><tspan x="897.11" y="0">z </tspan><tspan class="cls-58" x="928.03" y="0">v</tspan><tspan x="949.11" y="0">ous</tspan></text><path d="M831.08,179.25,961.59,78.94c1.51-1.16,0-3.77-1.52-2.59L829.56,176.66c-1.51,1.16,0,3.76,1.52,2.59Z" transform="translate(-89.8 -22.5)"/></svg>